G04 #@! TF.GenerationSoftware,KiCad,Pcbnew,9.0.0*
G04 #@! TF.CreationDate,2025-04-22T10:43:33+02:00*
G04 #@! TF.ProjectId,KnurCAN_V2,4b6e7572-4341-44e5-9f56-322e6b696361,rev?*
G04 #@! TF.SameCoordinates,Original*
G04 #@! TF.FileFunction,Soldermask,Top*
G04 #@! TF.FilePolarity,Negative*
%FSLAX46Y46*%
G04 Gerber Fmt 4.6, Leading zero omitted, Abs format (unit mm)*
G04 Created by KiCad (PCBNEW 9.0.0) date 2025-04-22 10:43:33*
%MOMM*%
%LPD*%
G01*
G04 APERTURE LIST*
G04 Aperture macros list*
%AMRoundRect*
0 Rectangle with rounded corners*
0 $1 Rounding radius*
0 $2 $3 $4 $5 $6 $7 $8 $9 X,Y pos of 4 corners*
0 Add a 4 corners polygon primitive as box body*
4,1,4,$2,$3,$4,$5,$6,$7,$8,$9,$2,$3,0*
0 Add four circle primitives for the rounded corners*
1,1,$1+$1,$2,$3*
1,1,$1+$1,$4,$5*
1,1,$1+$1,$6,$7*
1,1,$1+$1,$8,$9*
0 Add four rect primitives between the rounded corners*
20,1,$1+$1,$2,$3,$4,$5,0*
20,1,$1+$1,$4,$5,$6,$7,0*
20,1,$1+$1,$6,$7,$8,$9,0*
20,1,$1+$1,$8,$9,$2,$3,0*%
%AMOutline5P*
0 Free polygon, 5 corners , with rotation*
0 The origin of the aperture is its center*
0 number of corners: always 5*
0 $1 to $10 corner X, Y*
0 $11 Rotation angle, in degrees counterclockwise*
0 create outline with 5 corners*
4,1,5,$1,$2,$3,$4,$5,$6,$7,$8,$9,$10,$1,$2,$11*%
%AMOutline6P*
0 Free polygon, 6 corners , with rotation*
0 The origin of the aperture is its center*
0 number of corners: always 6*
0 $1 to $12 corner X, Y*
0 $13 Rotation angle, in degrees counterclockwise*
0 create outline with 6 corners*
4,1,6,$1,$2,$3,$4,$5,$6,$7,$8,$9,$10,$11,$12,$1,$2,$13*%
%AMOutline7P*
0 Free polygon, 7 corners , with rotation*
0 The origin of the aperture is its center*
0 number of corners: always 7*
0 $1 to $14 corner X, Y*
0 $15 Rotation angle, in degrees counterclockwise*
0 create outline with 7 corners*
4,1,7,$1,$2,$3,$4,$5,$6,$7,$8,$9,$10,$11,$12,$13,$14,$1,$2,$15*%
%AMOutline8P*
0 Free polygon, 8 corners , with rotation*
0 The origin of the aperture is its center*
0 number of corners: always 8*
0 $1 to $16 corner X, Y*
0 $17 Rotation angle, in degrees counterclockwise*
0 create outline with 8 corners*
4,1,8,$1,$2,$3,$4,$5,$6,$7,$8,$9,$10,$11,$12,$13,$14,$15,$16,$1,$2,$17*%
G04 Aperture macros list end*
%ADD10C,1.600000*%
%ADD11O,1.600000X1.600000*%
%ADD12R,1.500000X1.500000*%
%ADD13C,1.500000*%
%ADD14R,1.700000X1.700000*%
%ADD15O,1.700000X1.700000*%
%ADD16R,1.600000X1.600000*%
%ADD17RoundRect,0.250000X-0.550000X0.550000X-0.550000X-0.550000X0.550000X-0.550000X0.550000X0.550000X0*%
%ADD18Outline8P,-1.600000X0.800000X-0.800000X1.600000X0.800000X1.600000X1.600000X0.800000X1.600000X-0.800000X0.800000X-1.600000X-0.800000X-1.600000X-1.600000X-0.800000X135.000000*%
%ADD19R,2.000000X2.000000*%
%ADD20O,2.000000X2.000000*%
%ADD21R,2.000000X1.700000*%
%ADD22O,2.000000X1.700000*%
G04 APERTURE END LIST*
D10*
X83693000Y-84201000D03*
D11*
X91313000Y-84201000D03*
D10*
X83693000Y-87249000D03*
D11*
X91313000Y-87249000D03*
D12*
X59563000Y-76962000D03*
D13*
X59563000Y-74422000D03*
X59563000Y-71882000D03*
D14*
X76454000Y-66548000D03*
D15*
X78994000Y-66548000D03*
X81534000Y-66548000D03*
X84074000Y-66548000D03*
X86614000Y-66548000D03*
D10*
X58420000Y-96647000D03*
D11*
X50800000Y-96647000D03*
D16*
X59436000Y-90678000D03*
D10*
X59436000Y-88178000D03*
D17*
X75692000Y-88138000D03*
D10*
X73152000Y-88138000D03*
X70612000Y-88138000D03*
X68072000Y-88138000D03*
X68072000Y-95758000D03*
X70612000Y-95758000D03*
X73152000Y-95758000D03*
X75692000Y-95758000D03*
D16*
X58420000Y-93726000D03*
D11*
X50800000Y-93726000D03*
D10*
X63373000Y-71882000D03*
D11*
X63373000Y-79502000D03*
D14*
X99922000Y-89916000D03*
D10*
X97382000Y-89916000D03*
X87122000Y-89916000D03*
X84682000Y-89916000D03*
X84682000Y-97536000D03*
X87122000Y-97536000D03*
X97382000Y-97536000D03*
X99922000Y-97536000D03*
D18*
X54610000Y-90678000D03*
X51562000Y-87630000D03*
X54610000Y-84582000D03*
X51562000Y-81534000D03*
X54610000Y-78486000D03*
X51562000Y-75438000D03*
X54610000Y-72390000D03*
D10*
X95270000Y-87249000D03*
X97770000Y-87249000D03*
X69342000Y-74422000D03*
D11*
X69342000Y-82042000D03*
D16*
X75184000Y-82042000D03*
D11*
X75184000Y-74422000D03*
D12*
X59055000Y-80010000D03*
D13*
X59055000Y-82550000D03*
X59055000Y-85090000D03*
D10*
X70993000Y-84709000D03*
D11*
X63373000Y-84709000D03*
D16*
X63119000Y-95123000D03*
D10*
X63119000Y-92623000D03*
X101092000Y-67056000D03*
D11*
X93472000Y-67056000D03*
D10*
X72390000Y-82042000D03*
D11*
X72390000Y-74422000D03*
D10*
X83693000Y-81153000D03*
D11*
X91313000Y-81153000D03*
D19*
X76390000Y-70380000D03*
D20*
X78930000Y-70380000D03*
X81470000Y-70380000D03*
X84010000Y-70380000D03*
X86550000Y-70380000D03*
X89090000Y-70380000D03*
D21*
X96190000Y-80520000D03*
D20*
X96190000Y-76980000D03*
D21*
X66330000Y-81740000D03*
D22*
X66330000Y-79740000D03*
X66330000Y-77740000D03*
X66330000Y-75740000D03*
D16*
X73152000Y-84709000D03*
D11*
X80772000Y-84709000D03*
D12*
X79982000Y-94996000D03*
D13*
X79982000Y-92456000D03*
X79982000Y-89916000D03*
M02*
