G04 #@! TF.GenerationSoftware,KiCad,Pcbnew,9.0.0*
G04 #@! TF.CreationDate,2025-04-22T10:43:32+02:00*
G04 #@! TF.ProjectId,KnurCAN_V2,4b6e7572-4341-44e5-9f56-322e6b696361,rev?*
G04 #@! TF.SameCoordinates,Original*
G04 #@! TF.FileFunction,Copper,L1,Top*
G04 #@! TF.FilePolarity,Positive*
%FSLAX46Y46*%
G04 Gerber Fmt 4.6, Leading zero omitted, Abs format (unit mm)*
G04 Created by KiCad (PCBNEW 9.0.0) date 2025-04-22 10:43:32*
%MOMM*%
%LPD*%
G01*
G04 APERTURE LIST*
G04 Aperture macros list*
%AMRoundRect*
0 Rectangle with rounded corners*
0 $1 Rounding radius*
0 $2 $3 $4 $5 $6 $7 $8 $9 X,Y pos of 4 corners*
0 Add a 4 corners polygon primitive as box body*
4,1,4,$2,$3,$4,$5,$6,$7,$8,$9,$2,$3,0*
0 Add four circle primitives for the rounded corners*
1,1,$1+$1,$2,$3*
1,1,$1+$1,$4,$5*
1,1,$1+$1,$6,$7*
1,1,$1+$1,$8,$9*
0 Add four rect primitives between the rounded corners*
20,1,$1+$1,$2,$3,$4,$5,0*
20,1,$1+$1,$4,$5,$6,$7,0*
20,1,$1+$1,$6,$7,$8,$9,0*
20,1,$1+$1,$8,$9,$2,$3,0*%
%AMOutline5P*
0 Free polygon, 5 corners , with rotation*
0 The origin of the aperture is its center*
0 number of corners: always 5*
0 $1 to $10 corner X, Y*
0 $11 Rotation angle, in degrees counterclockwise*
0 create outline with 5 corners*
4,1,5,$1,$2,$3,$4,$5,$6,$7,$8,$9,$10,$1,$2,$11*%
%AMOutline6P*
0 Free polygon, 6 corners , with rotation*
0 The origin of the aperture is its center*
0 number of corners: always 6*
0 $1 to $12 corner X, Y*
0 $13 Rotation angle, in degrees counterclockwise*
0 create outline with 6 corners*
4,1,6,$1,$2,$3,$4,$5,$6,$7,$8,$9,$10,$11,$12,$1,$2,$13*%
%AMOutline7P*
0 Free polygon, 7 corners , with rotation*
0 The origin of the aperture is its center*
0 number of corners: always 7*
0 $1 to $14 corner X, Y*
0 $15 Rotation angle, in degrees counterclockwise*
0 create outline with 7 corners*
4,1,7,$1,$2,$3,$4,$5,$6,$7,$8,$9,$10,$11,$12,$13,$14,$1,$2,$15*%
%AMOutline8P*
0 Free polygon, 8 corners , with rotation*
0 The origin of the aperture is its center*
0 number of corners: always 8*
0 $1 to $16 corner X, Y*
0 $17 Rotation angle, in degrees counterclockwise*
0 create outline with 8 corners*
4,1,8,$1,$2,$3,$4,$5,$6,$7,$8,$9,$10,$11,$12,$13,$14,$15,$16,$1,$2,$17*%
G04 Aperture macros list end*
G04 #@! TA.AperFunction,ComponentPad*
%ADD10C,1.600000*%
G04 #@! TD*
G04 #@! TA.AperFunction,ComponentPad*
%ADD11O,1.600000X1.600000*%
G04 #@! TD*
G04 #@! TA.AperFunction,ComponentPad*
%ADD12R,1.500000X1.500000*%
G04 #@! TD*
G04 #@! TA.AperFunction,ComponentPad*
%ADD13C,1.500000*%
G04 #@! TD*
G04 #@! TA.AperFunction,ComponentPad*
%ADD14R,1.700000X1.700000*%
G04 #@! TD*
G04 #@! TA.AperFunction,ComponentPad*
%ADD15O,1.700000X1.700000*%
G04 #@! TD*
G04 #@! TA.AperFunction,ComponentPad*
%ADD16R,1.600000X1.600000*%
G04 #@! TD*
G04 #@! TA.AperFunction,ComponentPad*
%ADD17RoundRect,0.250000X-0.550000X0.550000X-0.550000X-0.550000X0.550000X-0.550000X0.550000X0.550000X0*%
G04 #@! TD*
G04 #@! TA.AperFunction,ComponentPad*
%ADD18Outline8P,-1.600000X0.800000X-0.800000X1.600000X0.800000X1.600000X1.600000X0.800000X1.600000X-0.800000X0.800000X-1.600000X-0.800000X-1.600000X-1.600000X-0.800000X135.000000*%
G04 #@! TD*
G04 #@! TA.AperFunction,ComponentPad*
%ADD19R,2.000000X2.000000*%
G04 #@! TD*
G04 #@! TA.AperFunction,ComponentPad*
%ADD20O,2.000000X2.000000*%
G04 #@! TD*
G04 #@! TA.AperFunction,ComponentPad*
%ADD21R,2.000000X1.700000*%
G04 #@! TD*
G04 #@! TA.AperFunction,ComponentPad*
%ADD22O,2.000000X1.700000*%
G04 #@! TD*
G04 #@! TA.AperFunction,ViaPad*
%ADD23C,1.016000*%
G04 #@! TD*
G04 #@! TA.AperFunction,Conductor*
%ADD24C,0.762000*%
G04 #@! TD*
G04 #@! TA.AperFunction,Conductor*
%ADD25C,0.508000*%
G04 #@! TD*
G04 APERTURE END LIST*
D10*
X83693000Y-84201000D03*
D11*
X91313000Y-84201000D03*
D10*
X83693000Y-87249000D03*
D11*
X91313000Y-87249000D03*
D12*
X59563000Y-76962000D03*
D13*
X59563000Y-74422000D03*
X59563000Y-71882000D03*
D14*
X76454000Y-66548000D03*
D15*
X78994000Y-66548000D03*
X81534000Y-66548000D03*
X84074000Y-66548000D03*
X86614000Y-66548000D03*
D10*
X58420000Y-96647000D03*
D11*
X50800000Y-96647000D03*
D16*
X59436000Y-90678000D03*
D10*
X59436000Y-88178000D03*
D17*
X75692000Y-88138000D03*
D10*
X73152000Y-88138000D03*
X70612000Y-88138000D03*
X68072000Y-88138000D03*
X68072000Y-95758000D03*
X70612000Y-95758000D03*
X73152000Y-95758000D03*
X75692000Y-95758000D03*
D16*
X58420000Y-93726000D03*
D11*
X50800000Y-93726000D03*
D10*
X63373000Y-71882000D03*
D11*
X63373000Y-79502000D03*
D14*
X99922000Y-89916000D03*
D10*
X97382000Y-89916000D03*
X87122000Y-89916000D03*
X84682000Y-89916000D03*
X84682000Y-97536000D03*
X87122000Y-97536000D03*
X97382000Y-97536000D03*
X99922000Y-97536000D03*
D18*
X54610000Y-90678000D03*
X51562000Y-87630000D03*
X54610000Y-84582000D03*
X51562000Y-81534000D03*
X54610000Y-78486000D03*
X51562000Y-75438000D03*
X54610000Y-72390000D03*
D10*
X95270000Y-87249000D03*
X97770000Y-87249000D03*
X69342000Y-74422000D03*
D11*
X69342000Y-82042000D03*
D16*
X75184000Y-82042000D03*
D11*
X75184000Y-74422000D03*
D12*
X59055000Y-80010000D03*
D13*
X59055000Y-82550000D03*
X59055000Y-85090000D03*
D10*
X70993000Y-84709000D03*
D11*
X63373000Y-84709000D03*
D16*
X63119000Y-95123000D03*
D10*
X63119000Y-92623000D03*
X101092000Y-67056000D03*
D11*
X93472000Y-67056000D03*
D10*
X72390000Y-82042000D03*
D11*
X72390000Y-74422000D03*
D10*
X83693000Y-81153000D03*
D11*
X91313000Y-81153000D03*
D19*
X76390000Y-70380000D03*
D20*
X78930000Y-70380000D03*
X81470000Y-70380000D03*
X84010000Y-70380000D03*
X86550000Y-70380000D03*
X89090000Y-70380000D03*
D21*
X96190000Y-80520000D03*
D20*
X96190000Y-76980000D03*
D21*
X66330000Y-81740000D03*
D22*
X66330000Y-79740000D03*
X66330000Y-77740000D03*
X66330000Y-75740000D03*
D16*
X73152000Y-84709000D03*
D11*
X80772000Y-84709000D03*
D12*
X79982000Y-94996000D03*
D13*
X79982000Y-92456000D03*
X79982000Y-89916000D03*
D23*
X82169000Y-96520000D03*
D24*
X82169000Y-96520000D02*
X82548811Y-96520000D01*
X82548811Y-96520000D02*
X89152811Y-89916000D01*
X62318000Y-97194000D02*
X74256000Y-97194000D01*
X61683000Y-96559000D02*
X62318000Y-97194000D01*
X74256000Y-97194000D02*
X75692000Y-95758000D01*
X89152811Y-89916000D02*
X97382000Y-89916000D01*
X54610000Y-84582000D02*
X56770000Y-86742000D01*
X56770000Y-86742000D02*
X60030811Y-86742000D01*
X60030811Y-86742000D02*
X61683000Y-88394189D01*
X61683000Y-88394189D02*
X61683000Y-96559000D01*
D25*
X55245000Y-72390000D02*
X58547000Y-75692000D01*
X54610000Y-72390000D02*
X55245000Y-72390000D01*
X58547000Y-75692000D02*
X62132000Y-75692000D01*
X66180000Y-79740000D02*
X66330000Y-79740000D01*
X62132000Y-75692000D02*
X66180000Y-79740000D01*
X57415000Y-81291000D02*
X60463000Y-81291000D01*
X54610000Y-78486000D02*
X57415000Y-81291000D01*
X62572000Y-83400000D02*
X76923000Y-83400000D01*
X60463000Y-81291000D02*
X62572000Y-83400000D01*
X83439000Y-89916000D02*
X84682000Y-89916000D01*
X76923000Y-83400000D02*
X83439000Y-89916000D01*
X55521000Y-75438000D02*
X58834000Y-78751000D01*
X58834000Y-78751000D02*
X60770794Y-78751000D01*
X51562000Y-75438000D02*
X55521000Y-75438000D01*
X60770794Y-78751000D02*
X63759794Y-81740000D01*
X63759794Y-81740000D02*
X66330000Y-81740000D01*
X63627000Y-95123000D02*
X70612000Y-88138000D01*
X63119000Y-95123000D02*
X63627000Y-95123000D01*
X62611000Y-86487000D02*
X76221316Y-86487000D01*
X54991000Y-81534000D02*
X57288000Y-83831000D01*
X51562000Y-81534000D02*
X54991000Y-81534000D01*
X78723000Y-96255000D02*
X80004000Y-97536000D01*
X76221316Y-86487000D02*
X78723000Y-88988684D01*
X57288000Y-83831000D02*
X59955000Y-83831000D01*
X59955000Y-83831000D02*
X62611000Y-86487000D01*
X78723000Y-88988684D02*
X78723000Y-96255000D01*
X80004000Y-97536000D02*
X84682000Y-97536000D01*
G04 #@! TA.AperFunction,Conductor*
G36*
X74863920Y-74176394D02*
G01*
X74811259Y-74267606D01*
X74784000Y-74369339D01*
X74784000Y-74474661D01*
X74811259Y-74576394D01*
X74863920Y-74667606D01*
X74872314Y-74676000D01*
X72701686Y-74676000D01*
X72710080Y-74667606D01*
X72762741Y-74576394D01*
X72790000Y-74474661D01*
X72790000Y-74369339D01*
X72762741Y-74267606D01*
X72710080Y-74176394D01*
X72701686Y-74168000D01*
X74872314Y-74168000D01*
X74863920Y-74176394D01*
G37*
G04 #@! TD.AperFunction*
G04 #@! TA.AperFunction,Conductor*
G36*
X74939319Y-65427758D02*
G01*
X75021398Y-65482602D01*
X75076242Y-65564681D01*
X75095500Y-65661500D01*
X75095500Y-67446634D01*
X75095501Y-67446654D01*
X75102009Y-67507196D01*
X75102011Y-67507201D01*
X75153111Y-67644204D01*
X75153112Y-67644205D01*
X75153113Y-67644208D01*
X75240737Y-67761259D01*
X75240740Y-67761262D01*
X75357791Y-67848886D01*
X75357792Y-67848886D01*
X75357796Y-67848889D01*
X75494799Y-67899989D01*
X75494802Y-67899989D01*
X75494804Y-67899990D01*
X75494802Y-67899990D01*
X75543065Y-67905178D01*
X75555362Y-67906500D01*
X75555365Y-67906500D01*
X77352635Y-67906500D01*
X77352638Y-67906500D01*
X77375479Y-67904044D01*
X77413196Y-67899990D01*
X77413197Y-67899989D01*
X77413201Y-67899989D01*
X77550204Y-67848889D01*
X77667261Y-67761261D01*
X77754889Y-67644204D01*
X77754889Y-67644202D01*
X77759258Y-67638367D01*
X77832696Y-67572401D01*
X77925789Y-67539559D01*
X78024363Y-67544843D01*
X78110504Y-67585302D01*
X78168471Y-67627417D01*
X78281991Y-67709894D01*
X78281995Y-67709896D01*
X78282000Y-67709899D01*
X78472506Y-67806967D01*
X78472512Y-67806970D01*
X78472514Y-67806970D01*
X78472517Y-67806972D01*
X78675884Y-67873049D01*
X78887084Y-67906500D01*
X78887086Y-67906500D01*
X79100914Y-67906500D01*
X79100916Y-67906500D01*
X79312116Y-67873049D01*
X79515483Y-67806972D01*
X79706009Y-67709894D01*
X79879004Y-67584206D01*
X80030206Y-67433004D01*
X80059319Y-67392932D01*
X80131807Y-67325926D01*
X80224421Y-67291758D01*
X80323060Y-67295633D01*
X80412709Y-67336961D01*
X80468680Y-67392932D01*
X80497551Y-67432670D01*
X80497794Y-67433004D01*
X80648996Y-67584206D01*
X80821988Y-67709892D01*
X80822000Y-67709899D01*
X81012506Y-67806967D01*
X81012512Y-67806970D01*
X81012514Y-67806970D01*
X81012517Y-67806972D01*
X81215884Y-67873049D01*
X81427084Y-67906500D01*
X81427086Y-67906500D01*
X81640914Y-67906500D01*
X81640916Y-67906500D01*
X81852116Y-67873049D01*
X82055483Y-67806972D01*
X82246009Y-67709894D01*
X82419004Y-67584206D01*
X82570206Y-67433004D01*
X82599319Y-67392932D01*
X82671807Y-67325926D01*
X82764421Y-67291758D01*
X82863060Y-67295633D01*
X82952709Y-67336961D01*
X83008680Y-67392932D01*
X83037551Y-67432670D01*
X83037794Y-67433004D01*
X83188996Y-67584206D01*
X83361988Y-67709892D01*
X83362000Y-67709899D01*
X83552506Y-67806967D01*
X83552512Y-67806970D01*
X83552514Y-67806970D01*
X83552517Y-67806972D01*
X83755884Y-67873049D01*
X83967084Y-67906500D01*
X83967086Y-67906500D01*
X84180914Y-67906500D01*
X84180916Y-67906500D01*
X84392116Y-67873049D01*
X84595483Y-67806972D01*
X84786009Y-67709894D01*
X84959004Y-67584206D01*
X85110206Y-67433004D01*
X85139627Y-67392508D01*
X85212114Y-67325501D01*
X85304728Y-67291332D01*
X85403368Y-67295207D01*
X85493016Y-67336534D01*
X85548988Y-67392505D01*
X85578171Y-67432670D01*
X85578177Y-67432678D01*
X85729320Y-67583821D01*
X85902257Y-67709468D01*
X86092708Y-67806507D01*
X86296004Y-67872561D01*
X86359999Y-67882697D01*
X86360000Y-67882697D01*
X86360000Y-66978702D01*
X86421007Y-67013925D01*
X86548174Y-67048000D01*
X86679826Y-67048000D01*
X86806993Y-67013925D01*
X86868000Y-66978702D01*
X86868000Y-67882697D01*
X86931995Y-67872561D01*
X87135291Y-67806507D01*
X87325742Y-67709468D01*
X87498679Y-67583821D01*
X87649821Y-67432679D01*
X87775468Y-67259742D01*
X87872507Y-67069291D01*
X87938561Y-66865996D01*
X87948698Y-66802000D01*
X87044703Y-66802000D01*
X87079925Y-66740993D01*
X87114000Y-66613826D01*
X87114000Y-66482174D01*
X87079925Y-66355007D01*
X87044703Y-66294000D01*
X87948698Y-66294000D01*
X87948698Y-66293999D01*
X87938561Y-66230003D01*
X87872507Y-66026708D01*
X87775468Y-65836257D01*
X87775465Y-65836252D01*
X87756544Y-65810209D01*
X87715216Y-65720561D01*
X87711341Y-65621921D01*
X87745509Y-65529307D01*
X87812517Y-65456818D01*
X87902165Y-65415490D01*
X87961226Y-65408500D01*
X92769362Y-65408500D01*
X92866181Y-65427758D01*
X92948260Y-65482602D01*
X93003104Y-65564681D01*
X93022362Y-65661500D01*
X93003104Y-65758319D01*
X92948260Y-65840398D01*
X92884221Y-65886925D01*
X92786202Y-65936867D01*
X92619569Y-66057932D01*
X92473932Y-66203569D01*
X92352867Y-66370202D01*
X92259368Y-66553705D01*
X92259365Y-66553712D01*
X92195720Y-66749591D01*
X92163500Y-66953017D01*
X92163500Y-67158982D01*
X92195720Y-67362408D01*
X92259365Y-67558287D01*
X92259368Y-67558294D01*
X92352867Y-67741797D01*
X92352870Y-67741801D01*
X92352871Y-67741803D01*
X92473932Y-67908430D01*
X92619570Y-68054068D01*
X92786197Y-68175129D01*
X92786199Y-68175130D01*
X92786202Y-68175132D01*
X92877953Y-68221881D01*
X92969710Y-68268634D01*
X93165592Y-68332280D01*
X93369019Y-68364500D01*
X93369021Y-68364500D01*
X93574979Y-68364500D01*
X93574981Y-68364500D01*
X93778408Y-68332280D01*
X93974290Y-68268634D01*
X94157803Y-68175129D01*
X94324430Y-68054068D01*
X94470068Y-67908430D01*
X94591129Y-67741803D01*
X94684634Y-67558290D01*
X94748280Y-67362408D01*
X94780500Y-67158981D01*
X94780500Y-66953019D01*
X94748280Y-66749592D01*
X94684634Y-66553710D01*
X94625704Y-66438054D01*
X94591132Y-66370202D01*
X94591130Y-66370199D01*
X94591129Y-66370197D01*
X94470068Y-66203570D01*
X94324430Y-66057932D01*
X94157803Y-65936871D01*
X94157801Y-65936870D01*
X94157797Y-65936867D01*
X94059779Y-65886925D01*
X93982255Y-65825810D01*
X93934021Y-65739681D01*
X93922418Y-65641650D01*
X93949213Y-65546641D01*
X94010328Y-65469117D01*
X94096457Y-65420883D01*
X94174638Y-65408500D01*
X100389362Y-65408500D01*
X100486181Y-65427758D01*
X100568260Y-65482602D01*
X100623104Y-65564681D01*
X100642362Y-65661500D01*
X100623104Y-65758319D01*
X100568260Y-65840398D01*
X100504221Y-65886925D01*
X100406202Y-65936867D01*
X100239569Y-66057932D01*
X100093932Y-66203569D01*
X99972867Y-66370202D01*
X99879368Y-66553705D01*
X99879365Y-66553712D01*
X99815720Y-66749591D01*
X99783500Y-66953017D01*
X99783500Y-67158982D01*
X99815720Y-67362408D01*
X99879365Y-67558287D01*
X99879368Y-67558294D01*
X99972867Y-67741797D01*
X99972870Y-67741801D01*
X99972871Y-67741803D01*
X100093932Y-67908430D01*
X100239570Y-68054068D01*
X100406197Y-68175129D01*
X100406199Y-68175130D01*
X100406202Y-68175132D01*
X100497953Y-68221881D01*
X100589710Y-68268634D01*
X100785592Y-68332280D01*
X100989019Y-68364500D01*
X100989021Y-68364500D01*
X101194979Y-68364500D01*
X101194981Y-68364500D01*
X101398408Y-68332280D01*
X101594290Y-68268634D01*
X101777803Y-68175129D01*
X101944430Y-68054068D01*
X102090068Y-67908430D01*
X102211129Y-67741803D01*
X102212059Y-67739976D01*
X102213074Y-67737987D01*
X102214842Y-67735743D01*
X102216329Y-67733318D01*
X102216615Y-67733493D01*
X102274187Y-67660463D01*
X102360315Y-67612227D01*
X102458346Y-67600623D01*
X102553356Y-67627417D01*
X102630880Y-67688530D01*
X102679116Y-67774658D01*
X102691500Y-67852843D01*
X102691500Y-98138500D01*
X102672242Y-98235319D01*
X102617398Y-98317398D01*
X102535319Y-98372242D01*
X102438500Y-98391500D01*
X101366970Y-98391500D01*
X101270151Y-98372242D01*
X101188072Y-98317398D01*
X101133228Y-98235319D01*
X101113970Y-98138500D01*
X101131994Y-98047883D01*
X101131562Y-98047743D01*
X101132748Y-98044090D01*
X101133228Y-98041681D01*
X101133230Y-98041677D01*
X101134626Y-98038305D01*
X101134634Y-98038290D01*
X101198280Y-97842408D01*
X101230500Y-97638981D01*
X101230500Y-97433019D01*
X101198280Y-97229592D01*
X101134634Y-97033710D01*
X101054852Y-96877129D01*
X101041132Y-96850202D01*
X101041130Y-96850199D01*
X101041129Y-96850197D01*
X100920068Y-96683570D01*
X100774430Y-96537932D01*
X100607803Y-96416871D01*
X100607801Y-96416870D01*
X100607797Y-96416867D01*
X100424294Y-96323368D01*
X100424293Y-96323367D01*
X100424290Y-96323366D01*
X100366226Y-96304500D01*
X100228408Y-96259720D01*
X100024982Y-96227500D01*
X100024981Y-96227500D01*
X99819019Y-96227500D01*
X99819017Y-96227500D01*
X99615591Y-96259720D01*
X99419712Y-96323365D01*
X99419705Y-96323368D01*
X99236202Y-96416867D01*
X99069569Y-96537932D01*
X98923932Y-96683570D01*
X98923931Y-96683570D01*
X98856681Y-96776133D01*
X98784192Y-96843141D01*
X98691578Y-96877308D01*
X98592938Y-96873433D01*
X98503290Y-96832104D01*
X98447319Y-96776133D01*
X98380068Y-96683570D01*
X98234430Y-96537932D01*
X98151132Y-96477413D01*
X98067803Y-96416871D01*
X98067801Y-96416870D01*
X98067797Y-96416867D01*
X97884294Y-96323368D01*
X97884293Y-96323367D01*
X97884290Y-96323366D01*
X97826226Y-96304500D01*
X97688408Y-96259720D01*
X97484982Y-96227500D01*
X97484981Y-96227500D01*
X97279019Y-96227500D01*
X97279017Y-96227500D01*
X97075591Y-96259720D01*
X96879712Y-96323365D01*
X96879705Y-96323368D01*
X96696202Y-96416867D01*
X96529569Y-96537932D01*
X96383932Y-96683569D01*
X96262867Y-96850202D01*
X96169368Y-97033705D01*
X96169365Y-97033712D01*
X96105720Y-97229591D01*
X96073500Y-97433017D01*
X96073500Y-97638982D01*
X96105720Y-97842408D01*
X96169364Y-98038284D01*
X96170770Y-98041677D01*
X96171248Y-98044081D01*
X96172438Y-98047743D01*
X96172004Y-98047883D01*
X96190030Y-98138495D01*
X96170773Y-98235315D01*
X96115931Y-98317395D01*
X96033853Y-98372240D01*
X95937035Y-98391500D01*
X88566429Y-98391500D01*
X88469610Y-98372242D01*
X88387531Y-98317398D01*
X88332687Y-98235319D01*
X88313429Y-98138500D01*
X88331493Y-98047680D01*
X88331100Y-98047553D01*
X88332180Y-98044227D01*
X88332687Y-98041681D01*
X88332692Y-98041670D01*
X88334173Y-98038094D01*
X88397793Y-97842289D01*
X88429999Y-97638943D01*
X88430000Y-97638940D01*
X88430000Y-97433060D01*
X88429999Y-97433056D01*
X88397793Y-97229710D01*
X88334172Y-97033904D01*
X88240704Y-96850462D01*
X88240701Y-96850457D01*
X88209583Y-96807625D01*
X87522000Y-97495208D01*
X87522000Y-97483339D01*
X87494741Y-97381606D01*
X87442080Y-97290394D01*
X87367606Y-97215920D01*
X87276394Y-97163259D01*
X87174661Y-97136000D01*
X87162788Y-97136000D01*
X87850372Y-96448415D01*
X87807541Y-96417297D01*
X87624095Y-96323827D01*
X87428289Y-96260206D01*
X87224943Y-96228000D01*
X87019056Y-96228000D01*
X86815710Y-96260206D01*
X86619901Y-96323828D01*
X86436462Y-96417295D01*
X86436456Y-96417299D01*
X86393625Y-96448415D01*
X87081210Y-97136000D01*
X87069339Y-97136000D01*
X86967606Y-97163259D01*
X86876394Y-97215920D01*
X86801920Y-97290394D01*
X86749259Y-97381606D01*
X86722000Y-97483339D01*
X86722000Y-97495210D01*
X86034415Y-96807625D01*
X85925741Y-96816179D01*
X85827710Y-96804577D01*
X85741581Y-96756342D01*
X85701207Y-96712666D01*
X85680068Y-96683570D01*
X85534430Y-96537932D01*
X85367803Y-96416871D01*
X85367801Y-96416870D01*
X85367797Y-96416867D01*
X85184294Y-96323368D01*
X85184293Y-96323367D01*
X85184290Y-96323366D01*
X85126226Y-96304500D01*
X84988408Y-96259720D01*
X84784982Y-96227500D01*
X84784981Y-96227500D01*
X84710050Y-96227500D01*
X84613231Y-96208242D01*
X84531152Y-96153398D01*
X84476308Y-96071319D01*
X84457050Y-95974500D01*
X84476308Y-95877681D01*
X84531152Y-95795602D01*
X89447152Y-90879602D01*
X89529231Y-90824758D01*
X89626050Y-90805500D01*
X96316206Y-90805500D01*
X96413025Y-90824758D01*
X96495104Y-90879602D01*
X96529570Y-90914068D01*
X96696197Y-91035129D01*
X96696199Y-91035130D01*
X96696202Y-91035132D01*
X96775366Y-91075468D01*
X96879710Y-91128634D01*
X97075592Y-91192280D01*
X97279019Y-91224500D01*
X97279021Y-91224500D01*
X97484979Y-91224500D01*
X97484981Y-91224500D01*
X97688408Y-91192280D01*
X97884290Y-91128634D01*
X98067803Y-91035129D01*
X98234430Y-90914068D01*
X98234434Y-90914063D01*
X98240476Y-90909674D01*
X98330124Y-90868345D01*
X98428764Y-90864470D01*
X98521378Y-90898637D01*
X98593867Y-90965645D01*
X98610818Y-90997214D01*
X98612442Y-90996328D01*
X98621111Y-91012205D01*
X98708737Y-91129259D01*
X98708740Y-91129262D01*
X98825791Y-91216886D01*
X98825792Y-91216886D01*
X98825796Y-91216889D01*
X98962799Y-91267989D01*
X98962802Y-91267989D01*
X98962804Y-91267990D01*
X98962802Y-91267990D01*
X99011065Y-91273178D01*
X99023362Y-91274500D01*
X99023365Y-91274500D01*
X100820635Y-91274500D01*
X100820638Y-91274500D01*
X100843479Y-91272044D01*
X100881196Y-91267990D01*
X100881197Y-91267989D01*
X100881201Y-91267989D01*
X101018204Y-91216889D01*
X101135261Y-91129261D01*
X101222889Y-91012204D01*
X101273989Y-90875201D01*
X101280500Y-90814638D01*
X101280500Y-89017362D01*
X101277474Y-88989216D01*
X101273990Y-88956803D01*
X101272347Y-88952398D01*
X101222889Y-88819796D01*
X101222886Y-88819792D01*
X101222886Y-88819791D01*
X101135262Y-88702740D01*
X101135259Y-88702737D01*
X101018208Y-88615113D01*
X101018205Y-88615112D01*
X101018204Y-88615111D01*
X100881201Y-88564011D01*
X100881200Y-88564010D01*
X100881195Y-88564009D01*
X100881197Y-88564009D01*
X100820654Y-88557501D01*
X100820640Y-88557500D01*
X100820638Y-88557500D01*
X99023362Y-88557500D01*
X99023359Y-88557500D01*
X99023345Y-88557501D01*
X98947063Y-88565702D01*
X98946804Y-88563299D01*
X98870539Y-88566022D01*
X98778048Y-88531522D01*
X98705799Y-88464254D01*
X98664793Y-88374459D01*
X98661271Y-88275806D01*
X98695771Y-88183315D01*
X98732113Y-88137384D01*
X98768068Y-88101430D01*
X98889129Y-87934803D01*
X98982634Y-87751290D01*
X99046280Y-87555408D01*
X99078500Y-87351981D01*
X99078500Y-87146019D01*
X99046280Y-86942592D01*
X98982634Y-86746710D01*
X98889129Y-86563197D01*
X98768068Y-86396570D01*
X98622430Y-86250932D01*
X98455803Y-86129871D01*
X98455801Y-86129870D01*
X98455797Y-86129867D01*
X98272294Y-86036368D01*
X98272293Y-86036367D01*
X98272290Y-86036366D01*
X98214226Y-86017500D01*
X98076408Y-85972720D01*
X97872982Y-85940500D01*
X97872981Y-85940500D01*
X97667019Y-85940500D01*
X97667017Y-85940500D01*
X97463591Y-85972720D01*
X97267712Y-86036365D01*
X97267705Y-86036368D01*
X97084202Y-86129867D01*
X96917569Y-86250932D01*
X96771932Y-86396570D01*
X96771931Y-86396571D01*
X96724681Y-86461605D01*
X96652192Y-86528613D01*
X96559578Y-86562780D01*
X96460938Y-86558904D01*
X96371290Y-86517576D01*
X96315319Y-86461605D01*
X96295139Y-86433830D01*
X96268068Y-86396570D01*
X96122430Y-86250932D01*
X95955803Y-86129871D01*
X95955801Y-86129870D01*
X95955797Y-86129867D01*
X95772294Y-86036368D01*
X95772293Y-86036367D01*
X95772290Y-86036366D01*
X95714226Y-86017500D01*
X95576408Y-85972720D01*
X95372982Y-85940500D01*
X95372981Y-85940500D01*
X95167019Y-85940500D01*
X95167017Y-85940500D01*
X94963591Y-85972720D01*
X94767712Y-86036365D01*
X94767705Y-86036368D01*
X94584202Y-86129867D01*
X94417569Y-86250932D01*
X94271932Y-86396569D01*
X94150867Y-86563202D01*
X94057368Y-86746705D01*
X94057365Y-86746712D01*
X93993720Y-86942591D01*
X93961500Y-87146017D01*
X93961500Y-87351982D01*
X93993720Y-87555408D01*
X94057365Y-87751287D01*
X94057368Y-87751294D01*
X94150867Y-87934797D01*
X94150870Y-87934801D01*
X94150871Y-87934803D01*
X94271932Y-88101430D01*
X94417570Y-88247068D01*
X94584197Y-88368129D01*
X94584199Y-88368130D01*
X94584202Y-88368132D01*
X94614572Y-88383606D01*
X94767710Y-88461634D01*
X94918846Y-88510741D01*
X94963592Y-88525280D01*
X94972797Y-88527490D01*
X95062445Y-88568817D01*
X95129454Y-88641305D01*
X95163623Y-88733919D01*
X95159748Y-88832559D01*
X95118421Y-88922207D01*
X95045933Y-88989216D01*
X94953319Y-89023385D01*
X94913738Y-89026500D01*
X91669262Y-89026500D01*
X91572443Y-89007242D01*
X91490364Y-88952398D01*
X91435520Y-88870319D01*
X91416262Y-88773500D01*
X91435520Y-88676681D01*
X91490364Y-88594602D01*
X91572443Y-88539758D01*
X91610203Y-88527490D01*
X91619405Y-88525280D01*
X91619408Y-88525280D01*
X91815290Y-88461634D01*
X91998803Y-88368129D01*
X92165430Y-88247068D01*
X92311068Y-88101430D01*
X92432129Y-87934803D01*
X92525634Y-87751290D01*
X92589280Y-87555408D01*
X92621500Y-87351981D01*
X92621500Y-87146019D01*
X92589280Y-86942592D01*
X92525634Y-86746710D01*
X92432129Y-86563197D01*
X92311068Y-86396570D01*
X92165430Y-86250932D01*
X91998803Y-86129871D01*
X91998801Y-86129870D01*
X91998797Y-86129867D01*
X91815294Y-86036368D01*
X91815293Y-86036367D01*
X91815290Y-86036366D01*
X91815287Y-86036365D01*
X91619412Y-85972721D01*
X91612288Y-85971011D01*
X91522639Y-85929685D01*
X91455629Y-85857197D01*
X91421460Y-85764584D01*
X91425333Y-85665944D01*
X91466659Y-85576295D01*
X91539147Y-85509285D01*
X91612288Y-85478989D01*
X91619395Y-85477282D01*
X91619408Y-85477280D01*
X91815290Y-85413634D01*
X91998803Y-85320129D01*
X92165430Y-85199068D01*
X92311068Y-85053430D01*
X92432129Y-84886803D01*
X92525634Y-84703290D01*
X92589280Y-84507408D01*
X92621500Y-84303981D01*
X92621500Y-84098019D01*
X92589280Y-83894592D01*
X92525634Y-83698710D01*
X92478881Y-83606953D01*
X92432132Y-83515202D01*
X92432130Y-83515199D01*
X92432129Y-83515197D01*
X92311068Y-83348570D01*
X92165430Y-83202932D01*
X91998803Y-83081871D01*
X91998801Y-83081870D01*
X91998797Y-83081867D01*
X91815294Y-82988368D01*
X91815293Y-82988367D01*
X91815290Y-82988366D01*
X91815287Y-82988365D01*
X91619412Y-82924721D01*
X91612288Y-82923011D01*
X91522639Y-82881685D01*
X91455629Y-82809197D01*
X91421460Y-82716584D01*
X91425333Y-82617944D01*
X91466659Y-82528295D01*
X91539147Y-82461285D01*
X91612288Y-82430989D01*
X91619395Y-82429282D01*
X91619408Y-82429280D01*
X91815290Y-82365634D01*
X91998803Y-82272129D01*
X92165430Y-82151068D01*
X92311068Y-82005430D01*
X92432129Y-81838803D01*
X92525634Y-81655290D01*
X92589280Y-81459408D01*
X92621500Y-81255981D01*
X92621500Y-81050019D01*
X92589280Y-80846592D01*
X92525634Y-80650710D01*
X92432129Y-80467197D01*
X92311068Y-80300570D01*
X92165430Y-80154932D01*
X91998803Y-80033871D01*
X91998801Y-80033870D01*
X91998797Y-80033867D01*
X91815294Y-79940368D01*
X91815293Y-79940367D01*
X91815290Y-79940366D01*
X91619408Y-79876720D01*
X91542078Y-79864472D01*
X91415982Y-79844500D01*
X91415981Y-79844500D01*
X91210019Y-79844500D01*
X91210017Y-79844500D01*
X91006591Y-79876720D01*
X90810712Y-79940365D01*
X90810705Y-79940368D01*
X90627202Y-80033867D01*
X90460569Y-80154932D01*
X90314932Y-80300569D01*
X90193867Y-80467202D01*
X90100368Y-80650705D01*
X90100365Y-80650712D01*
X90036720Y-80846591D01*
X90004500Y-81050017D01*
X90004500Y-81255982D01*
X90036720Y-81459408D01*
X90100365Y-81655287D01*
X90100368Y-81655294D01*
X90193867Y-81838797D01*
X90193870Y-81838801D01*
X90193871Y-81838803D01*
X90314932Y-82005430D01*
X90460570Y-82151068D01*
X90627197Y-82272129D01*
X90627199Y-82272130D01*
X90627202Y-82272132D01*
X90718953Y-82318881D01*
X90810710Y-82365634D01*
X90964853Y-82415718D01*
X91006592Y-82429280D01*
X91013714Y-82430990D01*
X91103363Y-82472317D01*
X91170372Y-82544806D01*
X91204540Y-82637420D01*
X91200665Y-82736059D01*
X91159338Y-82825708D01*
X91086849Y-82892717D01*
X91013714Y-82923010D01*
X91006592Y-82924719D01*
X90810712Y-82988365D01*
X90810705Y-82988368D01*
X90627202Y-83081867D01*
X90460569Y-83202932D01*
X90314932Y-83348569D01*
X90193867Y-83515202D01*
X90100368Y-83698705D01*
X90100365Y-83698712D01*
X90036720Y-83894591D01*
X90004500Y-84098017D01*
X90004500Y-84303982D01*
X90036720Y-84507408D01*
X90100365Y-84703287D01*
X90100368Y-84703294D01*
X90193867Y-84886797D01*
X90193870Y-84886801D01*
X90193871Y-84886803D01*
X90314932Y-85053430D01*
X90460570Y-85199068D01*
X90627197Y-85320129D01*
X90627199Y-85320130D01*
X90627202Y-85320132D01*
X90657572Y-85335606D01*
X90810710Y-85413634D01*
X90961846Y-85462741D01*
X91006592Y-85477280D01*
X91013714Y-85478990D01*
X91103363Y-85520317D01*
X91170372Y-85592806D01*
X91204540Y-85685420D01*
X91200665Y-85784059D01*
X91159338Y-85873708D01*
X91086849Y-85940717D01*
X91013714Y-85971010D01*
X91006592Y-85972719D01*
X90810712Y-86036365D01*
X90810705Y-86036368D01*
X90627202Y-86129867D01*
X90460569Y-86250932D01*
X90314932Y-86396569D01*
X90193867Y-86563202D01*
X90100368Y-86746705D01*
X90100365Y-86746712D01*
X90036720Y-86942591D01*
X90004500Y-87146017D01*
X90004500Y-87351982D01*
X90036720Y-87555408D01*
X90100365Y-87751287D01*
X90100368Y-87751294D01*
X90193867Y-87934797D01*
X90193870Y-87934801D01*
X90193871Y-87934803D01*
X90314932Y-88101430D01*
X90460570Y-88247068D01*
X90627197Y-88368129D01*
X90627199Y-88368130D01*
X90627202Y-88368132D01*
X90657572Y-88383606D01*
X90810710Y-88461634D01*
X90961846Y-88510741D01*
X91006592Y-88525280D01*
X91015797Y-88527490D01*
X91105445Y-88568817D01*
X91172454Y-88641305D01*
X91206623Y-88733919D01*
X91202748Y-88832559D01*
X91161421Y-88922207D01*
X91088933Y-88989216D01*
X90996319Y-89023385D01*
X90956738Y-89026500D01*
X89240419Y-89026500D01*
X89065202Y-89026500D01*
X89040152Y-89031482D01*
X88964655Y-89046499D01*
X88964656Y-89046500D01*
X88893350Y-89060683D01*
X88893347Y-89060684D01*
X88731476Y-89127733D01*
X88731474Y-89127734D01*
X88658827Y-89176277D01*
X88649583Y-89182454D01*
X88585787Y-89225081D01*
X88577997Y-89232870D01*
X88560087Y-89245463D01*
X88534529Y-89256766D01*
X88511288Y-89272281D01*
X88489820Y-89276541D01*
X88469807Y-89285393D01*
X88441872Y-89286056D01*
X88414460Y-89291496D01*
X88392996Y-89287216D01*
X88371120Y-89287736D01*
X88345058Y-89277658D01*
X88317650Y-89272194D01*
X88299457Y-89260026D01*
X88279047Y-89252134D01*
X88258823Y-89232848D01*
X88235596Y-89217313D01*
X88209897Y-89187210D01*
X88120068Y-89063570D01*
X87974430Y-88917932D01*
X87807803Y-88796871D01*
X87807801Y-88796870D01*
X87807797Y-88796867D01*
X87624294Y-88703368D01*
X87624293Y-88703367D01*
X87624290Y-88703366D01*
X87580845Y-88689250D01*
X87428408Y-88639720D01*
X87224982Y-88607500D01*
X87224981Y-88607500D01*
X87019019Y-88607500D01*
X87019017Y-88607500D01*
X86815591Y-88639720D01*
X86619712Y-88703365D01*
X86619705Y-88703368D01*
X86436202Y-88796867D01*
X86269569Y-88917932D01*
X86123932Y-89063569D01*
X86106682Y-89087313D01*
X86034193Y-89154322D01*
X85941579Y-89188489D01*
X85842939Y-89184614D01*
X85753291Y-89143286D01*
X85697318Y-89087313D01*
X85680067Y-89063569D01*
X85534430Y-88917932D01*
X85429772Y-88841894D01*
X85367803Y-88796871D01*
X85367801Y-88796870D01*
X85367797Y-88796867D01*
X85184294Y-88703368D01*
X85184293Y-88703367D01*
X85184290Y-88703366D01*
X85140845Y-88689250D01*
X84988408Y-88639720D01*
X84911286Y-88627505D01*
X84784981Y-88607500D01*
X84784980Y-88607500D01*
X84784974Y-88607499D01*
X84775869Y-88606782D01*
X84680861Y-88579983D01*
X84603340Y-88518865D01*
X84555109Y-88432734D01*
X84543511Y-88334702D01*
X84570310Y-88239694D01*
X84616830Y-88175667D01*
X84691068Y-88101430D01*
X84812129Y-87934803D01*
X84905634Y-87751290D01*
X84969280Y-87555408D01*
X85001500Y-87351981D01*
X85001500Y-87146019D01*
X84969280Y-86942592D01*
X84905634Y-86746710D01*
X84812129Y-86563197D01*
X84691068Y-86396570D01*
X84545430Y-86250932D01*
X84378803Y-86129871D01*
X84378801Y-86129870D01*
X84378797Y-86129867D01*
X84195294Y-86036368D01*
X84195293Y-86036367D01*
X84195290Y-86036366D01*
X84195287Y-86036365D01*
X83999412Y-85972721D01*
X83992288Y-85971011D01*
X83902639Y-85929685D01*
X83835629Y-85857197D01*
X83801460Y-85764584D01*
X83805333Y-85665944D01*
X83846659Y-85576295D01*
X83919147Y-85509285D01*
X83992288Y-85478989D01*
X83999395Y-85477282D01*
X83999408Y-85477280D01*
X84195290Y-85413634D01*
X84378803Y-85320129D01*
X84545430Y-85199068D01*
X84691068Y-85053430D01*
X84812129Y-84886803D01*
X84905634Y-84703290D01*
X84969280Y-84507408D01*
X85001500Y-84303981D01*
X85001500Y-84098019D01*
X84969280Y-83894592D01*
X84905634Y-83698710D01*
X84858881Y-83606953D01*
X84812132Y-83515202D01*
X84812130Y-83515199D01*
X84812129Y-83515197D01*
X84691068Y-83348570D01*
X84545430Y-83202932D01*
X84378803Y-83081871D01*
X84378801Y-83081870D01*
X84378797Y-83081867D01*
X84195294Y-82988368D01*
X84195293Y-82988367D01*
X84195290Y-82988366D01*
X84195287Y-82988365D01*
X83999412Y-82924721D01*
X83992288Y-82923011D01*
X83902639Y-82881685D01*
X83835629Y-82809197D01*
X83801460Y-82716584D01*
X83805333Y-82617944D01*
X83846659Y-82528295D01*
X83919147Y-82461285D01*
X83992288Y-82430989D01*
X83999395Y-82429282D01*
X83999408Y-82429280D01*
X84195290Y-82365634D01*
X84378803Y-82272129D01*
X84545430Y-82151068D01*
X84691068Y-82005430D01*
X84812129Y-81838803D01*
X84905634Y-81655290D01*
X84969280Y-81459408D01*
X85001500Y-81255981D01*
X85001500Y-81050019D01*
X84969280Y-80846592D01*
X84905634Y-80650710D01*
X84812129Y-80467197D01*
X84691068Y-80300570D01*
X84545430Y-80154932D01*
X84378803Y-80033871D01*
X84378801Y-80033870D01*
X84378797Y-80033867D01*
X84195294Y-79940368D01*
X84195293Y-79940367D01*
X84195290Y-79940366D01*
X83999408Y-79876720D01*
X83922078Y-79864472D01*
X83795982Y-79844500D01*
X83795981Y-79844500D01*
X83590019Y-79844500D01*
X83590017Y-79844500D01*
X83386591Y-79876720D01*
X83190712Y-79940365D01*
X83190705Y-79940368D01*
X83007202Y-80033867D01*
X82840569Y-80154932D01*
X82694932Y-80300569D01*
X82573867Y-80467202D01*
X82480368Y-80650705D01*
X82480365Y-80650712D01*
X82416720Y-80846591D01*
X82384500Y-81050017D01*
X82384500Y-81255982D01*
X82416720Y-81459408D01*
X82480365Y-81655287D01*
X82480368Y-81655294D01*
X82573867Y-81838797D01*
X82573870Y-81838801D01*
X82573871Y-81838803D01*
X82694932Y-82005430D01*
X82840570Y-82151068D01*
X83007197Y-82272129D01*
X83007199Y-82272130D01*
X83007202Y-82272132D01*
X83098953Y-82318881D01*
X83190710Y-82365634D01*
X83344853Y-82415718D01*
X83386592Y-82429280D01*
X83393714Y-82430990D01*
X83483363Y-82472317D01*
X83550372Y-82544806D01*
X83584540Y-82637420D01*
X83580665Y-82736059D01*
X83539338Y-82825708D01*
X83466849Y-82892717D01*
X83393714Y-82923010D01*
X83386592Y-82924719D01*
X83190712Y-82988365D01*
X83190705Y-82988368D01*
X83007202Y-83081867D01*
X82840569Y-83202932D01*
X82694932Y-83348569D01*
X82573867Y-83515202D01*
X82480368Y-83698705D01*
X82480365Y-83698712D01*
X82416720Y-83894589D01*
X82398353Y-84010553D01*
X82364185Y-84103167D01*
X82297176Y-84175655D01*
X82207528Y-84216983D01*
X82108888Y-84220858D01*
X82016274Y-84186690D01*
X81943786Y-84119681D01*
X81923043Y-84085831D01*
X81891134Y-84023206D01*
X81891132Y-84023202D01*
X81891130Y-84023199D01*
X81891129Y-84023197D01*
X81770068Y-83856570D01*
X81624430Y-83710932D01*
X81457803Y-83589871D01*
X81457801Y-83589870D01*
X81457797Y-83589867D01*
X81274294Y-83496368D01*
X81274293Y-83496367D01*
X81274290Y-83496366D01*
X81078408Y-83432720D01*
X80874982Y-83400500D01*
X80874981Y-83400500D01*
X80669019Y-83400500D01*
X80669017Y-83400500D01*
X80465591Y-83432720D01*
X80269712Y-83496365D01*
X80269705Y-83496368D01*
X80086202Y-83589867D01*
X79919569Y-83710932D01*
X79773932Y-83856569D01*
X79652867Y-84023202D01*
X79559368Y-84206705D01*
X79559366Y-84206709D01*
X79502694Y-84381126D01*
X79454458Y-84467255D01*
X79376935Y-84528369D01*
X79281925Y-84555163D01*
X79183894Y-84543560D01*
X79097765Y-84495324D01*
X79083179Y-84481841D01*
X77409065Y-82807727D01*
X77284178Y-82724281D01*
X77145415Y-82666803D01*
X77096308Y-82657035D01*
X76998100Y-82637500D01*
X76998096Y-82637500D01*
X76745500Y-82637500D01*
X76648681Y-82618242D01*
X76566602Y-82563398D01*
X76511758Y-82481319D01*
X76492500Y-82384500D01*
X76492500Y-81193365D01*
X76492498Y-81193345D01*
X76485990Y-81132803D01*
X76476211Y-81106584D01*
X76434889Y-80995796D01*
X76434886Y-80995792D01*
X76434886Y-80995791D01*
X76347262Y-80878740D01*
X76347259Y-80878737D01*
X76230208Y-80791113D01*
X76230205Y-80791112D01*
X76230204Y-80791111D01*
X76093201Y-80740011D01*
X76093200Y-80740010D01*
X76093195Y-80740009D01*
X76093197Y-80740009D01*
X76032654Y-80733501D01*
X76032640Y-80733500D01*
X76032638Y-80733500D01*
X74335362Y-80733500D01*
X74335359Y-80733500D01*
X74335345Y-80733501D01*
X74274803Y-80740009D01*
X74137791Y-80791113D01*
X74020740Y-80878737D01*
X74020737Y-80878740D01*
X73933113Y-80995791D01*
X73882009Y-81132804D01*
X73878370Y-81148205D01*
X73875105Y-81147433D01*
X73853707Y-81215729D01*
X73790390Y-81291464D01*
X73702911Y-81337203D01*
X73604586Y-81345985D01*
X73510386Y-81316470D01*
X73434651Y-81253153D01*
X73426994Y-81243147D01*
X73388071Y-81189573D01*
X73242430Y-81043932D01*
X73176169Y-80995791D01*
X73075803Y-80922871D01*
X73075801Y-80922870D01*
X73075797Y-80922867D01*
X72892294Y-80829368D01*
X72892293Y-80829367D01*
X72892290Y-80829366D01*
X72696408Y-80765720D01*
X72492982Y-80733500D01*
X72492981Y-80733500D01*
X72287019Y-80733500D01*
X72287017Y-80733500D01*
X72083591Y-80765720D01*
X71887712Y-80829365D01*
X71887705Y-80829368D01*
X71704202Y-80922867D01*
X71537569Y-81043932D01*
X71391932Y-81189569D01*
X71270867Y-81356202D01*
X71177368Y-81539705D01*
X71177365Y-81539712D01*
X71113719Y-81735592D01*
X71112010Y-81742714D01*
X71070683Y-81832363D01*
X70998194Y-81899372D01*
X70905580Y-81933540D01*
X70806941Y-81929665D01*
X70717292Y-81888338D01*
X70650283Y-81815849D01*
X70619990Y-81742714D01*
X70618280Y-81735592D01*
X70617522Y-81733259D01*
X70554634Y-81539710D01*
X70492953Y-81418654D01*
X70461132Y-81356202D01*
X70461130Y-81356199D01*
X70461129Y-81356197D01*
X70340068Y-81189570D01*
X70194430Y-81043932D01*
X70027803Y-80922871D01*
X70027801Y-80922870D01*
X70027797Y-80922867D01*
X69844294Y-80829368D01*
X69844293Y-80829367D01*
X69844290Y-80829366D01*
X69648408Y-80765720D01*
X69444982Y-80733500D01*
X69444981Y-80733500D01*
X69239019Y-80733500D01*
X69239017Y-80733500D01*
X69035591Y-80765720D01*
X68839712Y-80829365D01*
X68839705Y-80829368D01*
X68656202Y-80922867D01*
X68489569Y-81043932D01*
X68343932Y-81189569D01*
X68324926Y-81215729D01*
X68297737Y-81253153D01*
X68296182Y-81255293D01*
X68223693Y-81322301D01*
X68131079Y-81356469D01*
X68032439Y-81352594D01*
X67942791Y-81311266D01*
X67875783Y-81238777D01*
X67841615Y-81146163D01*
X67838500Y-81106584D01*
X67838500Y-80841365D01*
X67838498Y-80841345D01*
X67831990Y-80780803D01*
X67831989Y-80780799D01*
X67780889Y-80643796D01*
X67780886Y-80643792D01*
X67780886Y-80643791D01*
X67734449Y-80581759D01*
X67691844Y-80492711D01*
X67686560Y-80394137D01*
X67711560Y-80315281D01*
X67738972Y-80261483D01*
X67805049Y-80058116D01*
X67838500Y-79846916D01*
X67838500Y-79633084D01*
X67836644Y-79621365D01*
X94681500Y-79621365D01*
X94681500Y-81418634D01*
X94681501Y-81418654D01*
X94688009Y-81479196D01*
X94688011Y-81479201D01*
X94739111Y-81616204D01*
X94739112Y-81616205D01*
X94739113Y-81616208D01*
X94826737Y-81733259D01*
X94826740Y-81733262D01*
X94943791Y-81820886D01*
X94943792Y-81820886D01*
X94943796Y-81820889D01*
X95080799Y-81871989D01*
X95080802Y-81871989D01*
X95080804Y-81871990D01*
X95080802Y-81871990D01*
X95129065Y-81877178D01*
X95141362Y-81878500D01*
X95141365Y-81878500D01*
X97238635Y-81878500D01*
X97238638Y-81878500D01*
X97261479Y-81876044D01*
X97299196Y-81871990D01*
X97299197Y-81871989D01*
X97299201Y-81871989D01*
X97436204Y-81820889D01*
X97553261Y-81733261D01*
X97640889Y-81616204D01*
X97691989Y-81479201D01*
X97698500Y-81418638D01*
X97698500Y-79621362D01*
X97695979Y-79597909D01*
X97691990Y-79560803D01*
X97675216Y-79515830D01*
X97640889Y-79423796D01*
X97640886Y-79423792D01*
X97640886Y-79423791D01*
X97553262Y-79306740D01*
X97553259Y-79306737D01*
X97436208Y-79219113D01*
X97436205Y-79219112D01*
X97436204Y-79219111D01*
X97299201Y-79168011D01*
X97299200Y-79168010D01*
X97299195Y-79168009D01*
X97299197Y-79168009D01*
X97238654Y-79161501D01*
X97238640Y-79161500D01*
X97238638Y-79161500D01*
X95141362Y-79161500D01*
X95141359Y-79161500D01*
X95141345Y-79161501D01*
X95080803Y-79168009D01*
X94943791Y-79219113D01*
X94826740Y-79306737D01*
X94826737Y-79306740D01*
X94739113Y-79423791D01*
X94688009Y-79560803D01*
X94681501Y-79621345D01*
X94681500Y-79621365D01*
X67836644Y-79621365D01*
X67805049Y-79421884D01*
X67738972Y-79218517D01*
X67738970Y-79218514D01*
X67738970Y-79218512D01*
X67738967Y-79218506D01*
X67641899Y-79028000D01*
X67641892Y-79027988D01*
X67591058Y-78958021D01*
X67540698Y-78888707D01*
X67499372Y-78799062D01*
X67495496Y-78700423D01*
X67529663Y-78607808D01*
X67540693Y-78591300D01*
X67641894Y-78452009D01*
X67738972Y-78261483D01*
X67805049Y-78058116D01*
X67838500Y-77846916D01*
X67838500Y-77633084D01*
X67805049Y-77421884D01*
X67738972Y-77218517D01*
X67738970Y-77218514D01*
X67738970Y-77218512D01*
X67738967Y-77218506D01*
X67641899Y-77028000D01*
X67641891Y-77027986D01*
X67621593Y-77000049D01*
X67621592Y-77000048D01*
X67540390Y-76888283D01*
X67527939Y-76861276D01*
X94681500Y-76861276D01*
X94681500Y-77098723D01*
X94718644Y-77333242D01*
X94792015Y-77559056D01*
X94792017Y-77559059D01*
X94792018Y-77559063D01*
X94844882Y-77662815D01*
X94899816Y-77770629D01*
X95039378Y-77962720D01*
X95207279Y-78130621D01*
X95387401Y-78261487D01*
X95399373Y-78270185D01*
X95610937Y-78377982D01*
X95836759Y-78451356D01*
X96071278Y-78488500D01*
X96071280Y-78488500D01*
X96308720Y-78488500D01*
X96308722Y-78488500D01*
X96543241Y-78451356D01*
X96769063Y-78377982D01*
X96980627Y-78270185D01*
X97172722Y-78130620D01*
X97340620Y-77962722D01*
X97480185Y-77770627D01*
X97587982Y-77559063D01*
X97661356Y-77333241D01*
X97698500Y-77098722D01*
X97698500Y-76861278D01*
X97661356Y-76626759D01*
X97587982Y-76400937D01*
X97480185Y-76189373D01*
X97480183Y-76189370D01*
X97340621Y-75997279D01*
X97172720Y-75829378D01*
X96980629Y-75689816D01*
X96871421Y-75634172D01*
X96769063Y-75582018D01*
X96769059Y-75582017D01*
X96769056Y-75582015D01*
X96543242Y-75508644D01*
X96308723Y-75471500D01*
X96308722Y-75471500D01*
X96071278Y-75471500D01*
X96071276Y-75471500D01*
X95836757Y-75508644D01*
X95610943Y-75582015D01*
X95399370Y-75689816D01*
X95207279Y-75829378D01*
X95039378Y-75997279D01*
X94899816Y-76189370D01*
X94851461Y-76284273D01*
X94792525Y-76399943D01*
X94792015Y-76400943D01*
X94718644Y-76626757D01*
X94681500Y-76861276D01*
X67527939Y-76861276D01*
X67499061Y-76798635D01*
X67495186Y-76699995D01*
X67529353Y-76607381D01*
X67540391Y-76590861D01*
X67641467Y-76451744D01*
X67641468Y-76451742D01*
X67738507Y-76261291D01*
X67804561Y-76057996D01*
X67814698Y-75994000D01*
X66760703Y-75994000D01*
X66795925Y-75932993D01*
X66830000Y-75805826D01*
X66830000Y-75674174D01*
X66795925Y-75547007D01*
X66760703Y-75486000D01*
X67814698Y-75486000D01*
X67814698Y-75485999D01*
X67811597Y-75466421D01*
X67771127Y-75318174D01*
X67768081Y-75274831D01*
X67762976Y-75231695D01*
X67764636Y-75225805D01*
X67764208Y-75219701D01*
X67777977Y-75178502D01*
X67789771Y-75136686D01*
X67793560Y-75131879D01*
X67794490Y-75129096D01*
X67737045Y-75112895D01*
X67659523Y-75051780D01*
X67647226Y-75036181D01*
X67515824Y-74855323D01*
X67364679Y-74704178D01*
X67191742Y-74578531D01*
X67001291Y-74481492D01*
X66797996Y-74415438D01*
X66586878Y-74382000D01*
X66584000Y-74382000D01*
X66584000Y-75309297D01*
X66522993Y-75274075D01*
X66395826Y-75240000D01*
X66264174Y-75240000D01*
X66137007Y-75274075D01*
X66076000Y-75309297D01*
X66076000Y-74382000D01*
X66073121Y-74382000D01*
X65862003Y-74415438D01*
X65658708Y-74481492D01*
X65468257Y-74578531D01*
X65295320Y-74704178D01*
X65144178Y-74855320D01*
X65018531Y-75028257D01*
X64921492Y-75218708D01*
X64855438Y-75422003D01*
X64845301Y-75485999D01*
X64845302Y-75486000D01*
X65899297Y-75486000D01*
X65864075Y-75547007D01*
X65830000Y-75674174D01*
X65830000Y-75805826D01*
X65864075Y-75932993D01*
X65899297Y-75994000D01*
X64845302Y-75994000D01*
X64855438Y-76057996D01*
X64921492Y-76261291D01*
X65018531Y-76451742D01*
X65018536Y-76451751D01*
X65119608Y-76590862D01*
X65122945Y-76598102D01*
X65128456Y-76603871D01*
X65143509Y-76642707D01*
X65160937Y-76680510D01*
X65161250Y-76688476D01*
X65164133Y-76695914D01*
X65163178Y-76737548D01*
X65164813Y-76779149D01*
X65162052Y-76786631D01*
X65161870Y-76794604D01*
X65146734Y-76828154D01*
X65130647Y-76871764D01*
X65122014Y-76884916D01*
X65120823Y-76886612D01*
X65018106Y-77027991D01*
X65008857Y-77046141D01*
X64998614Y-77060737D01*
X64975566Y-77082751D01*
X64955837Y-77107778D01*
X64940195Y-77116537D01*
X64927230Y-77128922D01*
X64897512Y-77140440D01*
X64869708Y-77156012D01*
X64851904Y-77158119D01*
X64835187Y-77164599D01*
X64803324Y-77163868D01*
X64771676Y-77167614D01*
X64754419Y-77162746D01*
X64736497Y-77162336D01*
X64707341Y-77149469D01*
X64676667Y-77140818D01*
X64659537Y-77128372D01*
X64646185Y-77122480D01*
X64634296Y-77110033D01*
X64612630Y-77094292D01*
X62618065Y-75099727D01*
X62493178Y-75016281D01*
X62354415Y-74958803D01*
X62305308Y-74949035D01*
X62207100Y-74929500D01*
X62207096Y-74929500D01*
X61053032Y-74929500D01*
X60956213Y-74910242D01*
X60874134Y-74855398D01*
X60819290Y-74773319D01*
X60800032Y-74676500D01*
X60803147Y-74636922D01*
X60804324Y-74629491D01*
X60821500Y-74521046D01*
X60821500Y-74322954D01*
X60820883Y-74319056D01*
X68034000Y-74319056D01*
X68034000Y-74524943D01*
X68066207Y-74728291D01*
X68092525Y-74809292D01*
X68104127Y-74907324D01*
X68077331Y-75002333D01*
X68072122Y-75008940D01*
X68088238Y-75014326D01*
X68130055Y-75026120D01*
X68134861Y-75029909D01*
X68140665Y-75031849D01*
X68173460Y-75060338D01*
X68207578Y-75087234D01*
X68214435Y-75095932D01*
X68215189Y-75096587D01*
X68215598Y-75097407D01*
X68219878Y-75102836D01*
X68254415Y-75150372D01*
X68254416Y-75150372D01*
X68942000Y-74462788D01*
X68942000Y-74474661D01*
X68969259Y-74576394D01*
X69021920Y-74667606D01*
X69096394Y-74742080D01*
X69187606Y-74794741D01*
X69289339Y-74822000D01*
X69301210Y-74822000D01*
X68613625Y-75509583D01*
X68656457Y-75540701D01*
X68656462Y-75540704D01*
X68839904Y-75634172D01*
X69035710Y-75697793D01*
X69239056Y-75729999D01*
X69239060Y-75730000D01*
X69444940Y-75730000D01*
X69444943Y-75729999D01*
X69648289Y-75697793D01*
X69844098Y-75634172D01*
X70027541Y-75540702D01*
X70027541Y-75540701D01*
X70070373Y-75509583D01*
X69382790Y-74822000D01*
X69394661Y-74822000D01*
X69496394Y-74794741D01*
X69587606Y-74742080D01*
X69662080Y-74667606D01*
X69714741Y-74576394D01*
X69742000Y-74474661D01*
X69742000Y-74462790D01*
X70429583Y-75150373D01*
X70460701Y-75107541D01*
X70460702Y-75107541D01*
X70554172Y-74924098D01*
X70617794Y-74728284D01*
X70619990Y-74719140D01*
X70661317Y-74629491D01*
X70733805Y-74562482D01*
X70826419Y-74528313D01*
X70925058Y-74532188D01*
X71014707Y-74573515D01*
X71081716Y-74646003D01*
X71112010Y-74719140D01*
X71114205Y-74728284D01*
X71177827Y-74924095D01*
X71271295Y-75107537D01*
X71271298Y-75107542D01*
X71392311Y-75274103D01*
X71537896Y-75419688D01*
X71704457Y-75540701D01*
X71704462Y-75540704D01*
X71887908Y-75634174D01*
X72083697Y-75697790D01*
X72083709Y-75697793D01*
X72135999Y-75706073D01*
X72136000Y-75706073D01*
X72136000Y-74733686D01*
X72144394Y-74742080D01*
X72235606Y-74794741D01*
X72337339Y-74822000D01*
X72442661Y-74822000D01*
X72544394Y-74794741D01*
X72635606Y-74742080D01*
X72644000Y-74733686D01*
X72644000Y-75706073D01*
X72696290Y-75697793D01*
X72696302Y-75697790D01*
X72892091Y-75634174D01*
X72892092Y-75634174D01*
X73075537Y-75540704D01*
X73075542Y-75540701D01*
X73242103Y-75419688D01*
X73387688Y-75274103D01*
X73508701Y-75107542D01*
X73508704Y-75107537D01*
X73561575Y-75003773D01*
X73622689Y-74926250D01*
X73708818Y-74878015D01*
X73806850Y-74866412D01*
X73901859Y-74893207D01*
X73979382Y-74954321D01*
X74012425Y-75003773D01*
X74065295Y-75107537D01*
X74065298Y-75107542D01*
X74186311Y-75274103D01*
X74331896Y-75419688D01*
X74498457Y-75540701D01*
X74498462Y-75540704D01*
X74681908Y-75634174D01*
X74877697Y-75697790D01*
X74877709Y-75697793D01*
X74929999Y-75706073D01*
X74930000Y-75706073D01*
X74930000Y-74733686D01*
X74938394Y-74742080D01*
X75029606Y-74794741D01*
X75131339Y-74822000D01*
X75236661Y-74822000D01*
X75338394Y-74794741D01*
X75429606Y-74742080D01*
X75438000Y-74733686D01*
X75438000Y-75706073D01*
X75490290Y-75697793D01*
X75490302Y-75697790D01*
X75686091Y-75634174D01*
X75686092Y-75634174D01*
X75869537Y-75540704D01*
X75869542Y-75540701D01*
X76036103Y-75419688D01*
X76181688Y-75274103D01*
X76302701Y-75107542D01*
X76302704Y-75107537D01*
X76396172Y-74924095D01*
X76459793Y-74728289D01*
X76468075Y-74676000D01*
X75495686Y-74676000D01*
X75504080Y-74667606D01*
X75556741Y-74576394D01*
X75584000Y-74474661D01*
X75584000Y-74369339D01*
X75556741Y-74267606D01*
X75504080Y-74176394D01*
X75495686Y-74168000D01*
X76468075Y-74168000D01*
X76459793Y-74115710D01*
X76396172Y-73919904D01*
X76302704Y-73736462D01*
X76302701Y-73736457D01*
X76181688Y-73569896D01*
X76036103Y-73424311D01*
X75869542Y-73303298D01*
X75869537Y-73303295D01*
X75686095Y-73209827D01*
X75490289Y-73146206D01*
X75438000Y-73137924D01*
X75438000Y-74110314D01*
X75429606Y-74101920D01*
X75338394Y-74049259D01*
X75236661Y-74022000D01*
X75131339Y-74022000D01*
X75029606Y-74049259D01*
X74938394Y-74101920D01*
X74930000Y-74110314D01*
X74930000Y-73137924D01*
X74877710Y-73146206D01*
X74681904Y-73209827D01*
X74498462Y-73303295D01*
X74498457Y-73303298D01*
X74331896Y-73424311D01*
X74186311Y-73569896D01*
X74065298Y-73736457D01*
X74065292Y-73736467D01*
X74012424Y-73840227D01*
X73951310Y-73917750D01*
X73865181Y-73965984D01*
X73767150Y-73977587D01*
X73672140Y-73950791D01*
X73594617Y-73889677D01*
X73561576Y-73840227D01*
X73508707Y-73736467D01*
X73508701Y-73736457D01*
X73387688Y-73569896D01*
X73242103Y-73424311D01*
X73075542Y-73303298D01*
X73075537Y-73303295D01*
X72892095Y-73209827D01*
X72696289Y-73146206D01*
X72644000Y-73137924D01*
X72644000Y-74110314D01*
X72635606Y-74101920D01*
X72544394Y-74049259D01*
X72442661Y-74022000D01*
X72337339Y-74022000D01*
X72235606Y-74049259D01*
X72144394Y-74101920D01*
X72136000Y-74110314D01*
X72136000Y-73137924D01*
X72083710Y-73146206D01*
X71887904Y-73209827D01*
X71704462Y-73303295D01*
X71704457Y-73303298D01*
X71537896Y-73424311D01*
X71392311Y-73569896D01*
X71271298Y-73736457D01*
X71271295Y-73736462D01*
X71177827Y-73919904D01*
X71114207Y-74115708D01*
X71112010Y-74124862D01*
X71070682Y-74214510D01*
X70998193Y-74281519D01*
X70905578Y-74315686D01*
X70806939Y-74311811D01*
X70717291Y-74270483D01*
X70650282Y-74197994D01*
X70619990Y-74124862D01*
X70617792Y-74115708D01*
X70554172Y-73919904D01*
X70460704Y-73736462D01*
X70460701Y-73736457D01*
X70429583Y-73693625D01*
X69742000Y-74381208D01*
X69742000Y-74369339D01*
X69714741Y-74267606D01*
X69662080Y-74176394D01*
X69587606Y-74101920D01*
X69496394Y-74049259D01*
X69394661Y-74022000D01*
X69382788Y-74022000D01*
X70070372Y-73334416D01*
X70070372Y-73334415D01*
X70027541Y-73303297D01*
X69844095Y-73209827D01*
X69648289Y-73146206D01*
X69444943Y-73114000D01*
X69239056Y-73114000D01*
X69035710Y-73146206D01*
X68839901Y-73209828D01*
X68656462Y-73303295D01*
X68656456Y-73303299D01*
X68613625Y-73334415D01*
X69301210Y-74022000D01*
X69289339Y-74022000D01*
X69187606Y-74049259D01*
X69096394Y-74101920D01*
X69021920Y-74176394D01*
X68969259Y-74267606D01*
X68942000Y-74369339D01*
X68942000Y-74381210D01*
X68254415Y-73693625D01*
X68223299Y-73736456D01*
X68223295Y-73736462D01*
X68129828Y-73919901D01*
X68066206Y-74115710D01*
X68034000Y-74319056D01*
X60820883Y-74319056D01*
X60790512Y-74127300D01*
X60729298Y-73938903D01*
X60639366Y-73762402D01*
X60620519Y-73736462D01*
X60522930Y-73602142D01*
X60382859Y-73462071D01*
X60382851Y-73462064D01*
X60237803Y-73356681D01*
X60170794Y-73284192D01*
X60136627Y-73191578D01*
X60140502Y-73092939D01*
X60181831Y-73003291D01*
X60237803Y-72947319D01*
X60382851Y-72841935D01*
X60382850Y-72841935D01*
X60382858Y-72841930D01*
X60522930Y-72701858D01*
X60639366Y-72541598D01*
X60729298Y-72365097D01*
X60790512Y-72176700D01*
X60821500Y-71981046D01*
X60821500Y-71782954D01*
X60820876Y-71779017D01*
X62064500Y-71779017D01*
X62064500Y-71984982D01*
X62096720Y-72188408D01*
X62160365Y-72384287D01*
X62160368Y-72384294D01*
X62253867Y-72567797D01*
X62253870Y-72567801D01*
X62253871Y-72567803D01*
X62374932Y-72734430D01*
X62520570Y-72880068D01*
X62687197Y-73001129D01*
X62687199Y-73001130D01*
X62687202Y-73001132D01*
X62723856Y-73019808D01*
X62870710Y-73094634D01*
X63066592Y-73158280D01*
X63270019Y-73190500D01*
X63270021Y-73190500D01*
X63475979Y-73190500D01*
X63475981Y-73190500D01*
X63679408Y-73158280D01*
X63875290Y-73094634D01*
X64058803Y-73001129D01*
X64225430Y-72880068D01*
X64371068Y-72734430D01*
X64492129Y-72567803D01*
X64585634Y-72384290D01*
X64649280Y-72188408D01*
X64681500Y-71984981D01*
X64681500Y-71779019D01*
X64649280Y-71575592D01*
X64585634Y-71379710D01*
X64538881Y-71287953D01*
X64492132Y-71196202D01*
X64492130Y-71196199D01*
X64492129Y-71196197D01*
X64371068Y-71029570D01*
X64225430Y-70883932D01*
X64058803Y-70762871D01*
X64058801Y-70762870D01*
X64058797Y-70762867D01*
X63875294Y-70669368D01*
X63875293Y-70669367D01*
X63875290Y-70669366D01*
X63679408Y-70605720D01*
X63475982Y-70573500D01*
X63475981Y-70573500D01*
X63270019Y-70573500D01*
X63270017Y-70573500D01*
X63066591Y-70605720D01*
X62870712Y-70669365D01*
X62870705Y-70669368D01*
X62687202Y-70762867D01*
X62520569Y-70883932D01*
X62374932Y-71029569D01*
X62253867Y-71196202D01*
X62160368Y-71379705D01*
X62160365Y-71379712D01*
X62096720Y-71575591D01*
X62064500Y-71779017D01*
X60820876Y-71779017D01*
X60790512Y-71587300D01*
X60729298Y-71398903D01*
X60639366Y-71222402D01*
X60522930Y-71062142D01*
X60382858Y-70922070D01*
X60278054Y-70845925D01*
X60222600Y-70805635D01*
X60222593Y-70805631D01*
X60046101Y-70715704D01*
X60046100Y-70715703D01*
X60046097Y-70715702D01*
X60046094Y-70715701D01*
X59857698Y-70654487D01*
X59857699Y-70654487D01*
X59662049Y-70623500D01*
X59662046Y-70623500D01*
X59463954Y-70623500D01*
X59463950Y-70623500D01*
X59268300Y-70654487D01*
X59079905Y-70715701D01*
X59079898Y-70715704D01*
X58903406Y-70805631D01*
X58903399Y-70805635D01*
X58743142Y-70922069D01*
X58603069Y-71062142D01*
X58486635Y-71222399D01*
X58486631Y-71222406D01*
X58396704Y-71398898D01*
X58396701Y-71398905D01*
X58335487Y-71587300D01*
X58304500Y-71782950D01*
X58304500Y-71981049D01*
X58335487Y-72176699D01*
X58396701Y-72365094D01*
X58396704Y-72365101D01*
X58486631Y-72541593D01*
X58486635Y-72541600D01*
X58603069Y-72701857D01*
X58743142Y-72841930D01*
X58888197Y-72947319D01*
X58955205Y-73019808D01*
X58989372Y-73112423D01*
X58985496Y-73211062D01*
X58944168Y-73300710D01*
X58888197Y-73356681D01*
X58743142Y-73462069D01*
X58603069Y-73602142D01*
X58486635Y-73762399D01*
X58486631Y-73762406D01*
X58396704Y-73938898D01*
X58396701Y-73938906D01*
X58395665Y-73942096D01*
X58394571Y-73944048D01*
X58392900Y-73948084D01*
X58392422Y-73947886D01*
X58347430Y-74028225D01*
X58269907Y-74089339D01*
X58174897Y-74116134D01*
X58076866Y-74104531D01*
X57990737Y-74056296D01*
X57976150Y-74042812D01*
X56889659Y-72956321D01*
X56834815Y-72874242D01*
X56815557Y-72777423D01*
X56815557Y-71782687D01*
X56815555Y-71782667D01*
X56804829Y-71697273D01*
X56804828Y-71697271D01*
X56804828Y-71697267D01*
X56804825Y-71697260D01*
X56756020Y-71579435D01*
X56748871Y-71562175D01*
X56696057Y-71494188D01*
X55505817Y-70303946D01*
X55505816Y-70303945D01*
X55505815Y-70303944D01*
X55437825Y-70251129D01*
X55437826Y-70251129D01*
X55302739Y-70195174D01*
X55302727Y-70195171D01*
X55217325Y-70184444D01*
X55217312Y-70184443D01*
X55217310Y-70184443D01*
X54002683Y-70184443D01*
X54002680Y-70184443D01*
X54002667Y-70184444D01*
X53917273Y-70195170D01*
X53917261Y-70195173D01*
X53782180Y-70251126D01*
X53782175Y-70251129D01*
X53714186Y-70303944D01*
X52523944Y-71494184D01*
X52471129Y-71562174D01*
X52415174Y-71697260D01*
X52415171Y-71697272D01*
X52404444Y-71782674D01*
X52404443Y-71782694D01*
X52404443Y-72979443D01*
X52385185Y-73076262D01*
X52330341Y-73158341D01*
X52248262Y-73213185D01*
X52151443Y-73232443D01*
X50954683Y-73232443D01*
X50954680Y-73232443D01*
X50954667Y-73232444D01*
X50869273Y-73243170D01*
X50869261Y-73243173D01*
X50734180Y-73299126D01*
X50734175Y-73299129D01*
X50666186Y-73351944D01*
X49475944Y-74542184D01*
X49423129Y-74610174D01*
X49367174Y-74745260D01*
X49367171Y-74745272D01*
X49356444Y-74830674D01*
X49356443Y-74830694D01*
X49356443Y-76045312D01*
X49356444Y-76045332D01*
X49367170Y-76130726D01*
X49367173Y-76130738D01*
X49423126Y-76265819D01*
X49423127Y-76265821D01*
X49423129Y-76265825D01*
X49475943Y-76333812D01*
X49475944Y-76333813D01*
X50666184Y-77524055D01*
X50734174Y-77576870D01*
X50734173Y-77576870D01*
X50869260Y-77632825D01*
X50869262Y-77632825D01*
X50869266Y-77632827D01*
X50869270Y-77632827D01*
X50869272Y-77632828D01*
X50954674Y-77643555D01*
X50954690Y-77643557D01*
X50954694Y-77643557D01*
X52151443Y-77643557D01*
X52248262Y-77662815D01*
X52330341Y-77717659D01*
X52385185Y-77799738D01*
X52404443Y-77896557D01*
X52404443Y-79075443D01*
X52385185Y-79172262D01*
X52330341Y-79254341D01*
X52248262Y-79309185D01*
X52151443Y-79328443D01*
X50954683Y-79328443D01*
X50954680Y-79328443D01*
X50954667Y-79328444D01*
X50869273Y-79339170D01*
X50869261Y-79339173D01*
X50734180Y-79395126D01*
X50734175Y-79395129D01*
X50666186Y-79447944D01*
X49475944Y-80638184D01*
X49423129Y-80706174D01*
X49367174Y-80841260D01*
X49367171Y-80841272D01*
X49356444Y-80926674D01*
X49356443Y-80926694D01*
X49356443Y-82141312D01*
X49356444Y-82141332D01*
X49367170Y-82226726D01*
X49367173Y-82226738D01*
X49423126Y-82361819D01*
X49423127Y-82361821D01*
X49423129Y-82361825D01*
X49475528Y-82429278D01*
X49475944Y-82429813D01*
X50666184Y-83620055D01*
X50734174Y-83672870D01*
X50734173Y-83672870D01*
X50869260Y-83728825D01*
X50869262Y-83728825D01*
X50869266Y-83728827D01*
X50869270Y-83728827D01*
X50869272Y-83728828D01*
X50954674Y-83739555D01*
X50954690Y-83739557D01*
X50954694Y-83739557D01*
X52151443Y-83739557D01*
X52248262Y-83758815D01*
X52330341Y-83813659D01*
X52385185Y-83895738D01*
X52404443Y-83992557D01*
X52404443Y-85171943D01*
X52385185Y-85268762D01*
X52330341Y-85350841D01*
X52248262Y-85405685D01*
X52151443Y-85424943D01*
X50954716Y-85424943D01*
X50869394Y-85435662D01*
X50869386Y-85435663D01*
X50734433Y-85491562D01*
X50734427Y-85491565D01*
X50666514Y-85544323D01*
X50666514Y-85544324D01*
X50251024Y-85959814D01*
X51222840Y-86931630D01*
X51194900Y-86943204D01*
X51067966Y-87028018D01*
X50960018Y-87135966D01*
X50875204Y-87262900D01*
X50863630Y-87290840D01*
X49891814Y-86319024D01*
X49476324Y-86734514D01*
X49423562Y-86802433D01*
X49367662Y-86937389D01*
X49367660Y-86937398D01*
X49356945Y-87022704D01*
X49356943Y-87022725D01*
X49356943Y-88237283D01*
X49367662Y-88322605D01*
X49367663Y-88322613D01*
X49423562Y-88457566D01*
X49423565Y-88457572D01*
X49476323Y-88525485D01*
X49891813Y-88940975D01*
X50863630Y-87969157D01*
X50875204Y-87997100D01*
X50960018Y-88124034D01*
X51067966Y-88231982D01*
X51194900Y-88316796D01*
X51222839Y-88328368D01*
X50251024Y-89300184D01*
X50251024Y-89300185D01*
X50666514Y-89715675D01*
X50734433Y-89768437D01*
X50869389Y-89824337D01*
X50869398Y-89824339D01*
X50954704Y-89835054D01*
X50954725Y-89835056D01*
X52151443Y-89835056D01*
X52248262Y-89854314D01*
X52330341Y-89909158D01*
X52385185Y-89991237D01*
X52404443Y-90088056D01*
X52404443Y-91285312D01*
X52404444Y-91285332D01*
X52415170Y-91370726D01*
X52415173Y-91370738D01*
X52471126Y-91505819D01*
X52471127Y-91505821D01*
X52471129Y-91505825D01*
X52523943Y-91573812D01*
X52523944Y-91573813D01*
X53714184Y-92764055D01*
X53782174Y-92816870D01*
X53782173Y-92816870D01*
X53917260Y-92872825D01*
X53917262Y-92872825D01*
X53917266Y-92872827D01*
X53917270Y-92872827D01*
X53917272Y-92872828D01*
X54002674Y-92883555D01*
X54002690Y-92883557D01*
X54002694Y-92883557D01*
X55217313Y-92883557D01*
X55217317Y-92883557D01*
X55266772Y-92877345D01*
X55302726Y-92872829D01*
X55302726Y-92872828D01*
X55302733Y-92872828D01*
X55437825Y-92816871D01*
X55505812Y-92764057D01*
X56696054Y-91573817D01*
X56748870Y-91505826D01*
X56801033Y-91379894D01*
X56804825Y-91370739D01*
X56804825Y-91370738D01*
X56804827Y-91370734D01*
X56815557Y-91285310D01*
X56815557Y-90070683D01*
X56804828Y-89985267D01*
X56748871Y-89850175D01*
X56696057Y-89782188D01*
X55505817Y-88591946D01*
X55505816Y-88591945D01*
X55505815Y-88591944D01*
X55437825Y-88539129D01*
X55437826Y-88539129D01*
X55302739Y-88483174D01*
X55302727Y-88483171D01*
X55217325Y-88472444D01*
X55217312Y-88472443D01*
X55217310Y-88472443D01*
X54020056Y-88472443D01*
X53923237Y-88453185D01*
X53841158Y-88398341D01*
X53786314Y-88316262D01*
X53767056Y-88219443D01*
X53767057Y-87040557D01*
X53786316Y-86943738D01*
X53841159Y-86861659D01*
X53923238Y-86806815D01*
X54020057Y-86787557D01*
X55217313Y-86787557D01*
X55217317Y-86787557D01*
X55259150Y-86782302D01*
X55302726Y-86776829D01*
X55302727Y-86776828D01*
X55302733Y-86776828D01*
X55319192Y-86770010D01*
X55416007Y-86750751D01*
X55512826Y-86770008D01*
X55594907Y-86824850D01*
X55594910Y-86824853D01*
X55849330Y-87079272D01*
X56079078Y-87309020D01*
X56079080Y-87309023D01*
X56202977Y-87432920D01*
X56310387Y-87504689D01*
X56348664Y-87530265D01*
X56409365Y-87555408D01*
X56510536Y-87597315D01*
X56510538Y-87597315D01*
X56510542Y-87597317D01*
X56682391Y-87631500D01*
X56682392Y-87631500D01*
X57902028Y-87631500D01*
X57998847Y-87650758D01*
X58080926Y-87705602D01*
X58135770Y-87787681D01*
X58155028Y-87884500D01*
X58151913Y-87924078D01*
X58128000Y-88075056D01*
X58128000Y-88280943D01*
X58160206Y-88484289D01*
X58223827Y-88680095D01*
X58317297Y-88863541D01*
X58347608Y-88905262D01*
X58350463Y-88904324D01*
X59036000Y-88218787D01*
X59036000Y-88230661D01*
X59063259Y-88332394D01*
X59115920Y-88423606D01*
X59190394Y-88498080D01*
X59281606Y-88550741D01*
X59383339Y-88578000D01*
X59395208Y-88578000D01*
X58668790Y-89304418D01*
X58654690Y-89313838D01*
X58651666Y-89317702D01*
X58633924Y-89327714D01*
X58586711Y-89359262D01*
X58570850Y-89363310D01*
X58565696Y-89366220D01*
X58540320Y-89374557D01*
X58526799Y-89376011D01*
X58459519Y-89401105D01*
X58459514Y-89401107D01*
X58389791Y-89427113D01*
X58272740Y-89514737D01*
X58272737Y-89514740D01*
X58185113Y-89631791D01*
X58134009Y-89768803D01*
X58127501Y-89829345D01*
X58127500Y-89829365D01*
X58127500Y-91526634D01*
X58127501Y-91526654D01*
X58134009Y-91587196D01*
X58134011Y-91587201D01*
X58185111Y-91724204D01*
X58185112Y-91724205D01*
X58185113Y-91724208D01*
X58272737Y-91841259D01*
X58272740Y-91841262D01*
X58389794Y-91928888D01*
X58405672Y-91937558D01*
X58404822Y-91939113D01*
X58469930Y-91979333D01*
X58527667Y-92059403D01*
X58550368Y-92155473D01*
X58534576Y-92252918D01*
X58482696Y-92336901D01*
X58402626Y-92394638D01*
X58306556Y-92417339D01*
X58297529Y-92417500D01*
X57571362Y-92417500D01*
X57571359Y-92417500D01*
X57571345Y-92417501D01*
X57510803Y-92424009D01*
X57441871Y-92449720D01*
X57391237Y-92468606D01*
X57373791Y-92475113D01*
X57256740Y-92562737D01*
X57256737Y-92562740D01*
X57169113Y-92679791D01*
X57118009Y-92816803D01*
X57111501Y-92877345D01*
X57111500Y-92877365D01*
X57111500Y-94574634D01*
X57111501Y-94574654D01*
X57118009Y-94635196D01*
X57118011Y-94635201D01*
X57169111Y-94772204D01*
X57169112Y-94772205D01*
X57169113Y-94772208D01*
X57256737Y-94889259D01*
X57256740Y-94889262D01*
X57373791Y-94976886D01*
X57373792Y-94976886D01*
X57373796Y-94976889D01*
X57510799Y-95027989D01*
X57510802Y-95027989D01*
X57510804Y-95027990D01*
X57510802Y-95027990D01*
X57559065Y-95033178D01*
X57571362Y-95034500D01*
X57571365Y-95034500D01*
X57648671Y-95034500D01*
X57745490Y-95053758D01*
X57827569Y-95108602D01*
X57882413Y-95190681D01*
X57901671Y-95287500D01*
X57882413Y-95384319D01*
X57827569Y-95466398D01*
X57763529Y-95512925D01*
X57734206Y-95527865D01*
X57734202Y-95527867D01*
X57567569Y-95648932D01*
X57421932Y-95794569D01*
X57300867Y-95961202D01*
X57207368Y-96144705D01*
X57207365Y-96144712D01*
X57143720Y-96340591D01*
X57111500Y-96544017D01*
X57111500Y-96749982D01*
X57143720Y-96953408D01*
X57207365Y-97149287D01*
X57207368Y-97149294D01*
X57300867Y-97332797D01*
X57300870Y-97332801D01*
X57300871Y-97332803D01*
X57421932Y-97499430D01*
X57567570Y-97645068D01*
X57734197Y-97766129D01*
X57734199Y-97766130D01*
X57734202Y-97766132D01*
X57764572Y-97781606D01*
X57917710Y-97859634D01*
X58029131Y-97895837D01*
X58035428Y-97897883D01*
X58121557Y-97946118D01*
X58182671Y-98023641D01*
X58209466Y-98118651D01*
X58197863Y-98216682D01*
X58149628Y-98302811D01*
X58072105Y-98363925D01*
X57977095Y-98390720D01*
X57957246Y-98391500D01*
X51262754Y-98391500D01*
X51165935Y-98372242D01*
X51083856Y-98317398D01*
X51029012Y-98235319D01*
X51009754Y-98138500D01*
X51029012Y-98041681D01*
X51083856Y-97959602D01*
X51165935Y-97904758D01*
X51184572Y-97897883D01*
X51189358Y-97896327D01*
X51302290Y-97859634D01*
X51485803Y-97766129D01*
X51652430Y-97645068D01*
X51798068Y-97499430D01*
X51919129Y-97332803D01*
X52012634Y-97149290D01*
X52076280Y-96953408D01*
X52108500Y-96749981D01*
X52108500Y-96544019D01*
X52076280Y-96340592D01*
X52012634Y-96144710D01*
X51944975Y-96011922D01*
X51919132Y-95961202D01*
X51919130Y-95961199D01*
X51919129Y-95961197D01*
X51798068Y-95794570D01*
X51652430Y-95648932D01*
X51485803Y-95527871D01*
X51485801Y-95527870D01*
X51485797Y-95527867D01*
X51302294Y-95434368D01*
X51302293Y-95434367D01*
X51302290Y-95434366D01*
X51279977Y-95427116D01*
X51193850Y-95378883D01*
X51132736Y-95301360D01*
X51105940Y-95206351D01*
X51117543Y-95108319D01*
X51165777Y-95022190D01*
X51243300Y-94961076D01*
X51279975Y-94945884D01*
X51302290Y-94938634D01*
X51485803Y-94845129D01*
X51652430Y-94724068D01*
X51798068Y-94578430D01*
X51919129Y-94411803D01*
X52012634Y-94228290D01*
X52076280Y-94032408D01*
X52108500Y-93828981D01*
X52108500Y-93623019D01*
X52076280Y-93419592D01*
X52012634Y-93223710D01*
X51919129Y-93040197D01*
X51798068Y-92873570D01*
X51652430Y-92727932D01*
X51485803Y-92606871D01*
X51485801Y-92606870D01*
X51485797Y-92606867D01*
X51302294Y-92513368D01*
X51302293Y-92513367D01*
X51302290Y-92513366D01*
X51106408Y-92449720D01*
X51066468Y-92443394D01*
X50902982Y-92417500D01*
X50902981Y-92417500D01*
X50697019Y-92417500D01*
X50697017Y-92417500D01*
X50493591Y-92449720D01*
X50297712Y-92513365D01*
X50297705Y-92513368D01*
X50114202Y-92606867D01*
X49947569Y-92727932D01*
X49801932Y-92873569D01*
X49680867Y-93040202D01*
X49587368Y-93223705D01*
X49587365Y-93223712D01*
X49523720Y-93419591D01*
X49491500Y-93623017D01*
X49491500Y-93828982D01*
X49523720Y-94032408D01*
X49587365Y-94228287D01*
X49587368Y-94228294D01*
X49680867Y-94411797D01*
X49680870Y-94411801D01*
X49680871Y-94411803D01*
X49801932Y-94578430D01*
X49947570Y-94724068D01*
X50114197Y-94845129D01*
X50114199Y-94845130D01*
X50114202Y-94845132D01*
X50200812Y-94889262D01*
X50297710Y-94938634D01*
X50320024Y-94945884D01*
X50406151Y-94994118D01*
X50467264Y-95071642D01*
X50494059Y-95166652D01*
X50482456Y-95264683D01*
X50434221Y-95350812D01*
X50356697Y-95411925D01*
X50320028Y-95427114D01*
X50305402Y-95431866D01*
X50297709Y-95434366D01*
X50297705Y-95434368D01*
X50114202Y-95527867D01*
X49947569Y-95648932D01*
X49801932Y-95794569D01*
X49680867Y-95961202D01*
X49587368Y-96144705D01*
X49587365Y-96144712D01*
X49523720Y-96340591D01*
X49491500Y-96544017D01*
X49491500Y-96749982D01*
X49523720Y-96953408D01*
X49587365Y-97149287D01*
X49587368Y-97149294D01*
X49680867Y-97332797D01*
X49680870Y-97332801D01*
X49680871Y-97332803D01*
X49801932Y-97499430D01*
X49947570Y-97645068D01*
X50114197Y-97766129D01*
X50114199Y-97766130D01*
X50114202Y-97766132D01*
X50144572Y-97781606D01*
X50297710Y-97859634D01*
X50409131Y-97895837D01*
X50415428Y-97897883D01*
X50501557Y-97946118D01*
X50562671Y-98023641D01*
X50589466Y-98118651D01*
X50577863Y-98216682D01*
X50529628Y-98302811D01*
X50452105Y-98363925D01*
X50357095Y-98390720D01*
X50337246Y-98391500D01*
X48961500Y-98391500D01*
X48864681Y-98372242D01*
X48782602Y-98317398D01*
X48727758Y-98235319D01*
X48708500Y-98138500D01*
X48708500Y-69331365D01*
X74881500Y-69331365D01*
X74881500Y-71428634D01*
X74881501Y-71428654D01*
X74888009Y-71489196D01*
X74889870Y-71494186D01*
X74939111Y-71626204D01*
X74939112Y-71626205D01*
X74939113Y-71626208D01*
X75026737Y-71743259D01*
X75026740Y-71743262D01*
X75143791Y-71830886D01*
X75143792Y-71830886D01*
X75143796Y-71830889D01*
X75280799Y-71881989D01*
X75280802Y-71881989D01*
X75280804Y-71881990D01*
X75280802Y-71881990D01*
X75329065Y-71887178D01*
X75341362Y-71888500D01*
X75341365Y-71888500D01*
X77438635Y-71888500D01*
X77438638Y-71888500D01*
X77461479Y-71886044D01*
X77499196Y-71881990D01*
X77499197Y-71881989D01*
X77499201Y-71881989D01*
X77636204Y-71830889D01*
X77753261Y-71743261D01*
X77775248Y-71713888D01*
X77848681Y-71647927D01*
X77941773Y-71615084D01*
X78040347Y-71620366D01*
X78126494Y-71660828D01*
X78139368Y-71670182D01*
X78139370Y-71670183D01*
X78139373Y-71670185D01*
X78350937Y-71777982D01*
X78350942Y-71777983D01*
X78350943Y-71777984D01*
X78365427Y-71782690D01*
X78576759Y-71851356D01*
X78811278Y-71888500D01*
X78811280Y-71888500D01*
X79048720Y-71888500D01*
X79048722Y-71888500D01*
X79283241Y-71851356D01*
X79509063Y-71777982D01*
X79720627Y-71670185D01*
X79912722Y-71530620D01*
X80021102Y-71422240D01*
X80103181Y-71367396D01*
X80200000Y-71348138D01*
X80296819Y-71367396D01*
X80378898Y-71422240D01*
X80487279Y-71530621D01*
X80679369Y-71670182D01*
X80679373Y-71670185D01*
X80890937Y-71777982D01*
X80890942Y-71777983D01*
X80890943Y-71777984D01*
X80905427Y-71782690D01*
X81116759Y-71851356D01*
X81351278Y-71888500D01*
X81351280Y-71888500D01*
X81588720Y-71888500D01*
X81588722Y-71888500D01*
X81823241Y-71851356D01*
X82049063Y-71777982D01*
X82260627Y-71670185D01*
X82452722Y-71530620D01*
X82561102Y-71422240D01*
X82643181Y-71367396D01*
X82740000Y-71348138D01*
X82836819Y-71367396D01*
X82918898Y-71422240D01*
X83027279Y-71530621D01*
X83219369Y-71670182D01*
X83219373Y-71670185D01*
X83430937Y-71777982D01*
X83430942Y-71777983D01*
X83430943Y-71777984D01*
X83445427Y-71782690D01*
X83656759Y-71851356D01*
X83891278Y-71888500D01*
X83891280Y-71888500D01*
X84128720Y-71888500D01*
X84128722Y-71888500D01*
X84363241Y-71851356D01*
X84589063Y-71777982D01*
X84800627Y-71670185D01*
X84992722Y-71530620D01*
X85101102Y-71422240D01*
X85183181Y-71367396D01*
X85280000Y-71348138D01*
X85376819Y-71367396D01*
X85458898Y-71422240D01*
X85567279Y-71530621D01*
X85759369Y-71670182D01*
X85759373Y-71670185D01*
X85970937Y-71777982D01*
X85970942Y-71777983D01*
X85970943Y-71777984D01*
X85985427Y-71782690D01*
X86196759Y-71851356D01*
X86431278Y-71888500D01*
X86431280Y-71888500D01*
X86668720Y-71888500D01*
X86668722Y-71888500D01*
X86903241Y-71851356D01*
X87129063Y-71777982D01*
X87340627Y-71670185D01*
X87532722Y-71530620D01*
X87641456Y-71421886D01*
X87723535Y-71367042D01*
X87820354Y-71347784D01*
X87917173Y-71367042D01*
X87999252Y-71421886D01*
X88107603Y-71530237D01*
X88299636Y-71669756D01*
X88299641Y-71669759D01*
X88511124Y-71777515D01*
X88511131Y-71777518D01*
X88736877Y-71850868D01*
X88835999Y-71866567D01*
X88836000Y-71866567D01*
X88836000Y-70810702D01*
X88897007Y-70845925D01*
X89024174Y-70880000D01*
X89155826Y-70880000D01*
X89282993Y-70845925D01*
X89344000Y-70810702D01*
X89344000Y-71866567D01*
X89443122Y-71850868D01*
X89668868Y-71777518D01*
X89668875Y-71777515D01*
X89880358Y-71669759D01*
X89880363Y-71669756D01*
X90072396Y-71530237D01*
X90240237Y-71362396D01*
X90379756Y-71170363D01*
X90379759Y-71170358D01*
X90487515Y-70958875D01*
X90487518Y-70958868D01*
X90560867Y-70733124D01*
X90576568Y-70634000D01*
X89520703Y-70634000D01*
X89555925Y-70572993D01*
X89590000Y-70445826D01*
X89590000Y-70314174D01*
X89555925Y-70187007D01*
X89520703Y-70126000D01*
X90576567Y-70126000D01*
X90560867Y-70026875D01*
X90487518Y-69801131D01*
X90487515Y-69801124D01*
X90379759Y-69589641D01*
X90379756Y-69589636D01*
X90240237Y-69397603D01*
X90072396Y-69229762D01*
X89880363Y-69090243D01*
X89880358Y-69090240D01*
X89668875Y-68982484D01*
X89668868Y-68982481D01*
X89443124Y-68909132D01*
X89344000Y-68893432D01*
X89344000Y-69949297D01*
X89282993Y-69914075D01*
X89155826Y-69880000D01*
X89024174Y-69880000D01*
X88897007Y-69914075D01*
X88836000Y-69949297D01*
X88836000Y-68893432D01*
X88736875Y-68909132D01*
X88511131Y-68982481D01*
X88511124Y-68982484D01*
X88299641Y-69090240D01*
X88299636Y-69090243D01*
X88107603Y-69229762D01*
X87999252Y-69338114D01*
X87917173Y-69392958D01*
X87820354Y-69412216D01*
X87723535Y-69392958D01*
X87641456Y-69338114D01*
X87532720Y-69229378D01*
X87340629Y-69089816D01*
X87254845Y-69046107D01*
X87129063Y-68982018D01*
X87129059Y-68982017D01*
X87129056Y-68982015D01*
X86903242Y-68908644D01*
X86668723Y-68871500D01*
X86668722Y-68871500D01*
X86431278Y-68871500D01*
X86431276Y-68871500D01*
X86196757Y-68908644D01*
X85970943Y-68982015D01*
X85970937Y-68982017D01*
X85970937Y-68982018D01*
X85950300Y-68992532D01*
X85759370Y-69089816D01*
X85567279Y-69229378D01*
X85458898Y-69337760D01*
X85376819Y-69392604D01*
X85280000Y-69411862D01*
X85183181Y-69392604D01*
X85101102Y-69337760D01*
X84992720Y-69229378D01*
X84800629Y-69089816D01*
X84714845Y-69046107D01*
X84589063Y-68982018D01*
X84589059Y-68982017D01*
X84589056Y-68982015D01*
X84363242Y-68908644D01*
X84128723Y-68871500D01*
X84128722Y-68871500D01*
X83891278Y-68871500D01*
X83891276Y-68871500D01*
X83656757Y-68908644D01*
X83430943Y-68982015D01*
X83430937Y-68982017D01*
X83430937Y-68982018D01*
X83410300Y-68992532D01*
X83219370Y-69089816D01*
X83027279Y-69229378D01*
X82918898Y-69337760D01*
X82836819Y-69392604D01*
X82740000Y-69411862D01*
X82643181Y-69392604D01*
X82561102Y-69337760D01*
X82452720Y-69229378D01*
X82260629Y-69089816D01*
X82174845Y-69046107D01*
X82049063Y-68982018D01*
X82049059Y-68982017D01*
X82049056Y-68982015D01*
X81823242Y-68908644D01*
X81588723Y-68871500D01*
X81588722Y-68871500D01*
X81351278Y-68871500D01*
X81351276Y-68871500D01*
X81116757Y-68908644D01*
X80890943Y-68982015D01*
X80890937Y-68982017D01*
X80890937Y-68982018D01*
X80870300Y-68992532D01*
X80679370Y-69089816D01*
X80487279Y-69229378D01*
X80378898Y-69337760D01*
X80296819Y-69392604D01*
X80200000Y-69411862D01*
X80103181Y-69392604D01*
X80021102Y-69337760D01*
X79912720Y-69229378D01*
X79720629Y-69089816D01*
X79634845Y-69046107D01*
X79509063Y-68982018D01*
X79509059Y-68982017D01*
X79509056Y-68982015D01*
X79283242Y-68908644D01*
X79048723Y-68871500D01*
X79048722Y-68871500D01*
X78811278Y-68871500D01*
X78811276Y-68871500D01*
X78576757Y-68908644D01*
X78350943Y-68982015D01*
X78350937Y-68982017D01*
X78350937Y-68982018D01*
X78282797Y-69016737D01*
X78139369Y-69089817D01*
X78126488Y-69099176D01*
X78036839Y-69140502D01*
X77938199Y-69144375D01*
X77845586Y-69110206D01*
X77775247Y-69046108D01*
X77753261Y-69016739D01*
X77753259Y-69016738D01*
X77753259Y-69016737D01*
X77636208Y-68929113D01*
X77636205Y-68929112D01*
X77636204Y-68929111D01*
X77499201Y-68878011D01*
X77499200Y-68878010D01*
X77499195Y-68878009D01*
X77499197Y-68878009D01*
X77438654Y-68871501D01*
X77438640Y-68871500D01*
X77438638Y-68871500D01*
X75341362Y-68871500D01*
X75341359Y-68871500D01*
X75341345Y-68871501D01*
X75280803Y-68878009D01*
X75143791Y-68929113D01*
X75026740Y-69016737D01*
X75026737Y-69016740D01*
X74939113Y-69133791D01*
X74888009Y-69270803D01*
X74881501Y-69331345D01*
X74881500Y-69331365D01*
X48708500Y-69331365D01*
X48708500Y-65661500D01*
X48727758Y-65564681D01*
X48782602Y-65482602D01*
X48864681Y-65427758D01*
X48961500Y-65408500D01*
X74842500Y-65408500D01*
X74939319Y-65427758D01*
G37*
G04 #@! TD.AperFunction*
G04 #@! TA.AperFunction,Conductor*
G36*
X81419505Y-89013841D02*
G01*
X81505634Y-89062075D01*
X81520222Y-89075560D01*
X82952936Y-90508274D01*
X83077817Y-90591716D01*
X83077823Y-90591720D01*
X83175940Y-90632361D01*
X83175941Y-90632361D01*
X83175943Y-90632362D01*
X83216587Y-90649197D01*
X83363900Y-90678500D01*
X83363901Y-90678500D01*
X83490490Y-90678500D01*
X83587309Y-90697758D01*
X83669388Y-90752602D01*
X83682873Y-90767190D01*
X83683932Y-90768430D01*
X83829570Y-90914068D01*
X83996197Y-91035129D01*
X83996199Y-91035130D01*
X83996202Y-91035132D01*
X84075366Y-91075468D01*
X84179710Y-91128634D01*
X84375592Y-91192280D01*
X84579019Y-91224500D01*
X84579021Y-91224500D01*
X84784979Y-91224500D01*
X84784981Y-91224500D01*
X84988408Y-91192280D01*
X85184290Y-91128634D01*
X85367803Y-91035129D01*
X85534430Y-90914068D01*
X85680068Y-90768430D01*
X85697318Y-90744686D01*
X85769804Y-90677679D01*
X85862418Y-90643511D01*
X85961057Y-90647384D01*
X86050706Y-90688711D01*
X86073320Y-90707227D01*
X86091863Y-90724291D01*
X86123932Y-90768430D01*
X86269570Y-90914068D01*
X86405054Y-91012502D01*
X86415816Y-91022406D01*
X86436452Y-91050676D01*
X86460213Y-91076380D01*
X86465319Y-91090222D01*
X86474018Y-91102138D01*
X86482264Y-91136152D01*
X86494381Y-91168994D01*
X86493801Y-91183737D01*
X86497278Y-91198075D01*
X86491879Y-91232657D01*
X86490506Y-91267633D01*
X86484329Y-91281031D01*
X86482054Y-91295609D01*
X86463833Y-91325492D01*
X86449179Y-91357282D01*
X86432654Y-91376629D01*
X86430664Y-91379894D01*
X86428545Y-91381440D01*
X86423394Y-91387472D01*
X82381469Y-95429398D01*
X82299390Y-95484242D01*
X82202571Y-95503500D01*
X82068884Y-95503500D01*
X81956663Y-95525822D01*
X81872495Y-95542564D01*
X81687512Y-95619187D01*
X81687508Y-95619189D01*
X81687507Y-95619190D01*
X81633555Y-95655239D01*
X81542356Y-95693014D01*
X81443641Y-95693013D01*
X81352440Y-95655236D01*
X81282637Y-95585433D01*
X81244861Y-95494231D01*
X81240000Y-95444875D01*
X81240000Y-95250000D01*
X80293686Y-95250000D01*
X80302080Y-95241606D01*
X80354741Y-95150394D01*
X80382000Y-95048661D01*
X80382000Y-94943339D01*
X80354741Y-94841606D01*
X80302080Y-94750394D01*
X80293686Y-94742000D01*
X81240000Y-94742000D01*
X81240000Y-94197412D01*
X81239999Y-94197394D01*
X81233496Y-94136910D01*
X81233494Y-94136903D01*
X81182447Y-94000040D01*
X81182444Y-94000034D01*
X81094905Y-93883097D01*
X81094902Y-93883094D01*
X80977965Y-93795555D01*
X80977961Y-93795553D01*
X80942055Y-93782161D01*
X80858071Y-93730282D01*
X80800333Y-93650212D01*
X80777631Y-93554142D01*
X80793422Y-93456698D01*
X80845301Y-93372714D01*
X80851545Y-93366242D01*
X80941930Y-93275858D01*
X81058366Y-93115598D01*
X81148298Y-92939097D01*
X81209512Y-92750700D01*
X81240500Y-92555046D01*
X81240500Y-92356954D01*
X81209512Y-92161300D01*
X81148298Y-91972903D01*
X81058366Y-91796402D01*
X80941930Y-91636142D01*
X80801858Y-91496070D01*
X80801857Y-91496069D01*
X80801851Y-91496064D01*
X80656803Y-91390681D01*
X80589794Y-91318192D01*
X80555627Y-91225578D01*
X80559502Y-91126939D01*
X80600831Y-91037291D01*
X80656803Y-90981319D01*
X80801851Y-90875935D01*
X80801850Y-90875935D01*
X80801858Y-90875930D01*
X80941930Y-90735858D01*
X81058366Y-90575598D01*
X81148298Y-90399097D01*
X81209512Y-90210700D01*
X81240500Y-90015046D01*
X81240500Y-89816954D01*
X81209512Y-89621300D01*
X81148298Y-89432903D01*
X81115898Y-89369316D01*
X81089104Y-89274308D01*
X81100707Y-89176277D01*
X81148941Y-89090148D01*
X81226465Y-89029033D01*
X81321474Y-89002238D01*
X81419505Y-89013841D01*
G37*
G04 #@! TD.AperFunction*
G04 #@! TA.AperFunction,Conductor*
G36*
X62430598Y-87228553D02*
G01*
X62535900Y-87249500D01*
X66643851Y-87249500D01*
X66740670Y-87268758D01*
X66822749Y-87323602D01*
X66877593Y-87405681D01*
X66896851Y-87502500D01*
X66877593Y-87599319D01*
X66869277Y-87617356D01*
X66859828Y-87635900D01*
X66796206Y-87831710D01*
X66764000Y-88035056D01*
X66764000Y-88240943D01*
X66796206Y-88444289D01*
X66859827Y-88640095D01*
X66953297Y-88823541D01*
X66984415Y-88866372D01*
X67672000Y-88178787D01*
X67672000Y-88190661D01*
X67699259Y-88292394D01*
X67751920Y-88383606D01*
X67826394Y-88458080D01*
X67917606Y-88510741D01*
X68019339Y-88538000D01*
X68031208Y-88538000D01*
X67343625Y-89225582D01*
X67343625Y-89225583D01*
X67386457Y-89256701D01*
X67386462Y-89256704D01*
X67569904Y-89350172D01*
X67744518Y-89406907D01*
X67830647Y-89455141D01*
X67891762Y-89532664D01*
X67918558Y-89627673D01*
X67906956Y-89725705D01*
X67858722Y-89811834D01*
X67845236Y-89826423D01*
X64858898Y-92812763D01*
X64776819Y-92867606D01*
X64680000Y-92886865D01*
X64583181Y-92867607D01*
X64501102Y-92812763D01*
X64446259Y-92730684D01*
X64427000Y-92633865D01*
X64427000Y-92520060D01*
X64426999Y-92520056D01*
X64394793Y-92316710D01*
X64331172Y-92120904D01*
X64237704Y-91937462D01*
X64237701Y-91937457D01*
X64206583Y-91894625D01*
X63519000Y-92582208D01*
X63519000Y-92570339D01*
X63491741Y-92468606D01*
X63439080Y-92377394D01*
X63364606Y-92302920D01*
X63273394Y-92250259D01*
X63171661Y-92223000D01*
X63159788Y-92223000D01*
X63847372Y-91535415D01*
X63804541Y-91504297D01*
X63621095Y-91410827D01*
X63425289Y-91347206D01*
X63221943Y-91315000D01*
X63016053Y-91315000D01*
X62865077Y-91338912D01*
X62766437Y-91335036D01*
X62676789Y-91293707D01*
X62609781Y-91221218D01*
X62575615Y-91128604D01*
X62572500Y-91089027D01*
X62572500Y-88306584D01*
X62572500Y-88306581D01*
X62538317Y-88134731D01*
X62533886Y-88124034D01*
X62497015Y-88035019D01*
X62471265Y-87972854D01*
X62471266Y-87972854D01*
X62373921Y-87827167D01*
X62202345Y-87655591D01*
X62147501Y-87573512D01*
X62128243Y-87476693D01*
X62147501Y-87379874D01*
X62202345Y-87297795D01*
X62284424Y-87242951D01*
X62381243Y-87223693D01*
X62430598Y-87228553D01*
G37*
G04 #@! TD.AperFunction*
M02*
