G04 #@! TF.GenerationSoftware,KiCad,Pcbnew,9.0.0*
G04 #@! TF.CreationDate,2025-04-22T10:43:32+02:00*
G04 #@! TF.ProjectId,KnurCAN_V2,4b6e7572-4341-44e5-9f56-322e6b696361,rev?*
G04 #@! TF.SameCoordinates,Original*
G04 #@! TF.FileFunction,Copper,L2,Bot*
G04 #@! TF.FilePolarity,Positive*
%FSLAX46Y46*%
G04 Gerber Fmt 4.6, Leading zero omitted, Abs format (unit mm)*
G04 Created by KiCad (PCBNEW 9.0.0) date 2025-04-22 10:43:32*
%MOMM*%
%LPD*%
G01*
G04 APERTURE LIST*
G04 Aperture macros list*
%AMRoundRect*
0 Rectangle with rounded corners*
0 $1 Rounding radius*
0 $2 $3 $4 $5 $6 $7 $8 $9 X,Y pos of 4 corners*
0 Add a 4 corners polygon primitive as box body*
4,1,4,$2,$3,$4,$5,$6,$7,$8,$9,$2,$3,0*
0 Add four circle primitives for the rounded corners*
1,1,$1+$1,$2,$3*
1,1,$1+$1,$4,$5*
1,1,$1+$1,$6,$7*
1,1,$1+$1,$8,$9*
0 Add four rect primitives between the rounded corners*
20,1,$1+$1,$2,$3,$4,$5,0*
20,1,$1+$1,$4,$5,$6,$7,0*
20,1,$1+$1,$6,$7,$8,$9,0*
20,1,$1+$1,$8,$9,$2,$3,0*%
%AMOutline5P*
0 Free polygon, 5 corners , with rotation*
0 The origin of the aperture is its center*
0 number of corners: always 5*
0 $1 to $10 corner X, Y*
0 $11 Rotation angle, in degrees counterclockwise*
0 create outline with 5 corners*
4,1,5,$1,$2,$3,$4,$5,$6,$7,$8,$9,$10,$1,$2,$11*%
%AMOutline6P*
0 Free polygon, 6 corners , with rotation*
0 The origin of the aperture is its center*
0 number of corners: always 6*
0 $1 to $12 corner X, Y*
0 $13 Rotation angle, in degrees counterclockwise*
0 create outline with 6 corners*
4,1,6,$1,$2,$3,$4,$5,$6,$7,$8,$9,$10,$11,$12,$1,$2,$13*%
%AMOutline7P*
0 Free polygon, 7 corners , with rotation*
0 The origin of the aperture is its center*
0 number of corners: always 7*
0 $1 to $14 corner X, Y*
0 $15 Rotation angle, in degrees counterclockwise*
0 create outline with 7 corners*
4,1,7,$1,$2,$3,$4,$5,$6,$7,$8,$9,$10,$11,$12,$13,$14,$1,$2,$15*%
%AMOutline8P*
0 Free polygon, 8 corners , with rotation*
0 The origin of the aperture is its center*
0 number of corners: always 8*
0 $1 to $16 corner X, Y*
0 $17 Rotation angle, in degrees counterclockwise*
0 create outline with 8 corners*
4,1,8,$1,$2,$3,$4,$5,$6,$7,$8,$9,$10,$11,$12,$13,$14,$15,$16,$1,$2,$17*%
G04 Aperture macros list end*
G04 #@! TA.AperFunction,ComponentPad*
%ADD10C,1.600000*%
G04 #@! TD*
G04 #@! TA.AperFunction,ComponentPad*
%ADD11O,1.600000X1.600000*%
G04 #@! TD*
G04 #@! TA.AperFunction,ComponentPad*
%ADD12R,1.500000X1.500000*%
G04 #@! TD*
G04 #@! TA.AperFunction,ComponentPad*
%ADD13C,1.500000*%
G04 #@! TD*
G04 #@! TA.AperFunction,ComponentPad*
%ADD14R,1.700000X1.700000*%
G04 #@! TD*
G04 #@! TA.AperFunction,ComponentPad*
%ADD15O,1.700000X1.700000*%
G04 #@! TD*
G04 #@! TA.AperFunction,ComponentPad*
%ADD16R,1.600000X1.600000*%
G04 #@! TD*
G04 #@! TA.AperFunction,ComponentPad*
%ADD17RoundRect,0.250000X-0.550000X0.550000X-0.550000X-0.550000X0.550000X-0.550000X0.550000X0.550000X0*%
G04 #@! TD*
G04 #@! TA.AperFunction,ComponentPad*
%ADD18Outline8P,-1.600000X0.800000X-0.800000X1.600000X0.800000X1.600000X1.600000X0.800000X1.600000X-0.800000X0.800000X-1.600000X-0.800000X-1.600000X-1.600000X-0.800000X135.000000*%
G04 #@! TD*
G04 #@! TA.AperFunction,ComponentPad*
%ADD19R,2.000000X2.000000*%
G04 #@! TD*
G04 #@! TA.AperFunction,ComponentPad*
%ADD20O,2.000000X2.000000*%
G04 #@! TD*
G04 #@! TA.AperFunction,ComponentPad*
%ADD21R,2.000000X1.700000*%
G04 #@! TD*
G04 #@! TA.AperFunction,ComponentPad*
%ADD22O,2.000000X1.700000*%
G04 #@! TD*
G04 #@! TA.AperFunction,ViaPad*
%ADD23C,1.016000*%
G04 #@! TD*
G04 #@! TA.AperFunction,Conductor*
%ADD24C,0.508000*%
G04 #@! TD*
G04 #@! TA.AperFunction,Conductor*
%ADD25C,0.762000*%
G04 #@! TD*
G04 APERTURE END LIST*
D10*
X83693000Y-84201000D03*
D11*
X91313000Y-84201000D03*
D10*
X83693000Y-87249000D03*
D11*
X91313000Y-87249000D03*
D12*
X59563000Y-76962000D03*
D13*
X59563000Y-74422000D03*
X59563000Y-71882000D03*
D14*
X76454000Y-66548000D03*
D15*
X78994000Y-66548000D03*
X81534000Y-66548000D03*
X84074000Y-66548000D03*
X86614000Y-66548000D03*
D10*
X58420000Y-96647000D03*
D11*
X50800000Y-96647000D03*
D16*
X59436000Y-90678000D03*
D10*
X59436000Y-88178000D03*
D17*
X75692000Y-88138000D03*
D10*
X73152000Y-88138000D03*
X70612000Y-88138000D03*
X68072000Y-88138000D03*
X68072000Y-95758000D03*
X70612000Y-95758000D03*
X73152000Y-95758000D03*
X75692000Y-95758000D03*
D16*
X58420000Y-93726000D03*
D11*
X50800000Y-93726000D03*
D10*
X63373000Y-71882000D03*
D11*
X63373000Y-79502000D03*
D14*
X99922000Y-89916000D03*
D10*
X97382000Y-89916000D03*
X87122000Y-89916000D03*
X84682000Y-89916000D03*
X84682000Y-97536000D03*
X87122000Y-97536000D03*
X97382000Y-97536000D03*
X99922000Y-97536000D03*
D18*
X54610000Y-90678000D03*
X51562000Y-87630000D03*
X54610000Y-84582000D03*
X51562000Y-81534000D03*
X54610000Y-78486000D03*
X51562000Y-75438000D03*
X54610000Y-72390000D03*
D10*
X95270000Y-87249000D03*
X97770000Y-87249000D03*
X69342000Y-74422000D03*
D11*
X69342000Y-82042000D03*
D16*
X75184000Y-82042000D03*
D11*
X75184000Y-74422000D03*
D12*
X59055000Y-80010000D03*
D13*
X59055000Y-82550000D03*
X59055000Y-85090000D03*
D10*
X70993000Y-84709000D03*
D11*
X63373000Y-84709000D03*
D16*
X63119000Y-95123000D03*
D10*
X63119000Y-92623000D03*
X101092000Y-67056000D03*
D11*
X93472000Y-67056000D03*
D10*
X72390000Y-82042000D03*
D11*
X72390000Y-74422000D03*
D10*
X83693000Y-81153000D03*
D11*
X91313000Y-81153000D03*
D19*
X76390000Y-70380000D03*
D20*
X78930000Y-70380000D03*
X81470000Y-70380000D03*
X84010000Y-70380000D03*
X86550000Y-70380000D03*
X89090000Y-70380000D03*
D21*
X96190000Y-80520000D03*
D20*
X96190000Y-76980000D03*
D21*
X66330000Y-81740000D03*
D22*
X66330000Y-79740000D03*
X66330000Y-77740000D03*
X66330000Y-75740000D03*
D16*
X73152000Y-84709000D03*
D11*
X80772000Y-84709000D03*
D12*
X79982000Y-94996000D03*
D13*
X79982000Y-92456000D03*
X79982000Y-89916000D03*
D23*
X82169000Y-96520000D03*
D24*
X101727000Y-95731000D02*
X99922000Y-97536000D01*
X101727000Y-86057000D02*
X101727000Y-95731000D01*
X96190000Y-80520000D02*
X101727000Y-86057000D01*
D25*
X97770000Y-89528000D02*
X97382000Y-89916000D01*
X97770000Y-87249000D02*
X97770000Y-89528000D01*
X91313000Y-81153000D02*
X91313000Y-84201000D01*
X56943056Y-74501944D02*
X59563000Y-71882000D01*
X54610000Y-84582000D02*
X56943056Y-82248944D01*
X59161000Y-71882000D02*
X63373000Y-71882000D01*
X76454000Y-96520000D02*
X82169000Y-96520000D01*
X75692000Y-95758000D02*
X76454000Y-96520000D01*
X94722000Y-84201000D02*
X97770000Y-87249000D01*
X91313000Y-84201000D02*
X94722000Y-84201000D01*
X56943056Y-82248944D02*
X56943056Y-74501944D01*
D24*
X89966630Y-85940000D02*
X87122000Y-88784630D01*
X87122000Y-89916000D02*
X85813000Y-91225000D01*
X95270000Y-87249000D02*
X93961000Y-85940000D01*
X85813000Y-91225000D02*
X81291000Y-91225000D01*
X93961000Y-85940000D02*
X89966630Y-85940000D01*
X87122000Y-88784630D02*
X87122000Y-89916000D01*
X81291000Y-91225000D02*
X79982000Y-89916000D01*
X75184000Y-82042000D02*
X75184000Y-86106000D01*
X75184000Y-82042000D02*
X82804000Y-82042000D01*
X82804000Y-82042000D02*
X83693000Y-81153000D01*
X75184000Y-86106000D02*
X73152000Y-88138000D01*
D25*
X65112000Y-94322000D02*
X79308000Y-94322000D01*
X56984000Y-95162000D02*
X56943056Y-95121056D01*
X49149000Y-74688818D02*
X53780874Y-70056944D01*
X63413000Y-92623000D02*
X65112000Y-94322000D01*
X72390000Y-74422000D02*
X75184000Y-74422000D01*
X69342000Y-74422000D02*
X67648000Y-74422000D01*
X79982000Y-94996000D02*
X84582000Y-94996000D01*
X56943056Y-95121056D02*
X56943056Y-90670944D01*
D24*
X89090000Y-70380000D02*
X89090000Y-69024000D01*
D25*
X59055000Y-87797000D02*
X59436000Y-88178000D01*
X66330000Y-72808189D02*
X66330000Y-75740000D01*
X67648000Y-74422000D02*
X66330000Y-75740000D01*
X59055000Y-85090000D02*
X59055000Y-87797000D01*
D24*
X89090000Y-69024000D02*
X86614000Y-66548000D01*
D25*
X63119000Y-92623000D02*
X63413000Y-92623000D01*
X67604000Y-88138000D02*
X63119000Y-92623000D01*
X58888000Y-87630000D02*
X59436000Y-88178000D01*
X79308000Y-94322000D02*
X79982000Y-94996000D01*
X51562000Y-87630000D02*
X49149000Y-85217000D01*
X69342000Y-74422000D02*
X72390000Y-74422000D01*
X60580000Y-95162000D02*
X56984000Y-95162000D01*
X63578755Y-70056944D02*
X66330000Y-72808189D01*
X67649000Y-88178000D02*
X68065000Y-87762000D01*
X75184000Y-74422000D02*
X85048000Y-74422000D01*
X84582000Y-94996000D02*
X87122000Y-97536000D01*
X56943056Y-90670944D02*
X59436000Y-88178000D01*
X53780874Y-70056944D02*
X63578755Y-70056944D01*
X85048000Y-74422000D02*
X89090000Y-70380000D01*
X51562000Y-87630000D02*
X58888000Y-87630000D01*
X49149000Y-85217000D02*
X49149000Y-74688818D01*
X63119000Y-92623000D02*
X60580000Y-95162000D01*
X68072000Y-88138000D02*
X67604000Y-88138000D01*
D24*
X70088000Y-79740000D02*
X66330000Y-79740000D01*
X72390000Y-82042000D02*
X70088000Y-79740000D01*
X66632000Y-82042000D02*
X66330000Y-81740000D01*
X69342000Y-82042000D02*
X66632000Y-82042000D01*
X61595000Y-96647000D02*
X63119000Y-95123000D01*
X58420000Y-96647000D02*
X61595000Y-96647000D01*
X81470000Y-70380000D02*
X81470000Y-66612000D01*
X81470000Y-66612000D02*
X81534000Y-66548000D01*
X76390000Y-70380000D02*
X76390000Y-66612000D01*
X76390000Y-66612000D02*
X76454000Y-66548000D01*
X78930000Y-70380000D02*
X78930000Y-66612000D01*
X78930000Y-66612000D02*
X78994000Y-66548000D01*
X50800000Y-93472000D02*
X50800000Y-96393000D01*
X50800000Y-93726000D02*
X51562000Y-93726000D01*
X51562000Y-93726000D02*
X54610000Y-90678000D01*
X93980000Y-79190000D02*
X93980000Y-81607794D01*
X96190000Y-76980000D02*
X93980000Y-79190000D01*
X96190000Y-76980000D02*
X93472000Y-74262000D01*
X99922000Y-87549794D02*
X99922000Y-89916000D01*
X93472000Y-74262000D02*
X93472000Y-67056000D01*
X93980000Y-81607794D02*
X99922000Y-87549794D01*
X96190000Y-80520000D02*
X101092000Y-75618000D01*
X101092000Y-75618000D02*
X101092000Y-67056000D01*
X91313000Y-87249000D02*
X91313000Y-88380370D01*
X91313000Y-88380370D02*
X87237370Y-92456000D01*
X87237370Y-92456000D02*
X79982000Y-92456000D01*
X79121000Y-84709000D02*
X75692000Y-88138000D01*
X83693000Y-84201000D02*
X81280000Y-84201000D01*
X80772000Y-84709000D02*
X79121000Y-84709000D01*
X83693000Y-87249000D02*
X83693000Y-84201000D01*
X81280000Y-84201000D02*
X80772000Y-84709000D01*
X60071000Y-76962000D02*
X60849000Y-77740000D01*
X59161000Y-76962000D02*
X60071000Y-76962000D01*
X60849000Y-77740000D02*
X66330000Y-77740000D01*
X59055000Y-80010000D02*
X62865000Y-80010000D01*
X62865000Y-80010000D02*
X63373000Y-79502000D01*
X58304000Y-75681000D02*
X59563000Y-74422000D01*
X59055000Y-80010000D02*
X58304000Y-79259000D01*
X58304000Y-79259000D02*
X58304000Y-75681000D01*
X61214000Y-82550000D02*
X63373000Y-84709000D01*
X59055000Y-82550000D02*
X61214000Y-82550000D01*
X84010000Y-66612000D02*
X84074000Y-66548000D01*
X84010000Y-70380000D02*
X84010000Y-66612000D01*
X58420000Y-91694000D02*
X59436000Y-90678000D01*
X73152000Y-84709000D02*
X70993000Y-84709000D01*
X65405000Y-84709000D02*
X70993000Y-84709000D01*
X59436000Y-90678000D02*
X65405000Y-84709000D01*
X58420000Y-93726000D02*
X58420000Y-91694000D01*
G04 #@! TA.AperFunction,Conductor*
G36*
X74863920Y-74176394D02*
G01*
X74811259Y-74267606D01*
X74784000Y-74369339D01*
X74784000Y-74474661D01*
X74811259Y-74576394D01*
X74863920Y-74667606D01*
X74872314Y-74676000D01*
X72701686Y-74676000D01*
X72710080Y-74667606D01*
X72762741Y-74576394D01*
X72790000Y-74474661D01*
X72790000Y-74369339D01*
X72762741Y-74267606D01*
X72710080Y-74176394D01*
X72701686Y-74168000D01*
X74872314Y-74168000D01*
X74863920Y-74176394D01*
G37*
G04 #@! TD.AperFunction*
G04 #@! TA.AperFunction,Conductor*
G36*
X74939319Y-65427758D02*
G01*
X75021398Y-65482602D01*
X75076242Y-65564681D01*
X75095500Y-65661500D01*
X75095500Y-67446634D01*
X75095501Y-67446654D01*
X75102009Y-67507196D01*
X75102011Y-67507201D01*
X75153111Y-67644204D01*
X75153112Y-67644205D01*
X75153113Y-67644208D01*
X75240737Y-67761259D01*
X75240740Y-67761262D01*
X75357792Y-67848887D01*
X75357794Y-67848887D01*
X75357796Y-67848889D01*
X75462918Y-67888097D01*
X75466817Y-67890506D01*
X75471319Y-67891402D01*
X75508681Y-67916367D01*
X75546899Y-67939975D01*
X75549582Y-67943696D01*
X75553398Y-67946246D01*
X75578360Y-67983605D01*
X75604637Y-68020044D01*
X75605692Y-68024508D01*
X75608242Y-68028325D01*
X75617007Y-68072393D01*
X75627339Y-68116114D01*
X75627500Y-68125144D01*
X75627500Y-68618500D01*
X75608242Y-68715319D01*
X75553398Y-68797398D01*
X75471319Y-68852242D01*
X75374500Y-68871500D01*
X75341362Y-68871500D01*
X75341359Y-68871500D01*
X75341345Y-68871501D01*
X75280803Y-68878009D01*
X75143791Y-68929113D01*
X75026740Y-69016737D01*
X75026737Y-69016740D01*
X74939113Y-69133791D01*
X74888009Y-69270803D01*
X74881501Y-69331345D01*
X74881500Y-69331365D01*
X74881500Y-71428634D01*
X74881501Y-71428654D01*
X74888009Y-71489196D01*
X74889870Y-71494186D01*
X74939111Y-71626204D01*
X74939112Y-71626205D01*
X74939113Y-71626208D01*
X75026737Y-71743259D01*
X75026740Y-71743262D01*
X75143791Y-71830886D01*
X75143792Y-71830886D01*
X75143796Y-71830889D01*
X75280799Y-71881989D01*
X75280802Y-71881989D01*
X75280804Y-71881990D01*
X75280802Y-71881990D01*
X75329065Y-71887178D01*
X75341362Y-71888500D01*
X75341365Y-71888500D01*
X77438635Y-71888500D01*
X77438638Y-71888500D01*
X77461479Y-71886044D01*
X77499196Y-71881990D01*
X77499197Y-71881989D01*
X77499201Y-71881989D01*
X77636204Y-71830889D01*
X77753261Y-71743261D01*
X77775248Y-71713888D01*
X77848681Y-71647927D01*
X77941773Y-71615084D01*
X78040347Y-71620366D01*
X78126494Y-71660828D01*
X78139368Y-71670182D01*
X78139370Y-71670183D01*
X78139373Y-71670185D01*
X78350937Y-71777982D01*
X78350942Y-71777983D01*
X78350943Y-71777984D01*
X78365427Y-71782690D01*
X78576759Y-71851356D01*
X78811278Y-71888500D01*
X78811280Y-71888500D01*
X79048720Y-71888500D01*
X79048722Y-71888500D01*
X79283241Y-71851356D01*
X79509063Y-71777982D01*
X79720627Y-71670185D01*
X79912722Y-71530620D01*
X80021102Y-71422240D01*
X80103181Y-71367396D01*
X80200000Y-71348138D01*
X80296819Y-71367396D01*
X80378898Y-71422240D01*
X80487279Y-71530621D01*
X80679369Y-71670182D01*
X80679373Y-71670185D01*
X80890937Y-71777982D01*
X80890942Y-71777983D01*
X80890943Y-71777984D01*
X80905427Y-71782690D01*
X81116759Y-71851356D01*
X81351278Y-71888500D01*
X81351280Y-71888500D01*
X81588720Y-71888500D01*
X81588722Y-71888500D01*
X81823241Y-71851356D01*
X82049063Y-71777982D01*
X82260627Y-71670185D01*
X82452722Y-71530620D01*
X82561102Y-71422240D01*
X82643181Y-71367396D01*
X82740000Y-71348138D01*
X82836819Y-71367396D01*
X82918898Y-71422240D01*
X83027279Y-71530621D01*
X83219369Y-71670182D01*
X83219373Y-71670185D01*
X83430937Y-71777982D01*
X83430942Y-71777983D01*
X83430943Y-71777984D01*
X83445427Y-71782690D01*
X83656759Y-71851356D01*
X83891278Y-71888500D01*
X83891280Y-71888500D01*
X84128720Y-71888500D01*
X84128722Y-71888500D01*
X84363241Y-71851356D01*
X84589063Y-71777982D01*
X84800627Y-71670185D01*
X84992722Y-71530620D01*
X85101102Y-71422240D01*
X85183181Y-71367396D01*
X85280000Y-71348138D01*
X85376819Y-71367396D01*
X85458898Y-71422240D01*
X85567279Y-71530621D01*
X85759369Y-71670182D01*
X85759373Y-71670185D01*
X85970937Y-71777982D01*
X85970942Y-71777983D01*
X85970943Y-71777984D01*
X85985427Y-71782690D01*
X86196759Y-71851356D01*
X86431278Y-71888500D01*
X86431280Y-71888500D01*
X86668720Y-71888500D01*
X86668722Y-71888500D01*
X86903241Y-71851356D01*
X87129063Y-71777982D01*
X87340627Y-71670185D01*
X87532722Y-71530620D01*
X87641456Y-71421886D01*
X87723535Y-71367042D01*
X87820354Y-71347784D01*
X87917173Y-71367042D01*
X87999252Y-71421886D01*
X88107603Y-71530237D01*
X88299636Y-71669756D01*
X88299641Y-71669759D01*
X88511124Y-71777515D01*
X88511131Y-71777518D01*
X88736877Y-71850868D01*
X88835999Y-71866567D01*
X88836000Y-71866567D01*
X88836000Y-70810702D01*
X88897007Y-70845925D01*
X89024174Y-70880000D01*
X89155826Y-70880000D01*
X89282993Y-70845925D01*
X89344000Y-70810702D01*
X89344000Y-71866567D01*
X89443122Y-71850868D01*
X89668868Y-71777518D01*
X89668875Y-71777515D01*
X89880358Y-71669759D01*
X89880363Y-71669756D01*
X90072396Y-71530237D01*
X90240237Y-71362396D01*
X90379756Y-71170363D01*
X90379759Y-71170358D01*
X90487515Y-70958875D01*
X90487518Y-70958868D01*
X90560867Y-70733124D01*
X90576568Y-70634000D01*
X89520703Y-70634000D01*
X89555925Y-70572993D01*
X89590000Y-70445826D01*
X89590000Y-70314174D01*
X89555925Y-70187007D01*
X89520703Y-70126000D01*
X90576567Y-70126000D01*
X90560867Y-70026875D01*
X90487518Y-69801131D01*
X90487515Y-69801124D01*
X90379759Y-69589641D01*
X90379756Y-69589636D01*
X90240237Y-69397603D01*
X90072396Y-69229762D01*
X89880363Y-69090243D01*
X89880358Y-69090240D01*
X89668875Y-68982484D01*
X89668868Y-68982481D01*
X89443124Y-68909132D01*
X89344000Y-68893432D01*
X89344000Y-69949297D01*
X89282993Y-69914075D01*
X89155826Y-69880000D01*
X89024174Y-69880000D01*
X88897007Y-69914075D01*
X88836000Y-69949297D01*
X88836000Y-68893432D01*
X88736875Y-68909132D01*
X88511131Y-68982481D01*
X88511124Y-68982484D01*
X88299641Y-69090240D01*
X88299636Y-69090243D01*
X88107603Y-69229762D01*
X87999252Y-69338114D01*
X87917173Y-69392958D01*
X87820354Y-69412216D01*
X87723535Y-69392958D01*
X87641456Y-69338114D01*
X87532720Y-69229378D01*
X87340629Y-69089816D01*
X87271910Y-69054802D01*
X87129063Y-68982018D01*
X87129059Y-68982017D01*
X87129056Y-68982015D01*
X86903242Y-68908644D01*
X86668723Y-68871500D01*
X86668722Y-68871500D01*
X86431278Y-68871500D01*
X86431276Y-68871500D01*
X86196757Y-68908644D01*
X85970943Y-68982015D01*
X85970937Y-68982017D01*
X85970937Y-68982018D01*
X85950300Y-68992532D01*
X85759370Y-69089816D01*
X85567279Y-69229378D01*
X85458898Y-69337760D01*
X85425721Y-69359927D01*
X85394333Y-69384554D01*
X85384935Y-69387180D01*
X85376819Y-69392604D01*
X85337683Y-69400388D01*
X85299261Y-69411128D01*
X85289571Y-69409958D01*
X85280000Y-69411862D01*
X85240866Y-69404078D01*
X85201257Y-69399296D01*
X85193804Y-69394717D01*
X85183181Y-69392604D01*
X85115241Y-69350861D01*
X85107924Y-69344582D01*
X84992722Y-69229380D01*
X84868510Y-69139135D01*
X84860741Y-69132468D01*
X84836473Y-69101536D01*
X84809782Y-69072662D01*
X84806197Y-69062946D01*
X84799808Y-69054802D01*
X84789223Y-69016936D01*
X84775615Y-68980047D01*
X84774322Y-68963623D01*
X84773234Y-68959730D01*
X84773707Y-68955809D01*
X84772500Y-68940469D01*
X84772500Y-67848619D01*
X84791758Y-67751800D01*
X84846602Y-67669721D01*
X84876790Y-67643938D01*
X84926224Y-67608022D01*
X84959004Y-67584206D01*
X85110206Y-67433004D01*
X85139627Y-67392508D01*
X85212114Y-67325501D01*
X85304728Y-67291332D01*
X85403368Y-67295207D01*
X85493016Y-67336534D01*
X85548988Y-67392505D01*
X85578171Y-67432670D01*
X85578177Y-67432678D01*
X85729320Y-67583821D01*
X85902257Y-67709468D01*
X86092708Y-67806507D01*
X86296004Y-67872561D01*
X86359999Y-67882697D01*
X86360000Y-67882697D01*
X86360000Y-66978702D01*
X86421007Y-67013925D01*
X86548174Y-67048000D01*
X86679826Y-67048000D01*
X86806993Y-67013925D01*
X86868000Y-66978702D01*
X86868000Y-67882697D01*
X86931995Y-67872561D01*
X87135291Y-67806507D01*
X87325742Y-67709468D01*
X87498679Y-67583821D01*
X87649821Y-67432679D01*
X87775468Y-67259742D01*
X87872507Y-67069291D01*
X87938561Y-66865996D01*
X87948698Y-66802000D01*
X87044703Y-66802000D01*
X87079925Y-66740993D01*
X87114000Y-66613826D01*
X87114000Y-66482174D01*
X87079925Y-66355007D01*
X87044703Y-66294000D01*
X87948698Y-66294000D01*
X87948698Y-66293999D01*
X87938561Y-66230003D01*
X87872507Y-66026708D01*
X87775468Y-65836257D01*
X87775465Y-65836252D01*
X87756544Y-65810209D01*
X87715216Y-65720561D01*
X87711341Y-65621921D01*
X87745509Y-65529307D01*
X87812517Y-65456818D01*
X87902165Y-65415490D01*
X87961226Y-65408500D01*
X92769362Y-65408500D01*
X92866181Y-65427758D01*
X92948260Y-65482602D01*
X93003104Y-65564681D01*
X93022362Y-65661500D01*
X93003104Y-65758319D01*
X92948260Y-65840398D01*
X92884221Y-65886925D01*
X92786202Y-65936867D01*
X92619569Y-66057932D01*
X92473932Y-66203569D01*
X92352867Y-66370202D01*
X92259368Y-66553705D01*
X92259365Y-66553712D01*
X92195720Y-66749591D01*
X92163500Y-66953017D01*
X92163500Y-67158982D01*
X92195720Y-67362408D01*
X92259365Y-67558287D01*
X92259368Y-67558294D01*
X92352867Y-67741797D01*
X92352870Y-67741801D01*
X92352871Y-67741803D01*
X92467799Y-67899988D01*
X92473932Y-67908430D01*
X92619569Y-68054067D01*
X92620810Y-68055127D01*
X92621484Y-68055982D01*
X92626599Y-68061097D01*
X92625993Y-68061702D01*
X92681924Y-68132650D01*
X92708720Y-68227659D01*
X92709500Y-68247510D01*
X92709500Y-74337099D01*
X92724863Y-74414332D01*
X92724863Y-74414336D01*
X92724864Y-74414336D01*
X92738803Y-74484413D01*
X92738804Y-74484418D01*
X92796281Y-74623178D01*
X92879727Y-74748065D01*
X94632929Y-76501267D01*
X94687773Y-76583346D01*
X94707031Y-76680165D01*
X94703916Y-76719741D01*
X94681500Y-76861271D01*
X94681500Y-77098726D01*
X94703916Y-77240256D01*
X94700040Y-77338896D01*
X94658712Y-77428544D01*
X94632929Y-77458731D01*
X93387727Y-78703934D01*
X93304281Y-78828821D01*
X93246803Y-78967584D01*
X93244831Y-78977500D01*
X93217500Y-79114900D01*
X93217500Y-81682894D01*
X93238308Y-81787500D01*
X93246286Y-81827606D01*
X93246804Y-81830211D01*
X93304282Y-81968974D01*
X93387727Y-82093859D01*
X94173470Y-82879602D01*
X94228314Y-82961681D01*
X94247572Y-83058500D01*
X94228314Y-83155319D01*
X94173470Y-83237398D01*
X94091391Y-83292242D01*
X93994572Y-83311500D01*
X92455500Y-83311500D01*
X92358681Y-83292242D01*
X92276602Y-83237398D01*
X92221758Y-83155319D01*
X92202500Y-83058500D01*
X92202500Y-82218794D01*
X92221758Y-82121975D01*
X92276602Y-82039896D01*
X92281817Y-82034681D01*
X92311068Y-82005430D01*
X92432129Y-81838803D01*
X92525634Y-81655290D01*
X92589280Y-81459408D01*
X92621500Y-81255981D01*
X92621500Y-81050019D01*
X92589280Y-80846592D01*
X92525634Y-80650710D01*
X92432129Y-80467197D01*
X92311068Y-80300570D01*
X92165430Y-80154932D01*
X91998803Y-80033871D01*
X91998801Y-80033870D01*
X91998797Y-80033867D01*
X91815294Y-79940368D01*
X91815293Y-79940367D01*
X91815290Y-79940366D01*
X91619408Y-79876720D01*
X91415982Y-79844500D01*
X91415981Y-79844500D01*
X91210019Y-79844500D01*
X91210017Y-79844500D01*
X91006591Y-79876720D01*
X90810712Y-79940365D01*
X90810705Y-79940368D01*
X90627202Y-80033867D01*
X90460569Y-80154932D01*
X90314932Y-80300569D01*
X90193867Y-80467202D01*
X90100368Y-80650705D01*
X90100365Y-80650712D01*
X90036720Y-80846591D01*
X90004500Y-81050017D01*
X90004500Y-81255982D01*
X90036720Y-81459408D01*
X90100365Y-81655287D01*
X90100368Y-81655294D01*
X90193867Y-81838797D01*
X90193870Y-81838801D01*
X90193871Y-81838803D01*
X90280274Y-81957727D01*
X90314932Y-82005430D01*
X90349398Y-82039896D01*
X90404242Y-82121975D01*
X90423500Y-82218794D01*
X90423500Y-83135206D01*
X90404242Y-83232025D01*
X90349398Y-83314104D01*
X90314932Y-83348569D01*
X90193867Y-83515202D01*
X90100368Y-83698705D01*
X90100365Y-83698712D01*
X90036720Y-83894591D01*
X90010898Y-84057626D01*
X90004500Y-84098019D01*
X90004500Y-84303981D01*
X90036720Y-84507408D01*
X90100366Y-84703290D01*
X90154555Y-84809643D01*
X90181350Y-84904650D01*
X90169747Y-85002681D01*
X90121513Y-85088810D01*
X90043990Y-85149925D01*
X89948980Y-85176720D01*
X89929130Y-85177500D01*
X89891530Y-85177500D01*
X89807351Y-85194244D01*
X89744214Y-85206803D01*
X89605452Y-85264280D01*
X89605452Y-85264281D01*
X89480566Y-85347726D01*
X86529731Y-88298560D01*
X86529724Y-88298568D01*
X86480380Y-88372418D01*
X86480379Y-88372420D01*
X86459947Y-88403000D01*
X86446282Y-88423451D01*
X86388803Y-88562217D01*
X86359500Y-88709530D01*
X86359500Y-88762766D01*
X86348177Y-88799331D01*
X86342547Y-88809718D01*
X86340242Y-88821309D01*
X86319190Y-88852813D01*
X86301140Y-88886120D01*
X86291962Y-88893563D01*
X86285398Y-88903388D01*
X86270810Y-88916873D01*
X86269569Y-88917932D01*
X86123932Y-89063569D01*
X86106682Y-89087313D01*
X86034193Y-89154322D01*
X85941579Y-89188489D01*
X85842939Y-89184614D01*
X85753291Y-89143286D01*
X85697318Y-89087313D01*
X85680067Y-89063569D01*
X85534430Y-88917932D01*
X85463463Y-88866372D01*
X85367803Y-88796871D01*
X85367801Y-88796870D01*
X85367797Y-88796867D01*
X85184294Y-88703368D01*
X85184293Y-88703367D01*
X85184290Y-88703366D01*
X84988408Y-88639720D01*
X84784981Y-88607500D01*
X84784980Y-88607500D01*
X84784974Y-88607499D01*
X84775869Y-88606782D01*
X84680861Y-88579983D01*
X84603340Y-88518865D01*
X84555109Y-88432734D01*
X84543511Y-88334702D01*
X84570310Y-88239694D01*
X84616830Y-88175667D01*
X84691068Y-88101430D01*
X84812129Y-87934803D01*
X84905634Y-87751290D01*
X84969280Y-87555408D01*
X85001500Y-87351981D01*
X85001500Y-87146019D01*
X84969280Y-86942592D01*
X84905634Y-86746710D01*
X84812129Y-86563197D01*
X84691068Y-86396570D01*
X84545430Y-86250932D01*
X84544190Y-86249873D01*
X84543515Y-86249017D01*
X84538401Y-86243903D01*
X84539006Y-86243297D01*
X84483076Y-86172350D01*
X84456280Y-86077341D01*
X84455500Y-86057490D01*
X84455500Y-85392510D01*
X84474758Y-85295691D01*
X84529602Y-85213612D01*
X84544190Y-85200127D01*
X84545422Y-85199073D01*
X84545430Y-85199068D01*
X84691068Y-85053430D01*
X84812129Y-84886803D01*
X84905634Y-84703290D01*
X84969280Y-84507408D01*
X85001500Y-84303981D01*
X85001500Y-84098019D01*
X84969280Y-83894592D01*
X84905634Y-83698710D01*
X84853855Y-83597088D01*
X84812132Y-83515202D01*
X84812130Y-83515199D01*
X84812129Y-83515197D01*
X84691068Y-83348570D01*
X84545430Y-83202932D01*
X84378803Y-83081871D01*
X84378801Y-83081870D01*
X84378797Y-83081867D01*
X84195294Y-82988368D01*
X84195293Y-82988367D01*
X84195290Y-82988366D01*
X84195287Y-82988365D01*
X83999412Y-82924721D01*
X83992288Y-82923011D01*
X83902639Y-82881685D01*
X83835629Y-82809197D01*
X83801460Y-82716584D01*
X83805333Y-82617944D01*
X83846659Y-82528295D01*
X83919147Y-82461285D01*
X83992288Y-82430989D01*
X83999395Y-82429282D01*
X83999408Y-82429280D01*
X84195290Y-82365634D01*
X84378803Y-82272129D01*
X84545430Y-82151068D01*
X84691068Y-82005430D01*
X84812129Y-81838803D01*
X84905634Y-81655290D01*
X84969280Y-81459408D01*
X85001500Y-81255981D01*
X85001500Y-81050019D01*
X84969280Y-80846592D01*
X84905634Y-80650710D01*
X84812129Y-80467197D01*
X84691068Y-80300570D01*
X84545430Y-80154932D01*
X84378803Y-80033871D01*
X84378801Y-80033870D01*
X84378797Y-80033867D01*
X84195294Y-79940368D01*
X84195293Y-79940367D01*
X84195290Y-79940366D01*
X83999408Y-79876720D01*
X83795982Y-79844500D01*
X83795981Y-79844500D01*
X83590019Y-79844500D01*
X83590017Y-79844500D01*
X83386591Y-79876720D01*
X83190712Y-79940365D01*
X83190705Y-79940368D01*
X83007202Y-80033867D01*
X82840569Y-80154932D01*
X82694932Y-80300569D01*
X82573867Y-80467202D01*
X82480368Y-80650705D01*
X82480365Y-80650712D01*
X82416720Y-80846591D01*
X82382945Y-81059837D01*
X82381068Y-81059539D01*
X82357997Y-81141353D01*
X82296885Y-81218878D01*
X82210757Y-81267115D01*
X82132569Y-81279500D01*
X76716366Y-81279500D01*
X76619547Y-81260242D01*
X76537468Y-81205398D01*
X76482624Y-81123319D01*
X76479328Y-81114941D01*
X76434889Y-80995796D01*
X76434887Y-80995794D01*
X76434887Y-80995792D01*
X76347262Y-80878740D01*
X76347259Y-80878737D01*
X76230208Y-80791113D01*
X76230205Y-80791112D01*
X76230204Y-80791111D01*
X76093201Y-80740011D01*
X76093200Y-80740010D01*
X76093195Y-80740009D01*
X76093197Y-80740009D01*
X76032654Y-80733501D01*
X76032640Y-80733500D01*
X76032638Y-80733500D01*
X74335362Y-80733500D01*
X74335359Y-80733500D01*
X74335345Y-80733501D01*
X74274803Y-80740009D01*
X74137791Y-80791113D01*
X74020740Y-80878737D01*
X74020737Y-80878740D01*
X73933113Y-80995791D01*
X73882009Y-81132804D01*
X73878370Y-81148205D01*
X73875105Y-81147433D01*
X73853707Y-81215729D01*
X73790390Y-81291464D01*
X73702911Y-81337203D01*
X73604586Y-81345985D01*
X73510386Y-81316470D01*
X73434651Y-81253153D01*
X73426994Y-81243147D01*
X73388071Y-81189573D01*
X73242430Y-81043932D01*
X73190506Y-81006207D01*
X73075803Y-80922871D01*
X73075801Y-80922870D01*
X73075797Y-80922867D01*
X72892294Y-80829368D01*
X72892293Y-80829367D01*
X72892290Y-80829366D01*
X72834226Y-80810500D01*
X72696408Y-80765720D01*
X72492982Y-80733500D01*
X72492981Y-80733500D01*
X72287019Y-80733500D01*
X72285393Y-80733628D01*
X72284312Y-80733500D01*
X72277079Y-80733500D01*
X72277079Y-80732643D01*
X72187361Y-80722025D01*
X72101232Y-80673791D01*
X72086644Y-80660306D01*
X70574065Y-79147727D01*
X70449178Y-79064281D01*
X70310415Y-79006803D01*
X70261308Y-78997035D01*
X70163100Y-78977500D01*
X70163096Y-78977500D01*
X67756643Y-78977500D01*
X67659824Y-78958242D01*
X67577745Y-78903398D01*
X67522901Y-78821319D01*
X67503643Y-78724500D01*
X67522901Y-78627681D01*
X67551962Y-78575790D01*
X67591218Y-78521758D01*
X67641894Y-78452009D01*
X67738972Y-78261483D01*
X67805049Y-78058116D01*
X67838500Y-77846916D01*
X67838500Y-77633084D01*
X67805049Y-77421884D01*
X67738972Y-77218517D01*
X67738970Y-77218514D01*
X67738970Y-77218512D01*
X67738967Y-77218506D01*
X67641899Y-77028000D01*
X67641892Y-77027988D01*
X67540390Y-76888283D01*
X67499061Y-76798635D01*
X67495186Y-76699995D01*
X67529353Y-76607381D01*
X67540391Y-76590861D01*
X67641467Y-76451744D01*
X67641468Y-76451742D01*
X67738507Y-76261291D01*
X67804561Y-76057996D01*
X67814698Y-75994000D01*
X66760703Y-75994000D01*
X66795925Y-75932993D01*
X66830000Y-75805826D01*
X66830000Y-75674174D01*
X66795925Y-75547007D01*
X66760703Y-75486000D01*
X67814698Y-75486000D01*
X67814698Y-75485999D01*
X67811597Y-75466421D01*
X67771127Y-75318174D01*
X67768081Y-75274831D01*
X67762976Y-75231695D01*
X67764636Y-75225805D01*
X67764208Y-75219701D01*
X67777977Y-75178502D01*
X67789771Y-75136686D01*
X67793560Y-75131879D01*
X67794490Y-75129096D01*
X67737045Y-75112895D01*
X67659523Y-75051780D01*
X67647226Y-75036181D01*
X67515824Y-74855323D01*
X67364679Y-74704178D01*
X67191742Y-74578531D01*
X67001291Y-74481492D01*
X66797996Y-74415438D01*
X66586878Y-74382000D01*
X66584000Y-74382000D01*
X66584000Y-75309297D01*
X66522993Y-75274075D01*
X66395826Y-75240000D01*
X66264174Y-75240000D01*
X66137007Y-75274075D01*
X66076000Y-75309297D01*
X66076000Y-74382000D01*
X66073121Y-74382000D01*
X65862003Y-74415438D01*
X65658708Y-74481492D01*
X65468257Y-74578531D01*
X65295320Y-74704178D01*
X65144178Y-74855320D01*
X65018531Y-75028257D01*
X64921492Y-75218708D01*
X64855438Y-75422003D01*
X64845301Y-75485999D01*
X64845302Y-75486000D01*
X65899297Y-75486000D01*
X65864075Y-75547007D01*
X65830000Y-75674174D01*
X65830000Y-75805826D01*
X65864075Y-75932993D01*
X65899297Y-75994000D01*
X64845302Y-75994000D01*
X64855438Y-76057996D01*
X64921492Y-76261291D01*
X65018531Y-76451742D01*
X65018535Y-76451749D01*
X65108657Y-76575790D01*
X65149985Y-76665438D01*
X65153861Y-76764077D01*
X65119694Y-76856691D01*
X65052686Y-76929181D01*
X64963038Y-76970509D01*
X64903976Y-76977500D01*
X61269634Y-76977500D01*
X61172815Y-76958242D01*
X61090736Y-76903398D01*
X60895602Y-76708264D01*
X60840758Y-76626185D01*
X60821500Y-76529366D01*
X60821500Y-76163365D01*
X60821498Y-76163345D01*
X60814990Y-76102803D01*
X60814989Y-76102799D01*
X60763889Y-75965796D01*
X60763886Y-75965792D01*
X60763886Y-75965791D01*
X60676262Y-75848741D01*
X60676263Y-75848741D01*
X60676261Y-75848739D01*
X60559204Y-75761111D01*
X60511360Y-75743266D01*
X60499809Y-75737560D01*
X60470692Y-75715187D01*
X60439458Y-75695893D01*
X60431849Y-75685341D01*
X60421532Y-75677414D01*
X60403192Y-75645601D01*
X60381721Y-75615824D01*
X60378729Y-75603163D01*
X60372231Y-75591891D01*
X60367462Y-75555486D01*
X60359019Y-75519754D01*
X60361100Y-75506909D01*
X60359411Y-75494011D01*
X60368936Y-75458555D01*
X60374810Y-75422309D01*
X60381647Y-75411240D01*
X60385023Y-75398676D01*
X60407395Y-75369559D01*
X60426690Y-75338325D01*
X60432933Y-75331854D01*
X60522930Y-75241858D01*
X60639366Y-75081598D01*
X60729298Y-74905097D01*
X60790512Y-74716700D01*
X60821500Y-74521046D01*
X60821500Y-74322954D01*
X60820883Y-74319056D01*
X68034000Y-74319056D01*
X68034000Y-74524943D01*
X68066207Y-74728291D01*
X68092525Y-74809292D01*
X68104127Y-74907324D01*
X68077331Y-75002333D01*
X68072122Y-75008940D01*
X68088238Y-75014326D01*
X68130055Y-75026120D01*
X68134861Y-75029909D01*
X68140665Y-75031849D01*
X68173460Y-75060338D01*
X68207578Y-75087234D01*
X68214435Y-75095932D01*
X68215189Y-75096587D01*
X68215598Y-75097407D01*
X68219878Y-75102836D01*
X68254415Y-75150372D01*
X68254416Y-75150372D01*
X68942000Y-74462788D01*
X68942000Y-74474661D01*
X68969259Y-74576394D01*
X69021920Y-74667606D01*
X69096394Y-74742080D01*
X69187606Y-74794741D01*
X69289339Y-74822000D01*
X69301210Y-74822000D01*
X68613625Y-75509583D01*
X68656457Y-75540701D01*
X68656462Y-75540704D01*
X68839904Y-75634172D01*
X69035710Y-75697793D01*
X69239056Y-75729999D01*
X69239060Y-75730000D01*
X69444940Y-75730000D01*
X69444943Y-75729999D01*
X69648289Y-75697793D01*
X69844098Y-75634172D01*
X70027541Y-75540702D01*
X70027541Y-75540701D01*
X70070373Y-75509583D01*
X69382790Y-74822000D01*
X69394661Y-74822000D01*
X69496394Y-74794741D01*
X69587606Y-74742080D01*
X69662080Y-74667606D01*
X69714741Y-74576394D01*
X69742000Y-74474661D01*
X69742000Y-74462790D01*
X70429583Y-75150373D01*
X70460701Y-75107541D01*
X70460702Y-75107541D01*
X70554172Y-74924098D01*
X70617794Y-74728284D01*
X70619990Y-74719140D01*
X70661317Y-74629491D01*
X70733805Y-74562482D01*
X70826419Y-74528313D01*
X70925058Y-74532188D01*
X71014707Y-74573515D01*
X71081716Y-74646003D01*
X71112010Y-74719140D01*
X71114205Y-74728284D01*
X71177827Y-74924095D01*
X71271295Y-75107537D01*
X71271298Y-75107542D01*
X71392311Y-75274103D01*
X71537896Y-75419688D01*
X71704457Y-75540701D01*
X71704462Y-75540704D01*
X71887908Y-75634174D01*
X72083697Y-75697790D01*
X72083709Y-75697793D01*
X72135999Y-75706073D01*
X72136000Y-75706073D01*
X72136000Y-74733686D01*
X72144394Y-74742080D01*
X72235606Y-74794741D01*
X72337339Y-74822000D01*
X72442661Y-74822000D01*
X72544394Y-74794741D01*
X72635606Y-74742080D01*
X72644000Y-74733686D01*
X72644000Y-75706073D01*
X72696290Y-75697793D01*
X72696302Y-75697790D01*
X72892091Y-75634174D01*
X72892092Y-75634174D01*
X73075537Y-75540704D01*
X73075542Y-75540701D01*
X73242103Y-75419688D01*
X73387688Y-75274103D01*
X73508701Y-75107542D01*
X73508704Y-75107537D01*
X73561575Y-75003773D01*
X73622689Y-74926250D01*
X73708818Y-74878015D01*
X73806850Y-74866412D01*
X73901859Y-74893207D01*
X73979382Y-74954321D01*
X74012425Y-75003773D01*
X74065295Y-75107537D01*
X74065298Y-75107542D01*
X74186311Y-75274103D01*
X74331896Y-75419688D01*
X74498457Y-75540701D01*
X74498462Y-75540704D01*
X74681908Y-75634174D01*
X74877697Y-75697790D01*
X74877709Y-75697793D01*
X74929999Y-75706073D01*
X74930000Y-75706073D01*
X74930000Y-74733686D01*
X74938394Y-74742080D01*
X75029606Y-74794741D01*
X75131339Y-74822000D01*
X75236661Y-74822000D01*
X75338394Y-74794741D01*
X75429606Y-74742080D01*
X75438000Y-74733686D01*
X75438000Y-75706073D01*
X75490290Y-75697793D01*
X75490302Y-75697790D01*
X75686091Y-75634174D01*
X75686092Y-75634174D01*
X75869537Y-75540704D01*
X75869542Y-75540701D01*
X76036103Y-75419688D01*
X76181688Y-75274103D01*
X76302701Y-75107542D01*
X76302704Y-75107537D01*
X76396172Y-74924095D01*
X76459793Y-74728289D01*
X76468075Y-74676000D01*
X75495686Y-74676000D01*
X75504080Y-74667606D01*
X75556741Y-74576394D01*
X75584000Y-74474661D01*
X75584000Y-74369339D01*
X75556741Y-74267606D01*
X75504080Y-74176394D01*
X75495686Y-74168000D01*
X76468075Y-74168000D01*
X76459793Y-74115710D01*
X76396172Y-73919904D01*
X76302704Y-73736462D01*
X76302701Y-73736457D01*
X76181688Y-73569896D01*
X76036103Y-73424311D01*
X75869542Y-73303298D01*
X75869537Y-73303295D01*
X75686095Y-73209827D01*
X75490289Y-73146206D01*
X75438000Y-73137924D01*
X75438000Y-74110314D01*
X75429606Y-74101920D01*
X75338394Y-74049259D01*
X75236661Y-74022000D01*
X75131339Y-74022000D01*
X75029606Y-74049259D01*
X74938394Y-74101920D01*
X74930000Y-74110314D01*
X74930000Y-73137924D01*
X74877710Y-73146206D01*
X74681904Y-73209827D01*
X74498462Y-73303295D01*
X74498457Y-73303298D01*
X74331896Y-73424311D01*
X74186311Y-73569896D01*
X74065298Y-73736457D01*
X74065292Y-73736467D01*
X74012424Y-73840227D01*
X73951310Y-73917750D01*
X73865181Y-73965984D01*
X73767150Y-73977587D01*
X73672140Y-73950791D01*
X73594617Y-73889677D01*
X73561576Y-73840227D01*
X73508707Y-73736467D01*
X73508701Y-73736457D01*
X73387688Y-73569896D01*
X73242103Y-73424311D01*
X73075542Y-73303298D01*
X73075537Y-73303295D01*
X72892095Y-73209827D01*
X72696289Y-73146206D01*
X72644000Y-73137924D01*
X72644000Y-74110314D01*
X72635606Y-74101920D01*
X72544394Y-74049259D01*
X72442661Y-74022000D01*
X72337339Y-74022000D01*
X72235606Y-74049259D01*
X72144394Y-74101920D01*
X72136000Y-74110314D01*
X72136000Y-73137924D01*
X72083710Y-73146206D01*
X71887904Y-73209827D01*
X71704462Y-73303295D01*
X71704457Y-73303298D01*
X71537896Y-73424311D01*
X71392311Y-73569896D01*
X71271298Y-73736457D01*
X71271295Y-73736462D01*
X71177827Y-73919904D01*
X71114207Y-74115708D01*
X71112010Y-74124862D01*
X71070682Y-74214510D01*
X70998193Y-74281519D01*
X70905578Y-74315686D01*
X70806939Y-74311811D01*
X70717291Y-74270483D01*
X70650282Y-74197994D01*
X70619990Y-74124862D01*
X70617792Y-74115708D01*
X70554172Y-73919904D01*
X70460704Y-73736462D01*
X70460701Y-73736457D01*
X70429583Y-73693625D01*
X69742000Y-74381208D01*
X69742000Y-74369339D01*
X69714741Y-74267606D01*
X69662080Y-74176394D01*
X69587606Y-74101920D01*
X69496394Y-74049259D01*
X69394661Y-74022000D01*
X69382788Y-74022000D01*
X70070372Y-73334416D01*
X70070372Y-73334415D01*
X70027541Y-73303297D01*
X69844095Y-73209827D01*
X69648289Y-73146206D01*
X69444943Y-73114000D01*
X69239056Y-73114000D01*
X69035710Y-73146206D01*
X68839901Y-73209828D01*
X68656462Y-73303295D01*
X68656456Y-73303299D01*
X68613625Y-73334415D01*
X69301210Y-74022000D01*
X69289339Y-74022000D01*
X69187606Y-74049259D01*
X69096394Y-74101920D01*
X69021920Y-74176394D01*
X68969259Y-74267606D01*
X68942000Y-74369339D01*
X68942000Y-74381210D01*
X68254415Y-73693625D01*
X68223299Y-73736456D01*
X68223295Y-73736462D01*
X68129828Y-73919901D01*
X68066206Y-74115710D01*
X68034000Y-74319056D01*
X60820883Y-74319056D01*
X60790512Y-74127300D01*
X60729298Y-73938903D01*
X60639366Y-73762402D01*
X60620519Y-73736462D01*
X60522930Y-73602142D01*
X60382859Y-73462071D01*
X60382851Y-73462064D01*
X60237803Y-73356681D01*
X60211826Y-73328580D01*
X60183444Y-73302905D01*
X60178549Y-73292581D01*
X60170794Y-73284192D01*
X60157548Y-73248287D01*
X60141153Y-73213708D01*
X60140581Y-73202297D01*
X60136627Y-73191578D01*
X60138129Y-73153336D01*
X60136215Y-73115116D01*
X60140053Y-73104355D01*
X60140502Y-73092939D01*
X60156524Y-73058184D01*
X60169383Y-73022139D01*
X60176963Y-73013849D01*
X60181831Y-73003291D01*
X60235607Y-72948932D01*
X60236669Y-72948142D01*
X60382858Y-72841930D01*
X60392296Y-72832491D01*
X60407179Y-72821432D01*
X60435343Y-72808078D01*
X60461265Y-72790758D01*
X60479541Y-72787122D01*
X60496376Y-72779141D01*
X60527508Y-72777581D01*
X60558084Y-72771500D01*
X62307206Y-72771500D01*
X62404025Y-72790758D01*
X62486104Y-72845602D01*
X62520570Y-72880068D01*
X62687197Y-73001129D01*
X62687199Y-73001130D01*
X62687202Y-73001132D01*
X62712161Y-73013849D01*
X62870710Y-73094634D01*
X63066592Y-73158280D01*
X63270019Y-73190500D01*
X63270021Y-73190500D01*
X63475979Y-73190500D01*
X63475981Y-73190500D01*
X63679408Y-73158280D01*
X63875290Y-73094634D01*
X64058803Y-73001129D01*
X64225430Y-72880068D01*
X64371068Y-72734430D01*
X64492129Y-72567803D01*
X64585634Y-72384290D01*
X64649280Y-72188408D01*
X64681500Y-71984981D01*
X64681500Y-71779019D01*
X64649280Y-71575592D01*
X64585634Y-71379710D01*
X64538881Y-71287953D01*
X64492132Y-71196202D01*
X64492130Y-71196199D01*
X64492129Y-71196197D01*
X64371068Y-71029570D01*
X64225430Y-70883932D01*
X64058803Y-70762871D01*
X64058801Y-70762870D01*
X64058797Y-70762867D01*
X63875294Y-70669368D01*
X63875293Y-70669367D01*
X63875290Y-70669366D01*
X63679408Y-70605720D01*
X63475982Y-70573500D01*
X63475981Y-70573500D01*
X63270019Y-70573500D01*
X63270017Y-70573500D01*
X63066591Y-70605720D01*
X62870712Y-70669365D01*
X62870705Y-70669368D01*
X62687202Y-70762867D01*
X62520569Y-70883932D01*
X62486104Y-70918398D01*
X62404025Y-70973242D01*
X62307206Y-70992500D01*
X60558084Y-70992500D01*
X60461265Y-70973242D01*
X60391844Y-70926856D01*
X60390418Y-70928527D01*
X60382857Y-70922069D01*
X60222600Y-70805635D01*
X60222593Y-70805631D01*
X60046101Y-70715704D01*
X60046100Y-70715703D01*
X60046097Y-70715702D01*
X60046094Y-70715701D01*
X59857698Y-70654487D01*
X59857699Y-70654487D01*
X59662049Y-70623500D01*
X59662046Y-70623500D01*
X59463954Y-70623500D01*
X59463950Y-70623500D01*
X59268300Y-70654487D01*
X59079905Y-70715701D01*
X59079898Y-70715704D01*
X58903406Y-70805631D01*
X58903399Y-70805635D01*
X58743142Y-70922069D01*
X58603069Y-71062142D01*
X58486635Y-71222399D01*
X58486634Y-71222402D01*
X58396702Y-71398901D01*
X58396701Y-71398904D01*
X58391254Y-71415666D01*
X58391247Y-71415688D01*
X58380325Y-71449303D01*
X58372735Y-71460664D01*
X58305683Y-71622542D01*
X58271500Y-71794392D01*
X58271500Y-71845356D01*
X58262212Y-71878683D01*
X58255251Y-71892448D01*
X58252242Y-71907580D01*
X58233162Y-71936133D01*
X58217668Y-71966778D01*
X58205967Y-71976833D01*
X58197398Y-71989659D01*
X57247455Y-72939602D01*
X57165376Y-72994446D01*
X57068557Y-73013704D01*
X56971738Y-72994446D01*
X56889659Y-72939602D01*
X56834815Y-72857523D01*
X56815557Y-72760704D01*
X56815557Y-71782687D01*
X56815555Y-71782667D01*
X56804829Y-71697273D01*
X56804828Y-71697271D01*
X56804828Y-71697267D01*
X56804825Y-71697260D01*
X56756020Y-71579435D01*
X56748871Y-71562175D01*
X56696057Y-71494188D01*
X55505817Y-70303946D01*
X55505816Y-70303945D01*
X55505815Y-70303944D01*
X55437825Y-70251129D01*
X55437826Y-70251129D01*
X55302739Y-70195174D01*
X55302727Y-70195171D01*
X55217325Y-70184444D01*
X55217312Y-70184443D01*
X55217310Y-70184443D01*
X54002683Y-70184443D01*
X54002680Y-70184443D01*
X54002667Y-70184444D01*
X53917273Y-70195170D01*
X53917261Y-70195173D01*
X53782180Y-70251126D01*
X53782175Y-70251129D01*
X53714186Y-70303944D01*
X52523944Y-71494184D01*
X52471129Y-71562174D01*
X52415174Y-71697260D01*
X52415171Y-71697272D01*
X52404444Y-71782674D01*
X52404443Y-71782694D01*
X52404443Y-72979443D01*
X52385185Y-73076262D01*
X52330341Y-73158341D01*
X52248262Y-73213185D01*
X52151443Y-73232443D01*
X50954683Y-73232443D01*
X50954680Y-73232443D01*
X50954667Y-73232444D01*
X50869273Y-73243170D01*
X50869261Y-73243173D01*
X50734180Y-73299126D01*
X50734175Y-73299129D01*
X50666186Y-73351944D01*
X49475944Y-74542184D01*
X49423129Y-74610174D01*
X49367174Y-74745260D01*
X49367171Y-74745272D01*
X49356444Y-74830674D01*
X49356443Y-74830694D01*
X49356443Y-76045312D01*
X49356444Y-76045332D01*
X49367170Y-76130726D01*
X49367173Y-76130738D01*
X49423126Y-76265819D01*
X49423127Y-76265821D01*
X49423129Y-76265825D01*
X49442821Y-76291174D01*
X49475944Y-76333813D01*
X50666184Y-77524055D01*
X50734174Y-77576870D01*
X50734173Y-77576870D01*
X50869260Y-77632825D01*
X50869262Y-77632825D01*
X50869266Y-77632827D01*
X50869270Y-77632827D01*
X50869272Y-77632828D01*
X50954674Y-77643555D01*
X50954690Y-77643557D01*
X50954694Y-77643557D01*
X52151443Y-77643557D01*
X52248262Y-77662815D01*
X52330341Y-77717659D01*
X52385185Y-77799738D01*
X52404443Y-77896557D01*
X52404443Y-79075443D01*
X52385185Y-79172262D01*
X52330341Y-79254341D01*
X52248262Y-79309185D01*
X52151443Y-79328443D01*
X50954683Y-79328443D01*
X50954680Y-79328443D01*
X50954667Y-79328444D01*
X50869273Y-79339170D01*
X50869261Y-79339173D01*
X50734180Y-79395126D01*
X50734175Y-79395129D01*
X50666186Y-79447944D01*
X49475944Y-80638184D01*
X49423129Y-80706174D01*
X49367174Y-80841260D01*
X49367171Y-80841272D01*
X49356444Y-80926674D01*
X49356443Y-80926694D01*
X49356443Y-82141312D01*
X49356444Y-82141332D01*
X49367170Y-82226726D01*
X49367173Y-82226738D01*
X49423126Y-82361819D01*
X49423127Y-82361821D01*
X49423129Y-82361825D01*
X49463076Y-82413248D01*
X49475944Y-82429813D01*
X50666184Y-83620055D01*
X50734174Y-83672870D01*
X50734173Y-83672870D01*
X50869260Y-83728825D01*
X50869262Y-83728825D01*
X50869266Y-83728827D01*
X50869270Y-83728827D01*
X50869272Y-83728828D01*
X50945558Y-83738410D01*
X50954690Y-83739557D01*
X50954694Y-83739557D01*
X52151443Y-83739557D01*
X52248262Y-83758815D01*
X52330341Y-83813659D01*
X52385185Y-83895738D01*
X52404443Y-83992557D01*
X52404443Y-85171943D01*
X52385185Y-85268762D01*
X52330341Y-85350841D01*
X52248262Y-85405685D01*
X52151443Y-85424943D01*
X50954716Y-85424943D01*
X50869394Y-85435662D01*
X50869386Y-85435663D01*
X50734433Y-85491562D01*
X50734427Y-85491565D01*
X50666514Y-85544323D01*
X50666514Y-85544324D01*
X50251024Y-85959814D01*
X51222840Y-86931630D01*
X51194900Y-86943204D01*
X51067966Y-87028018D01*
X50960018Y-87135966D01*
X50875204Y-87262900D01*
X50863630Y-87290840D01*
X49891814Y-86319024D01*
X49476324Y-86734514D01*
X49423562Y-86802433D01*
X49367662Y-86937389D01*
X49367660Y-86937398D01*
X49356945Y-87022704D01*
X49356943Y-87022725D01*
X49356943Y-88237283D01*
X49367662Y-88322605D01*
X49367663Y-88322613D01*
X49423562Y-88457566D01*
X49423565Y-88457572D01*
X49476323Y-88525485D01*
X49891813Y-88940975D01*
X50863630Y-87969157D01*
X50875204Y-87997100D01*
X50960018Y-88124034D01*
X51067966Y-88231982D01*
X51194900Y-88316796D01*
X51222839Y-88328368D01*
X50251024Y-89300184D01*
X50251024Y-89300185D01*
X50666514Y-89715675D01*
X50734433Y-89768437D01*
X50869389Y-89824337D01*
X50869398Y-89824339D01*
X50954704Y-89835054D01*
X50954725Y-89835056D01*
X52151443Y-89835056D01*
X52248262Y-89854314D01*
X52330341Y-89909158D01*
X52385185Y-89991237D01*
X52404443Y-90088056D01*
X52404443Y-91285312D01*
X52404444Y-91285332D01*
X52415170Y-91370726D01*
X52415171Y-91370731D01*
X52415172Y-91370733D01*
X52467088Y-91496070D01*
X52474595Y-91514192D01*
X52493853Y-91611011D01*
X52474595Y-91707830D01*
X52419751Y-91789909D01*
X51693279Y-92516381D01*
X51611200Y-92571225D01*
X51514381Y-92590483D01*
X51417562Y-92571225D01*
X51399522Y-92562908D01*
X51302294Y-92513368D01*
X51302293Y-92513367D01*
X51302290Y-92513366D01*
X51106408Y-92449720D01*
X50902982Y-92417500D01*
X50902981Y-92417500D01*
X50697019Y-92417500D01*
X50697017Y-92417500D01*
X50493591Y-92449720D01*
X50297712Y-92513365D01*
X50297705Y-92513368D01*
X50114202Y-92606867D01*
X49947569Y-92727932D01*
X49801932Y-92873569D01*
X49680867Y-93040202D01*
X49587368Y-93223705D01*
X49587365Y-93223712D01*
X49523720Y-93419591D01*
X49491500Y-93623017D01*
X49491500Y-93828982D01*
X49523720Y-94032408D01*
X49587365Y-94228287D01*
X49587368Y-94228294D01*
X49680867Y-94411797D01*
X49680870Y-94411801D01*
X49680871Y-94411803D01*
X49777909Y-94545365D01*
X49801932Y-94578430D01*
X49947569Y-94724067D01*
X49948810Y-94725127D01*
X49949484Y-94725982D01*
X49954599Y-94731097D01*
X49953993Y-94731702D01*
X50009924Y-94802650D01*
X50036720Y-94897659D01*
X50037500Y-94917510D01*
X50037500Y-95455490D01*
X50018242Y-95552309D01*
X49963398Y-95634388D01*
X49948810Y-95647873D01*
X49947569Y-95648932D01*
X49801932Y-95794569D01*
X49680867Y-95961202D01*
X49587368Y-96144705D01*
X49587365Y-96144712D01*
X49523720Y-96340591D01*
X49491500Y-96544017D01*
X49491500Y-96749982D01*
X49523720Y-96953408D01*
X49587365Y-97149287D01*
X49587368Y-97149294D01*
X49680867Y-97332797D01*
X49680870Y-97332801D01*
X49680871Y-97332803D01*
X49801932Y-97499430D01*
X49947570Y-97645068D01*
X50114197Y-97766129D01*
X50114199Y-97766130D01*
X50114202Y-97766132D01*
X50144572Y-97781606D01*
X50297710Y-97859634D01*
X50409131Y-97895837D01*
X50415428Y-97897883D01*
X50501557Y-97946118D01*
X50562671Y-98023641D01*
X50589466Y-98118651D01*
X50577863Y-98216682D01*
X50529628Y-98302811D01*
X50452105Y-98363925D01*
X50357095Y-98390720D01*
X50337246Y-98391500D01*
X48961500Y-98391500D01*
X48864681Y-98372242D01*
X48782602Y-98317398D01*
X48727758Y-98235319D01*
X48708500Y-98138500D01*
X48708500Y-65661500D01*
X48727758Y-65564681D01*
X48782602Y-65482602D01*
X48864681Y-65427758D01*
X48961500Y-65408500D01*
X74842500Y-65408500D01*
X74939319Y-65427758D01*
G37*
G04 #@! TD.AperFunction*
G04 #@! TA.AperFunction,Conductor*
G36*
X57758916Y-82911900D02*
G01*
X57840995Y-82966743D01*
X57887521Y-83030781D01*
X57978628Y-83209588D01*
X57978635Y-83209600D01*
X58095069Y-83369857D01*
X58235142Y-83509930D01*
X58380621Y-83615627D01*
X58447629Y-83688116D01*
X58481796Y-83780731D01*
X58477920Y-83879370D01*
X58436592Y-83969018D01*
X58380615Y-84024993D01*
X58362422Y-84038210D01*
X58362421Y-84038211D01*
X59014210Y-84690000D01*
X59002339Y-84690000D01*
X58900606Y-84717259D01*
X58809394Y-84769920D01*
X58734920Y-84844394D01*
X58682259Y-84935606D01*
X58655000Y-85037339D01*
X58655000Y-85049210D01*
X58003211Y-84397421D01*
X57979062Y-84430663D01*
X57889168Y-84607090D01*
X57827975Y-84795419D01*
X57797000Y-84990991D01*
X57797000Y-85189008D01*
X57827975Y-85384580D01*
X57889168Y-85572909D01*
X57979058Y-85749330D01*
X58003212Y-85782576D01*
X58655000Y-85130788D01*
X58655000Y-85142661D01*
X58682259Y-85244394D01*
X58734920Y-85335606D01*
X58809394Y-85410080D01*
X58900606Y-85462741D01*
X59002339Y-85490000D01*
X59014210Y-85490000D01*
X58362422Y-86141787D01*
X58395657Y-86165933D01*
X58572093Y-86255832D01*
X58760419Y-86317024D01*
X58955991Y-86347999D01*
X58955995Y-86348000D01*
X59154005Y-86348000D01*
X59154008Y-86347999D01*
X59349580Y-86317024D01*
X59537909Y-86255831D01*
X59714337Y-86165937D01*
X59747576Y-86141787D01*
X59747577Y-86141787D01*
X59095790Y-85490000D01*
X59107661Y-85490000D01*
X59209394Y-85462741D01*
X59300606Y-85410080D01*
X59375080Y-85335606D01*
X59427741Y-85244394D01*
X59455000Y-85142661D01*
X59455000Y-85130790D01*
X60106787Y-85782577D01*
X60106787Y-85782576D01*
X60130937Y-85749337D01*
X60220831Y-85572909D01*
X60282024Y-85384580D01*
X60312999Y-85189008D01*
X60313000Y-85189005D01*
X60313000Y-84990995D01*
X60312999Y-84990991D01*
X60282024Y-84795419D01*
X60220832Y-84607093D01*
X60130933Y-84430657D01*
X60106787Y-84397422D01*
X59455000Y-85049209D01*
X59455000Y-85037339D01*
X59427741Y-84935606D01*
X59375080Y-84844394D01*
X59300606Y-84769920D01*
X59209394Y-84717259D01*
X59107661Y-84690000D01*
X59095788Y-84690000D01*
X59747577Y-84038212D01*
X59729382Y-84024994D01*
X59709037Y-84002986D01*
X59685527Y-83984411D01*
X59675847Y-83967082D01*
X59662372Y-83952506D01*
X59651999Y-83924392D01*
X59637385Y-83898230D01*
X59635073Y-83878514D01*
X59628203Y-83859893D01*
X59629378Y-83829948D01*
X59625889Y-83800186D01*
X59631297Y-83781089D01*
X59632076Y-83761253D01*
X59644622Y-83734035D01*
X59652787Y-83705206D01*
X59663908Y-83692198D01*
X59673402Y-83671604D01*
X59713985Y-83627749D01*
X59721446Y-83621390D01*
X59874858Y-83509930D01*
X60005308Y-83379479D01*
X60012982Y-83372940D01*
X60047439Y-83353691D01*
X60080265Y-83331758D01*
X60090263Y-83329769D01*
X60099163Y-83324798D01*
X60138365Y-83320201D01*
X60177084Y-83312500D01*
X60793366Y-83312500D01*
X60890185Y-83331758D01*
X60972264Y-83386602D01*
X61991306Y-84405644D01*
X62046150Y-84487723D01*
X62065408Y-84584542D01*
X62064628Y-84604393D01*
X62064500Y-84606019D01*
X62064500Y-84811982D01*
X62096720Y-85015408D01*
X62160365Y-85211287D01*
X62160368Y-85211294D01*
X62253867Y-85394797D01*
X62253870Y-85394801D01*
X62253871Y-85394803D01*
X62374932Y-85561430D01*
X62520570Y-85707068D01*
X62687197Y-85828129D01*
X62687199Y-85828130D01*
X62687202Y-85828132D01*
X62687206Y-85828134D01*
X62721627Y-85845673D01*
X62799150Y-85906787D01*
X62847385Y-85992916D01*
X62858987Y-86090948D01*
X62832191Y-86185957D01*
X62785665Y-86249995D01*
X61114614Y-87921046D01*
X61032535Y-87975890D01*
X60935716Y-87995148D01*
X60838897Y-87975890D01*
X60756818Y-87921046D01*
X60701974Y-87838967D01*
X60695098Y-87820328D01*
X60648172Y-87675904D01*
X60554704Y-87492462D01*
X60554701Y-87492457D01*
X60523583Y-87449625D01*
X59836000Y-88137209D01*
X59836000Y-88125339D01*
X59808741Y-88023606D01*
X59756080Y-87932394D01*
X59681606Y-87857920D01*
X59590394Y-87805259D01*
X59488661Y-87778000D01*
X59476788Y-87778000D01*
X60164372Y-87090416D01*
X60164372Y-87090415D01*
X60121541Y-87059297D01*
X59938095Y-86965827D01*
X59742289Y-86902206D01*
X59538943Y-86870000D01*
X59333056Y-86870000D01*
X59129710Y-86902206D01*
X58933901Y-86965828D01*
X58750462Y-87059295D01*
X58750456Y-87059299D01*
X58707625Y-87090415D01*
X59395210Y-87778000D01*
X59383339Y-87778000D01*
X59281606Y-87805259D01*
X59190394Y-87857920D01*
X59115920Y-87932394D01*
X59063259Y-88023606D01*
X59036000Y-88125339D01*
X59036000Y-88137210D01*
X58348415Y-87449625D01*
X58317299Y-87492456D01*
X58317295Y-87492462D01*
X58223828Y-87675901D01*
X58160206Y-87871710D01*
X58128000Y-88075056D01*
X58128000Y-88280943D01*
X58160206Y-88484289D01*
X58223827Y-88680095D01*
X58317297Y-88863541D01*
X58348415Y-88906372D01*
X59036000Y-88218787D01*
X59036000Y-88230661D01*
X59063259Y-88332394D01*
X59115920Y-88423606D01*
X59190394Y-88498080D01*
X59281606Y-88550741D01*
X59383339Y-88578000D01*
X59395210Y-88578000D01*
X58668790Y-89304418D01*
X58638820Y-89324443D01*
X58611163Y-89347562D01*
X58598095Y-89351654D01*
X58586711Y-89359262D01*
X58516960Y-89377068D01*
X58513791Y-89377409D01*
X58503121Y-89376455D01*
X58464206Y-89399356D01*
X58389796Y-89427111D01*
X58389791Y-89427113D01*
X58272740Y-89514737D01*
X58272737Y-89514740D01*
X58185113Y-89631791D01*
X58134009Y-89768803D01*
X58127501Y-89829345D01*
X58127500Y-89829365D01*
X58127500Y-90803366D01*
X58119081Y-90845690D01*
X58112790Y-90888376D01*
X58109582Y-90893446D01*
X58108242Y-90900185D01*
X58062119Y-90973095D01*
X58057868Y-90977793D01*
X57827727Y-91207935D01*
X57776023Y-91285317D01*
X57765723Y-91300731D01*
X57765722Y-91300733D01*
X57744280Y-91332822D01*
X57686803Y-91471584D01*
X57674106Y-91535416D01*
X57657500Y-91618900D01*
X57657500Y-91618903D01*
X57657500Y-92193633D01*
X57638242Y-92290452D01*
X57583398Y-92372531D01*
X57501319Y-92427375D01*
X57492917Y-92430680D01*
X57373793Y-92475111D01*
X57256740Y-92562737D01*
X57256737Y-92562740D01*
X57169113Y-92679791D01*
X57118009Y-92816803D01*
X57111501Y-92877345D01*
X57111500Y-92877365D01*
X57111500Y-94574634D01*
X57111501Y-94574654D01*
X57118009Y-94635196D01*
X57118011Y-94635201D01*
X57169111Y-94772204D01*
X57169112Y-94772205D01*
X57169113Y-94772208D01*
X57256737Y-94889259D01*
X57256740Y-94889262D01*
X57373791Y-94976886D01*
X57373792Y-94976886D01*
X57373796Y-94976889D01*
X57510799Y-95027989D01*
X57510802Y-95027989D01*
X57510804Y-95027990D01*
X57510802Y-95027990D01*
X57559065Y-95033178D01*
X57571362Y-95034500D01*
X57571365Y-95034500D01*
X57648671Y-95034500D01*
X57745490Y-95053758D01*
X57827569Y-95108602D01*
X57882413Y-95190681D01*
X57901671Y-95287500D01*
X57882413Y-95384319D01*
X57827569Y-95466398D01*
X57763529Y-95512925D01*
X57734206Y-95527865D01*
X57734202Y-95527867D01*
X57567569Y-95648932D01*
X57421932Y-95794569D01*
X57300867Y-95961202D01*
X57207368Y-96144705D01*
X57207365Y-96144712D01*
X57143720Y-96340591D01*
X57111500Y-96544017D01*
X57111500Y-96749982D01*
X57143720Y-96953408D01*
X57207365Y-97149287D01*
X57207368Y-97149294D01*
X57300867Y-97332797D01*
X57300870Y-97332801D01*
X57300871Y-97332803D01*
X57421932Y-97499430D01*
X57567570Y-97645068D01*
X57734197Y-97766129D01*
X57734199Y-97766130D01*
X57734202Y-97766132D01*
X57764572Y-97781606D01*
X57917710Y-97859634D01*
X58029131Y-97895837D01*
X58035428Y-97897883D01*
X58121557Y-97946118D01*
X58182671Y-98023641D01*
X58209466Y-98118651D01*
X58197863Y-98216682D01*
X58149628Y-98302811D01*
X58072105Y-98363925D01*
X57977095Y-98390720D01*
X57957246Y-98391500D01*
X51262754Y-98391500D01*
X51165935Y-98372242D01*
X51083856Y-98317398D01*
X51029012Y-98235319D01*
X51009754Y-98138500D01*
X51029012Y-98041681D01*
X51083856Y-97959602D01*
X51165935Y-97904758D01*
X51184572Y-97897883D01*
X51189358Y-97896327D01*
X51302290Y-97859634D01*
X51485803Y-97766129D01*
X51652430Y-97645068D01*
X51798068Y-97499430D01*
X51919129Y-97332803D01*
X52012634Y-97149290D01*
X52076280Y-96953408D01*
X52108500Y-96749981D01*
X52108500Y-96544019D01*
X52076280Y-96340592D01*
X52012634Y-96144710D01*
X51955305Y-96032196D01*
X51919132Y-95961202D01*
X51919130Y-95961199D01*
X51919129Y-95961197D01*
X51798068Y-95794570D01*
X51652430Y-95648932D01*
X51651190Y-95647873D01*
X51650515Y-95647017D01*
X51645401Y-95641903D01*
X51646006Y-95641297D01*
X51590076Y-95570350D01*
X51563280Y-95475341D01*
X51562500Y-95455490D01*
X51562500Y-94917510D01*
X51581758Y-94820691D01*
X51624882Y-94751156D01*
X51641750Y-94731826D01*
X51652430Y-94724068D01*
X51798068Y-94578430D01*
X51909635Y-94424869D01*
X51917055Y-94416368D01*
X51938729Y-94399652D01*
X51967120Y-94372357D01*
X51984865Y-94360501D01*
X52048065Y-94318273D01*
X53498092Y-92868244D01*
X53580168Y-92813404D01*
X53676987Y-92794145D01*
X53773806Y-92813403D01*
X53773807Y-92813404D01*
X53782173Y-92816869D01*
X53782174Y-92816870D01*
X53849537Y-92844772D01*
X53917263Y-92872826D01*
X53917264Y-92872826D01*
X53917266Y-92872827D01*
X53917269Y-92872827D01*
X53917272Y-92872828D01*
X54002674Y-92883555D01*
X54002690Y-92883557D01*
X54002694Y-92883557D01*
X55217313Y-92883557D01*
X55217317Y-92883557D01*
X55266772Y-92877345D01*
X55302726Y-92872829D01*
X55302726Y-92872828D01*
X55302733Y-92872828D01*
X55437825Y-92816871D01*
X55505812Y-92764057D01*
X56696054Y-91573817D01*
X56748870Y-91505826D01*
X56796630Y-91390522D01*
X56804825Y-91370739D01*
X56804825Y-91370738D01*
X56804827Y-91370734D01*
X56815557Y-91285310D01*
X56815557Y-90070683D01*
X56804828Y-89985267D01*
X56748871Y-89850175D01*
X56696057Y-89782188D01*
X55505817Y-88591946D01*
X55505816Y-88591945D01*
X55505815Y-88591944D01*
X55437825Y-88539129D01*
X55437826Y-88539129D01*
X55302739Y-88483174D01*
X55302727Y-88483171D01*
X55217325Y-88472444D01*
X55217312Y-88472443D01*
X55217310Y-88472443D01*
X54020056Y-88472443D01*
X53923237Y-88453185D01*
X53841158Y-88398341D01*
X53786314Y-88316262D01*
X53767056Y-88219443D01*
X53767057Y-87186840D01*
X53767057Y-87040557D01*
X53786315Y-86943738D01*
X53841159Y-86861659D01*
X53923238Y-86806815D01*
X54020057Y-86787557D01*
X55217313Y-86787557D01*
X55217317Y-86787557D01*
X55259150Y-86782302D01*
X55302726Y-86776829D01*
X55302726Y-86776828D01*
X55302733Y-86776828D01*
X55437825Y-86720871D01*
X55505812Y-86668057D01*
X56696054Y-85477817D01*
X56748870Y-85409826D01*
X56804827Y-85274734D01*
X56806125Y-85264405D01*
X56815555Y-85189325D01*
X56815557Y-85189305D01*
X56815557Y-83974687D01*
X56815555Y-83974667D01*
X56804829Y-83889273D01*
X56804828Y-83889271D01*
X56804828Y-83889267D01*
X56798009Y-83872804D01*
X56778751Y-83775985D01*
X56798010Y-83679166D01*
X56852850Y-83597091D01*
X57483201Y-82966741D01*
X57565278Y-82911899D01*
X57662097Y-82892641D01*
X57758916Y-82911900D01*
G37*
G04 #@! TD.AperFunction*
G04 #@! TA.AperFunction,Conductor*
G36*
X82598309Y-84982758D02*
G01*
X82680388Y-85037602D01*
X82691520Y-85048734D01*
X82694932Y-85053430D01*
X82840570Y-85199068D01*
X82845265Y-85202479D01*
X82856398Y-85213612D01*
X82878406Y-85246548D01*
X82902924Y-85277650D01*
X82905653Y-85287326D01*
X82911242Y-85295691D01*
X82918970Y-85334543D01*
X82929720Y-85372659D01*
X82928538Y-85382646D01*
X82930500Y-85392510D01*
X82930500Y-86057490D01*
X82911242Y-86154309D01*
X82856398Y-86236388D01*
X82841810Y-86249873D01*
X82840569Y-86250932D01*
X82694932Y-86396569D01*
X82573867Y-86563202D01*
X82480368Y-86746705D01*
X82480365Y-86746712D01*
X82416720Y-86942591D01*
X82384500Y-87146017D01*
X82384500Y-87351982D01*
X82416720Y-87555408D01*
X82480365Y-87751287D01*
X82480368Y-87751294D01*
X82573867Y-87934797D01*
X82573870Y-87934801D01*
X82573871Y-87934803D01*
X82694932Y-88101430D01*
X82840570Y-88247068D01*
X83007197Y-88368129D01*
X83007199Y-88368130D01*
X83007202Y-88368132D01*
X83037572Y-88383606D01*
X83190710Y-88461634D01*
X83386592Y-88525280D01*
X83590019Y-88557500D01*
X83590031Y-88557500D01*
X83599118Y-88558216D01*
X83694127Y-88585011D01*
X83771651Y-88646124D01*
X83819886Y-88732253D01*
X83831489Y-88830285D01*
X83804694Y-88925294D01*
X83758168Y-88989333D01*
X83683932Y-89063568D01*
X83562867Y-89230202D01*
X83469368Y-89413705D01*
X83469365Y-89413712D01*
X83405720Y-89609591D01*
X83373500Y-89813017D01*
X83373500Y-90018982D01*
X83397407Y-90169922D01*
X83393532Y-90268561D01*
X83352204Y-90358209D01*
X83279714Y-90425218D01*
X83187100Y-90459385D01*
X83147522Y-90462500D01*
X81711634Y-90462500D01*
X81614815Y-90443242D01*
X81532736Y-90388398D01*
X81314602Y-90170264D01*
X81259758Y-90088185D01*
X81240500Y-89991366D01*
X81240500Y-89816957D01*
X81240499Y-89816950D01*
X81239876Y-89813019D01*
X81209512Y-89621300D01*
X81148298Y-89432903D01*
X81058366Y-89256402D01*
X80941930Y-89096142D01*
X80801858Y-88956070D01*
X80781082Y-88940975D01*
X80641600Y-88839635D01*
X80641593Y-88839631D01*
X80465101Y-88749704D01*
X80465100Y-88749703D01*
X80465097Y-88749702D01*
X80430772Y-88738549D01*
X80276698Y-88688487D01*
X80276699Y-88688487D01*
X80081049Y-88657500D01*
X80081046Y-88657500D01*
X79882954Y-88657500D01*
X79882950Y-88657500D01*
X79687300Y-88688487D01*
X79498905Y-88749701D01*
X79498898Y-88749704D01*
X79322406Y-88839631D01*
X79322399Y-88839635D01*
X79162142Y-88956069D01*
X79022069Y-89096142D01*
X78905635Y-89256399D01*
X78905631Y-89256406D01*
X78815704Y-89432898D01*
X78815701Y-89432905D01*
X78754487Y-89621300D01*
X78723500Y-89816950D01*
X78723500Y-90015049D01*
X78754487Y-90210699D01*
X78815701Y-90399094D01*
X78815704Y-90399101D01*
X78905631Y-90575593D01*
X78905635Y-90575600D01*
X79022069Y-90735857D01*
X79162142Y-90875930D01*
X79307197Y-90981319D01*
X79374205Y-91053808D01*
X79408372Y-91146423D01*
X79404496Y-91245062D01*
X79363168Y-91334710D01*
X79307197Y-91390681D01*
X79162142Y-91496069D01*
X79022069Y-91636142D01*
X78905635Y-91796399D01*
X78905631Y-91796406D01*
X78815704Y-91972898D01*
X78815701Y-91972905D01*
X78754487Y-92161300D01*
X78723500Y-92356950D01*
X78723500Y-92555049D01*
X78754487Y-92750699D01*
X78815701Y-92939094D01*
X78815704Y-92939101D01*
X78905631Y-93115593D01*
X78905635Y-93115600D01*
X79022069Y-93275857D01*
X79112427Y-93366215D01*
X79167271Y-93448294D01*
X79186529Y-93545113D01*
X79167271Y-93641932D01*
X79112427Y-93724011D01*
X79030348Y-93778855D01*
X79021946Y-93782160D01*
X78986040Y-93795552D01*
X78986034Y-93795555D01*
X78869097Y-93883094D01*
X78869094Y-93883097D01*
X78781555Y-94000034D01*
X78781552Y-94000040D01*
X78730505Y-94136903D01*
X78730503Y-94136910D01*
X78724000Y-94197394D01*
X78724000Y-94742000D01*
X79670314Y-94742000D01*
X79661920Y-94750394D01*
X79609259Y-94841606D01*
X79582000Y-94943339D01*
X79582000Y-95048661D01*
X79609259Y-95150394D01*
X79661920Y-95241606D01*
X79670314Y-95250000D01*
X78724000Y-95250000D01*
X78724000Y-95377500D01*
X78704742Y-95474319D01*
X78649898Y-95556398D01*
X78567819Y-95611242D01*
X78471000Y-95630500D01*
X77210226Y-95630500D01*
X77113407Y-95611242D01*
X77031328Y-95556398D01*
X76976484Y-95474319D01*
X76969609Y-95455682D01*
X76950217Y-95396000D01*
X76904634Y-95255710D01*
X76850973Y-95150394D01*
X76811132Y-95072202D01*
X76811130Y-95072199D01*
X76811129Y-95072197D01*
X76690068Y-94905570D01*
X76544430Y-94759932D01*
X76377803Y-94638871D01*
X76377801Y-94638870D01*
X76377797Y-94638867D01*
X76194294Y-94545368D01*
X76194293Y-94545367D01*
X76194290Y-94545366D01*
X75998408Y-94481720D01*
X75794982Y-94449500D01*
X75794981Y-94449500D01*
X75589019Y-94449500D01*
X75589017Y-94449500D01*
X75385591Y-94481720D01*
X75189712Y-94545365D01*
X75189705Y-94545368D01*
X75006202Y-94638867D01*
X74839569Y-94759932D01*
X74693932Y-94905570D01*
X74693931Y-94905570D01*
X74626681Y-94998133D01*
X74554192Y-95065141D01*
X74461578Y-95099308D01*
X74362938Y-95095433D01*
X74273290Y-95054104D01*
X74217319Y-94998133D01*
X74150068Y-94905570D01*
X74004430Y-94759932D01*
X73979749Y-94742000D01*
X73837803Y-94638871D01*
X73837801Y-94638870D01*
X73837797Y-94638867D01*
X73654294Y-94545368D01*
X73654293Y-94545367D01*
X73654290Y-94545366D01*
X73458408Y-94481720D01*
X73254982Y-94449500D01*
X73254981Y-94449500D01*
X73049019Y-94449500D01*
X73049017Y-94449500D01*
X72845591Y-94481720D01*
X72649712Y-94545365D01*
X72649705Y-94545368D01*
X72466202Y-94638867D01*
X72299569Y-94759932D01*
X72153932Y-94905570D01*
X72153931Y-94905570D01*
X72086681Y-94998133D01*
X72014192Y-95065141D01*
X71921578Y-95099308D01*
X71822938Y-95095433D01*
X71733290Y-95054104D01*
X71677319Y-94998133D01*
X71610068Y-94905570D01*
X71464430Y-94759932D01*
X71439749Y-94742000D01*
X71297803Y-94638871D01*
X71297801Y-94638870D01*
X71297797Y-94638867D01*
X71114294Y-94545368D01*
X71114293Y-94545367D01*
X71114290Y-94545366D01*
X70918408Y-94481720D01*
X70714982Y-94449500D01*
X70714981Y-94449500D01*
X70509019Y-94449500D01*
X70509017Y-94449500D01*
X70305591Y-94481720D01*
X70109712Y-94545365D01*
X70109705Y-94545368D01*
X69926202Y-94638867D01*
X69759569Y-94759932D01*
X69613932Y-94905570D01*
X69613931Y-94905570D01*
X69546681Y-94998133D01*
X69474192Y-95065141D01*
X69381578Y-95099308D01*
X69282938Y-95095433D01*
X69193290Y-95054104D01*
X69137319Y-94998133D01*
X69070068Y-94905570D01*
X68924430Y-94759932D01*
X68899749Y-94742000D01*
X68757803Y-94638871D01*
X68757801Y-94638870D01*
X68757797Y-94638867D01*
X68574294Y-94545368D01*
X68574293Y-94545367D01*
X68574290Y-94545366D01*
X68378408Y-94481720D01*
X68174982Y-94449500D01*
X68174981Y-94449500D01*
X67969019Y-94449500D01*
X67969017Y-94449500D01*
X67765591Y-94481720D01*
X67569712Y-94545365D01*
X67569705Y-94545368D01*
X67386202Y-94638867D01*
X67219569Y-94759932D01*
X67073932Y-94905569D01*
X66952867Y-95072202D01*
X66859368Y-95255705D01*
X66859365Y-95255712D01*
X66795720Y-95451591D01*
X66763500Y-95655017D01*
X66763500Y-95860982D01*
X66795720Y-96064408D01*
X66859365Y-96260287D01*
X66859368Y-96260294D01*
X66952867Y-96443797D01*
X66952870Y-96443801D01*
X66952871Y-96443803D01*
X67073932Y-96610430D01*
X67219570Y-96756068D01*
X67386197Y-96877129D01*
X67386199Y-96877130D01*
X67386202Y-96877132D01*
X67477953Y-96923881D01*
X67569710Y-96970634D01*
X67765592Y-97034280D01*
X67969019Y-97066500D01*
X67969021Y-97066500D01*
X68174979Y-97066500D01*
X68174981Y-97066500D01*
X68378408Y-97034280D01*
X68574290Y-96970634D01*
X68757803Y-96877129D01*
X68924430Y-96756068D01*
X69070068Y-96610430D01*
X69137319Y-96517865D01*
X69209807Y-96450859D01*
X69302421Y-96416691D01*
X69401060Y-96420566D01*
X69490709Y-96461894D01*
X69546679Y-96517864D01*
X69613932Y-96610430D01*
X69759570Y-96756068D01*
X69926197Y-96877129D01*
X69926199Y-96877130D01*
X69926202Y-96877132D01*
X70017953Y-96923881D01*
X70109710Y-96970634D01*
X70305592Y-97034280D01*
X70509019Y-97066500D01*
X70509021Y-97066500D01*
X70714979Y-97066500D01*
X70714981Y-97066500D01*
X70918408Y-97034280D01*
X71114290Y-96970634D01*
X71297803Y-96877129D01*
X71464430Y-96756068D01*
X71610068Y-96610430D01*
X71677319Y-96517865D01*
X71749807Y-96450859D01*
X71842421Y-96416691D01*
X71941060Y-96420566D01*
X72030709Y-96461894D01*
X72086679Y-96517864D01*
X72153932Y-96610430D01*
X72299570Y-96756068D01*
X72466197Y-96877129D01*
X72466199Y-96877130D01*
X72466202Y-96877132D01*
X72557953Y-96923881D01*
X72649710Y-96970634D01*
X72845592Y-97034280D01*
X73049019Y-97066500D01*
X73049021Y-97066500D01*
X73254979Y-97066500D01*
X73254981Y-97066500D01*
X73458408Y-97034280D01*
X73654290Y-96970634D01*
X73837803Y-96877129D01*
X74004430Y-96756068D01*
X74150068Y-96610430D01*
X74217319Y-96517865D01*
X74289807Y-96450859D01*
X74382421Y-96416691D01*
X74481060Y-96420566D01*
X74570709Y-96461894D01*
X74626679Y-96517864D01*
X74693932Y-96610430D01*
X74839570Y-96756068D01*
X75006197Y-96877129D01*
X75006199Y-96877130D01*
X75006202Y-96877132D01*
X75097953Y-96923881D01*
X75189710Y-96970634D01*
X75385592Y-97034280D01*
X75589019Y-97066500D01*
X75637761Y-97066500D01*
X75734580Y-97085758D01*
X75816659Y-97140602D01*
X75886978Y-97210921D01*
X75915098Y-97229710D01*
X76032664Y-97308265D01*
X76107206Y-97339141D01*
X76194536Y-97375315D01*
X76194538Y-97375315D01*
X76194542Y-97375317D01*
X76366392Y-97409500D01*
X76541609Y-97409500D01*
X81609878Y-97409500D01*
X81706693Y-97428757D01*
X81872498Y-97497436D01*
X82068884Y-97536500D01*
X82068888Y-97536500D01*
X82269112Y-97536500D01*
X82269116Y-97536500D01*
X82465502Y-97497436D01*
X82650493Y-97420810D01*
X82816981Y-97309567D01*
X82950875Y-97175672D01*
X83032951Y-97120831D01*
X83129770Y-97101572D01*
X83226589Y-97120830D01*
X83308668Y-97175673D01*
X83363512Y-97257752D01*
X83382771Y-97354571D01*
X83379656Y-97394149D01*
X83373500Y-97433014D01*
X83373500Y-97638982D01*
X83405720Y-97842408D01*
X83469364Y-98038284D01*
X83470770Y-98041677D01*
X83471248Y-98044081D01*
X83472438Y-98047743D01*
X83472004Y-98047883D01*
X83490030Y-98138495D01*
X83470773Y-98235315D01*
X83415931Y-98317395D01*
X83333853Y-98372240D01*
X83237035Y-98391500D01*
X58882754Y-98391500D01*
X58785935Y-98372242D01*
X58703856Y-98317398D01*
X58649012Y-98235319D01*
X58629754Y-98138500D01*
X58649012Y-98041681D01*
X58703856Y-97959602D01*
X58785935Y-97904758D01*
X58804572Y-97897883D01*
X58809358Y-97896327D01*
X58922290Y-97859634D01*
X59105803Y-97766129D01*
X59272430Y-97645068D01*
X59418068Y-97499430D01*
X59418073Y-97499422D01*
X59419127Y-97498190D01*
X59419982Y-97497515D01*
X59425097Y-97492401D01*
X59425702Y-97493006D01*
X59496650Y-97437076D01*
X59591659Y-97410280D01*
X59611510Y-97409500D01*
X61670096Y-97409500D01*
X61670100Y-97409500D01*
X61817413Y-97380197D01*
X61956179Y-97322718D01*
X61962682Y-97318372D01*
X61975865Y-97309565D01*
X62081061Y-97239276D01*
X62081065Y-97239273D01*
X62814736Y-96505602D01*
X62896815Y-96450758D01*
X62993634Y-96431500D01*
X63967635Y-96431500D01*
X63967638Y-96431500D01*
X63990479Y-96429044D01*
X64028196Y-96424990D01*
X64028197Y-96424989D01*
X64028201Y-96424989D01*
X64165204Y-96373889D01*
X64282261Y-96286261D01*
X64369889Y-96169204D01*
X64420989Y-96032201D01*
X64427500Y-95971638D01*
X64427500Y-94274362D01*
X64425986Y-94260287D01*
X64420990Y-94213803D01*
X64420989Y-94213799D01*
X64369889Y-94076796D01*
X64369886Y-94076792D01*
X64369886Y-94076791D01*
X64282262Y-93959740D01*
X64282259Y-93959737D01*
X64165207Y-93872112D01*
X64095475Y-93846103D01*
X64095471Y-93846101D01*
X64028201Y-93821011D01*
X64014679Y-93819557D01*
X63989304Y-93811220D01*
X63971718Y-93801295D01*
X63943835Y-93792562D01*
X63905846Y-93764121D01*
X63903334Y-93762703D01*
X63902457Y-93761583D01*
X63886208Y-93749418D01*
X63159790Y-93023000D01*
X63171661Y-93023000D01*
X63273394Y-92995741D01*
X63364606Y-92943080D01*
X63439080Y-92868606D01*
X63491741Y-92777394D01*
X63519000Y-92675661D01*
X63519000Y-92663790D01*
X64204534Y-93349324D01*
X64207389Y-93350262D01*
X64237701Y-93308541D01*
X64237702Y-93308541D01*
X64331172Y-93125098D01*
X64394793Y-92929289D01*
X64426999Y-92725943D01*
X64427000Y-92725940D01*
X64427000Y-92520060D01*
X64426999Y-92520056D01*
X64394793Y-92316710D01*
X64331172Y-92120904D01*
X64237704Y-91937462D01*
X64237701Y-91937457D01*
X64206583Y-91894625D01*
X63519000Y-92582208D01*
X63519000Y-92570339D01*
X63491741Y-92468606D01*
X63439080Y-92377394D01*
X63364606Y-92302920D01*
X63273394Y-92250259D01*
X63171661Y-92223000D01*
X63159788Y-92223000D01*
X63847372Y-91535416D01*
X63847372Y-91535415D01*
X63804541Y-91504297D01*
X63621095Y-91410827D01*
X63425289Y-91347206D01*
X63221943Y-91315000D01*
X63016056Y-91315000D01*
X62812710Y-91347206D01*
X62616901Y-91410828D01*
X62433462Y-91504295D01*
X62433456Y-91504299D01*
X62390625Y-91535415D01*
X63078210Y-92223000D01*
X63066339Y-92223000D01*
X62964606Y-92250259D01*
X62873394Y-92302920D01*
X62798920Y-92377394D01*
X62746259Y-92468606D01*
X62719000Y-92570339D01*
X62719000Y-92582210D01*
X62031415Y-91894625D01*
X62000299Y-91937456D01*
X62000295Y-91937462D01*
X61906828Y-92120901D01*
X61843206Y-92316710D01*
X61811000Y-92520056D01*
X61811000Y-92725943D01*
X61843206Y-92929289D01*
X61906827Y-93125095D01*
X62000297Y-93308541D01*
X62031415Y-93351372D01*
X62719000Y-92663787D01*
X62719000Y-92675661D01*
X62746259Y-92777394D01*
X62798920Y-92868606D01*
X62873394Y-92943080D01*
X62964606Y-92995741D01*
X63066339Y-93023000D01*
X63078210Y-93023000D01*
X62351790Y-93749418D01*
X62321820Y-93769443D01*
X62294163Y-93792562D01*
X62281095Y-93796654D01*
X62269711Y-93804262D01*
X62199960Y-93822068D01*
X62196791Y-93822409D01*
X62186121Y-93821455D01*
X62147206Y-93844356D01*
X62072796Y-93872111D01*
X62072791Y-93872113D01*
X61955740Y-93959737D01*
X61955737Y-93959740D01*
X61868113Y-94076791D01*
X61817009Y-94213803D01*
X61810501Y-94274345D01*
X61810500Y-94274365D01*
X61810500Y-95248366D01*
X61791242Y-95345185D01*
X61736398Y-95427264D01*
X61353264Y-95810398D01*
X61271185Y-95865242D01*
X61174366Y-95884500D01*
X59611510Y-95884500D01*
X59514691Y-95865242D01*
X59432612Y-95810398D01*
X59419127Y-95795810D01*
X59418067Y-95794569D01*
X59272430Y-95648932D01*
X59220551Y-95611240D01*
X59105803Y-95527871D01*
X59105801Y-95527870D01*
X59105797Y-95527867D01*
X59105793Y-95527865D01*
X59076471Y-95512925D01*
X58998947Y-95451812D01*
X58950712Y-95365683D01*
X58939109Y-95267651D01*
X58965904Y-95172642D01*
X59027017Y-95095118D01*
X59113146Y-95046883D01*
X59191329Y-95034500D01*
X59268635Y-95034500D01*
X59268638Y-95034500D01*
X59291479Y-95032044D01*
X59329196Y-95027990D01*
X59329197Y-95027989D01*
X59329201Y-95027989D01*
X59466204Y-94976889D01*
X59583261Y-94889261D01*
X59670889Y-94772204D01*
X59721989Y-94635201D01*
X59728500Y-94574638D01*
X59728500Y-92877362D01*
X59726986Y-92863287D01*
X59721990Y-92816803D01*
X59721989Y-92816799D01*
X59670889Y-92679796D01*
X59670886Y-92679792D01*
X59670886Y-92679791D01*
X59583262Y-92562740D01*
X59583259Y-92562737D01*
X59466205Y-92475111D01*
X59450328Y-92466442D01*
X59451177Y-92464886D01*
X59386070Y-92424667D01*
X59328333Y-92344597D01*
X59305632Y-92248527D01*
X59321424Y-92151082D01*
X59373304Y-92067099D01*
X59453374Y-92009362D01*
X59549444Y-91986661D01*
X59558471Y-91986500D01*
X60284635Y-91986500D01*
X60284638Y-91986500D01*
X60307479Y-91984044D01*
X60345196Y-91979990D01*
X60345197Y-91979989D01*
X60345201Y-91979989D01*
X60482204Y-91928889D01*
X60599261Y-91841261D01*
X60686889Y-91724204D01*
X60737989Y-91587201D01*
X60739429Y-91573812D01*
X60744498Y-91526654D01*
X60744500Y-91526634D01*
X60744500Y-90552634D01*
X60763758Y-90455815D01*
X60818602Y-90373736D01*
X65646736Y-85545602D01*
X65728815Y-85490758D01*
X65825634Y-85471500D01*
X69801490Y-85471500D01*
X69898309Y-85490758D01*
X69980388Y-85545602D01*
X69993873Y-85560190D01*
X69994932Y-85561430D01*
X70140570Y-85707068D01*
X70307197Y-85828129D01*
X70307199Y-85828130D01*
X70307202Y-85828132D01*
X70393812Y-85872262D01*
X70490710Y-85921634D01*
X70686592Y-85985280D01*
X70890019Y-86017500D01*
X70890021Y-86017500D01*
X71095979Y-86017500D01*
X71095981Y-86017500D01*
X71299408Y-85985280D01*
X71495290Y-85921634D01*
X71666129Y-85834587D01*
X71687661Y-85823616D01*
X71688749Y-85825752D01*
X71766070Y-85797193D01*
X71864711Y-85801031D01*
X71954375Y-85842324D01*
X71984643Y-85868165D01*
X71988740Y-85872262D01*
X72105791Y-85959886D01*
X72105792Y-85959886D01*
X72105796Y-85959889D01*
X72242799Y-86010989D01*
X72242802Y-86010989D01*
X72242804Y-86010990D01*
X72242802Y-86010990D01*
X72291065Y-86016178D01*
X72303362Y-86017500D01*
X72303365Y-86017500D01*
X73583365Y-86017500D01*
X73680184Y-86036758D01*
X73762263Y-86091602D01*
X73817107Y-86173681D01*
X73836365Y-86270500D01*
X73817107Y-86367319D01*
X73762263Y-86449398D01*
X73455355Y-86756305D01*
X73373276Y-86811149D01*
X73276457Y-86830407D01*
X73256626Y-86829629D01*
X73254985Y-86829500D01*
X73254981Y-86829500D01*
X73049019Y-86829500D01*
X73049017Y-86829500D01*
X72845591Y-86861720D01*
X72649712Y-86925365D01*
X72649705Y-86925368D01*
X72466202Y-87018867D01*
X72299569Y-87139932D01*
X72153932Y-87285570D01*
X72153931Y-87285570D01*
X72086681Y-87378133D01*
X72014192Y-87445141D01*
X71921578Y-87479308D01*
X71822938Y-87475433D01*
X71733290Y-87434104D01*
X71677319Y-87378133D01*
X71610068Y-87285570D01*
X71464430Y-87139932D01*
X71387641Y-87084142D01*
X71297803Y-87018871D01*
X71297801Y-87018870D01*
X71297797Y-87018867D01*
X71114294Y-86925368D01*
X71114293Y-86925367D01*
X71114290Y-86925366D01*
X70918408Y-86861720D01*
X70720708Y-86830407D01*
X70714982Y-86829500D01*
X70714981Y-86829500D01*
X70509019Y-86829500D01*
X70509017Y-86829500D01*
X70305591Y-86861720D01*
X70109712Y-86925365D01*
X70109705Y-86925368D01*
X69926202Y-87018867D01*
X69759569Y-87139932D01*
X69613932Y-87285570D01*
X69613928Y-87285573D01*
X69546371Y-87378558D01*
X69473882Y-87445566D01*
X69381268Y-87479732D01*
X69282628Y-87475856D01*
X69192980Y-87434527D01*
X69168804Y-87410351D01*
X69159583Y-87409625D01*
X68472000Y-88097208D01*
X68472000Y-88085339D01*
X68444741Y-87983606D01*
X68392080Y-87892394D01*
X68317606Y-87817920D01*
X68226394Y-87765259D01*
X68124661Y-87738000D01*
X68112788Y-87738000D01*
X68800372Y-87050416D01*
X68800372Y-87050415D01*
X68757541Y-87019297D01*
X68574095Y-86925827D01*
X68378289Y-86862206D01*
X68174943Y-86830000D01*
X67969056Y-86830000D01*
X67765710Y-86862206D01*
X67569901Y-86925828D01*
X67386462Y-87019295D01*
X67386456Y-87019299D01*
X67343625Y-87050415D01*
X68031210Y-87738000D01*
X68019339Y-87738000D01*
X67917606Y-87765259D01*
X67826394Y-87817920D01*
X67751920Y-87892394D01*
X67699259Y-87983606D01*
X67672000Y-88085339D01*
X67672000Y-88097210D01*
X66984415Y-87409625D01*
X66953299Y-87452456D01*
X66953295Y-87452462D01*
X66859828Y-87635901D01*
X66796206Y-87831710D01*
X66764000Y-88035056D01*
X66764000Y-88240943D01*
X66796206Y-88444289D01*
X66859827Y-88640095D01*
X66953297Y-88823541D01*
X66984415Y-88866372D01*
X66984416Y-88866372D01*
X67672000Y-88178788D01*
X67672000Y-88190661D01*
X67699259Y-88292394D01*
X67751920Y-88383606D01*
X67826394Y-88458080D01*
X67917606Y-88510741D01*
X68019339Y-88538000D01*
X68031210Y-88538000D01*
X67343625Y-89225583D01*
X67386457Y-89256701D01*
X67386462Y-89256704D01*
X67569904Y-89350172D01*
X67765710Y-89413793D01*
X67969056Y-89445999D01*
X67969060Y-89446000D01*
X68174940Y-89446000D01*
X68174943Y-89445999D01*
X68378289Y-89413793D01*
X68574098Y-89350172D01*
X68757541Y-89256702D01*
X68757541Y-89256701D01*
X68800373Y-89225583D01*
X68112790Y-88538000D01*
X68124661Y-88538000D01*
X68226394Y-88510741D01*
X68317606Y-88458080D01*
X68392080Y-88383606D01*
X68444741Y-88292394D01*
X68472000Y-88190661D01*
X68472000Y-88178790D01*
X69159583Y-88866373D01*
X69171645Y-88865424D01*
X69209498Y-88830433D01*
X69302112Y-88796266D01*
X69400752Y-88800141D01*
X69490400Y-88841469D01*
X69546371Y-88897440D01*
X69613932Y-88990430D01*
X69759570Y-89136068D01*
X69926197Y-89257129D01*
X69926199Y-89257130D01*
X69926202Y-89257132D01*
X70010697Y-89300184D01*
X70109710Y-89350634D01*
X70305592Y-89414280D01*
X70509019Y-89446500D01*
X70509021Y-89446500D01*
X70714979Y-89446500D01*
X70714981Y-89446500D01*
X70918408Y-89414280D01*
X71114290Y-89350634D01*
X71297803Y-89257129D01*
X71464430Y-89136068D01*
X71610068Y-88990430D01*
X71677319Y-88897865D01*
X71749807Y-88830859D01*
X71842421Y-88796691D01*
X71941060Y-88800566D01*
X72030709Y-88841894D01*
X72086679Y-88897864D01*
X72153932Y-88990430D01*
X72299570Y-89136068D01*
X72466197Y-89257129D01*
X72466199Y-89257130D01*
X72466202Y-89257132D01*
X72550697Y-89300184D01*
X72649710Y-89350634D01*
X72845592Y-89414280D01*
X73049019Y-89446500D01*
X73049021Y-89446500D01*
X73254979Y-89446500D01*
X73254981Y-89446500D01*
X73458408Y-89414280D01*
X73654290Y-89350634D01*
X73837803Y-89257129D01*
X74004430Y-89136068D01*
X74101506Y-89038991D01*
X74183582Y-88984150D01*
X74280401Y-88964891D01*
X74377220Y-88984149D01*
X74459299Y-89038992D01*
X74495734Y-89085070D01*
X74542970Y-89161652D01*
X74668348Y-89287030D01*
X74819262Y-89380115D01*
X74987574Y-89435887D01*
X75091455Y-89446500D01*
X76292544Y-89446499D01*
X76396426Y-89435887D01*
X76564738Y-89380115D01*
X76715652Y-89287030D01*
X76841030Y-89161652D01*
X76934115Y-89010738D01*
X76989887Y-88842426D01*
X77000500Y-88738545D01*
X77000499Y-88012632D01*
X77019757Y-87915814D01*
X77074598Y-87833738D01*
X79362735Y-85545602D01*
X79444814Y-85490758D01*
X79541633Y-85471500D01*
X79580490Y-85471500D01*
X79677309Y-85490758D01*
X79759388Y-85545602D01*
X79772873Y-85560190D01*
X79773932Y-85561430D01*
X79919570Y-85707068D01*
X80086197Y-85828129D01*
X80086199Y-85828130D01*
X80086202Y-85828132D01*
X80172812Y-85872262D01*
X80269710Y-85921634D01*
X80465592Y-85985280D01*
X80669019Y-86017500D01*
X80669021Y-86017500D01*
X80874979Y-86017500D01*
X80874981Y-86017500D01*
X81078408Y-85985280D01*
X81274290Y-85921634D01*
X81457803Y-85828129D01*
X81624430Y-85707068D01*
X81770068Y-85561430D01*
X81891129Y-85394803D01*
X81984634Y-85211290D01*
X82008344Y-85138315D01*
X82056579Y-85052189D01*
X82134103Y-84991075D01*
X82229112Y-84964280D01*
X82248961Y-84963500D01*
X82501490Y-84963500D01*
X82598309Y-84982758D01*
G37*
G04 #@! TD.AperFunction*
G04 #@! TA.AperFunction,Conductor*
G36*
X93637185Y-86721758D02*
G01*
X93719264Y-86776602D01*
X93888306Y-86945644D01*
X93943150Y-87027723D01*
X93962408Y-87124542D01*
X93961628Y-87144393D01*
X93961500Y-87146019D01*
X93961500Y-87351982D01*
X93993720Y-87555408D01*
X94057365Y-87751287D01*
X94057368Y-87751294D01*
X94150867Y-87934797D01*
X94150870Y-87934801D01*
X94150871Y-87934803D01*
X94271932Y-88101430D01*
X94417570Y-88247068D01*
X94584197Y-88368129D01*
X94584199Y-88368130D01*
X94584202Y-88368132D01*
X94614572Y-88383606D01*
X94767710Y-88461634D01*
X94963592Y-88525280D01*
X95167019Y-88557500D01*
X95167021Y-88557500D01*
X95372979Y-88557500D01*
X95372981Y-88557500D01*
X95576408Y-88525280D01*
X95772290Y-88461634D01*
X95955803Y-88368129D01*
X96122430Y-88247068D01*
X96268068Y-88101430D01*
X96315319Y-88036393D01*
X96338574Y-88014896D01*
X96358544Y-87990320D01*
X96374492Y-87981694D01*
X96387807Y-87969387D01*
X96417515Y-87958426D01*
X96445374Y-87943360D01*
X96463411Y-87941494D01*
X96480421Y-87935219D01*
X96512065Y-87936462D01*
X96543566Y-87933204D01*
X96560942Y-87938382D01*
X96579060Y-87939094D01*
X96607820Y-87952352D01*
X96638170Y-87961397D01*
X96650356Y-87971961D01*
X96668709Y-87980422D01*
X96714784Y-88023648D01*
X96719937Y-88029864D01*
X96771932Y-88101430D01*
X96814745Y-88144243D01*
X96822284Y-88153338D01*
X96840253Y-88186563D01*
X96861242Y-88217975D01*
X96863569Y-88229675D01*
X96869244Y-88240168D01*
X96873130Y-88277743D01*
X96880500Y-88314794D01*
X96880500Y-88547924D01*
X96861242Y-88644743D01*
X96806398Y-88726822D01*
X96742363Y-88773347D01*
X96696202Y-88796867D01*
X96529569Y-88917932D01*
X96383932Y-89063569D01*
X96262867Y-89230202D01*
X96169368Y-89413705D01*
X96169365Y-89413712D01*
X96105720Y-89609591D01*
X96073500Y-89813017D01*
X96073500Y-90018982D01*
X96105720Y-90222408D01*
X96169365Y-90418287D01*
X96169368Y-90418294D01*
X96262867Y-90601797D01*
X96262870Y-90601801D01*
X96262871Y-90601803D01*
X96383932Y-90768430D01*
X96529570Y-90914068D01*
X96696197Y-91035129D01*
X96696199Y-91035130D01*
X96696202Y-91035132D01*
X96732856Y-91053808D01*
X96879710Y-91128634D01*
X97075592Y-91192280D01*
X97279019Y-91224500D01*
X97279021Y-91224500D01*
X97484979Y-91224500D01*
X97484981Y-91224500D01*
X97688408Y-91192280D01*
X97884290Y-91128634D01*
X98067803Y-91035129D01*
X98234430Y-90914068D01*
X98234434Y-90914063D01*
X98240476Y-90909674D01*
X98330124Y-90868345D01*
X98428764Y-90864470D01*
X98521378Y-90898637D01*
X98593867Y-90965645D01*
X98610818Y-90997214D01*
X98612442Y-90996328D01*
X98621111Y-91012205D01*
X98708737Y-91129259D01*
X98708740Y-91129262D01*
X98825791Y-91216886D01*
X98825792Y-91216886D01*
X98825796Y-91216889D01*
X98962799Y-91267989D01*
X98962802Y-91267989D01*
X98962804Y-91267990D01*
X98962802Y-91267990D01*
X99011065Y-91273178D01*
X99023362Y-91274500D01*
X99023365Y-91274500D01*
X100711500Y-91274500D01*
X100808319Y-91293758D01*
X100890398Y-91348602D01*
X100945242Y-91430681D01*
X100964500Y-91527500D01*
X100964500Y-95310365D01*
X100945242Y-95407184D01*
X100890398Y-95489263D01*
X100225355Y-96154305D01*
X100143276Y-96209149D01*
X100046457Y-96228407D01*
X100026626Y-96227629D01*
X100024985Y-96227500D01*
X100024981Y-96227500D01*
X99819019Y-96227500D01*
X99819017Y-96227500D01*
X99615591Y-96259720D01*
X99419712Y-96323365D01*
X99419705Y-96323368D01*
X99236202Y-96416867D01*
X99069569Y-96537932D01*
X98923932Y-96683570D01*
X98923931Y-96683570D01*
X98856681Y-96776133D01*
X98784192Y-96843141D01*
X98691578Y-96877308D01*
X98592938Y-96873433D01*
X98503290Y-96832104D01*
X98447319Y-96776133D01*
X98380068Y-96683570D01*
X98234430Y-96537932D01*
X98129772Y-96461894D01*
X98067803Y-96416871D01*
X98067801Y-96416870D01*
X98067797Y-96416867D01*
X97884294Y-96323368D01*
X97884293Y-96323367D01*
X97884290Y-96323366D01*
X97688408Y-96259720D01*
X97490708Y-96228407D01*
X97484982Y-96227500D01*
X97484981Y-96227500D01*
X97279019Y-96227500D01*
X97279017Y-96227500D01*
X97075591Y-96259720D01*
X96879712Y-96323365D01*
X96879705Y-96323368D01*
X96696202Y-96416867D01*
X96529569Y-96537932D01*
X96383932Y-96683569D01*
X96262867Y-96850202D01*
X96169368Y-97033705D01*
X96169365Y-97033712D01*
X96105720Y-97229591D01*
X96073500Y-97433017D01*
X96073500Y-97638982D01*
X96105720Y-97842408D01*
X96169364Y-98038284D01*
X96170770Y-98041677D01*
X96171248Y-98044081D01*
X96172438Y-98047743D01*
X96172004Y-98047883D01*
X96190030Y-98138495D01*
X96170773Y-98235315D01*
X96115931Y-98317395D01*
X96033853Y-98372240D01*
X95937035Y-98391500D01*
X88566429Y-98391500D01*
X88469610Y-98372242D01*
X88387531Y-98317398D01*
X88332687Y-98235319D01*
X88313429Y-98138500D01*
X88331493Y-98047680D01*
X88331100Y-98047553D01*
X88332180Y-98044227D01*
X88332687Y-98041681D01*
X88332692Y-98041670D01*
X88334173Y-98038094D01*
X88397793Y-97842289D01*
X88429999Y-97638943D01*
X88430000Y-97638940D01*
X88430000Y-97433060D01*
X88429999Y-97433056D01*
X88397793Y-97229710D01*
X88334172Y-97033904D01*
X88240704Y-96850462D01*
X88240701Y-96850457D01*
X88209583Y-96807625D01*
X88209582Y-96807625D01*
X87522000Y-97495207D01*
X87522000Y-97483339D01*
X87494741Y-97381606D01*
X87442080Y-97290394D01*
X87367606Y-97215920D01*
X87276394Y-97163259D01*
X87174661Y-97136000D01*
X87162788Y-97136000D01*
X87850372Y-96448415D01*
X87807541Y-96417297D01*
X87624095Y-96323827D01*
X87428289Y-96260206D01*
X87224943Y-96228000D01*
X87019056Y-96228000D01*
X86815710Y-96260206D01*
X86619901Y-96323828D01*
X86436462Y-96417295D01*
X86436456Y-96417299D01*
X86393625Y-96448415D01*
X87081210Y-97136000D01*
X87069339Y-97136000D01*
X86967606Y-97163259D01*
X86876394Y-97215920D01*
X86801920Y-97290394D01*
X86749259Y-97381606D01*
X86722000Y-97483339D01*
X86722000Y-97495210D01*
X86034415Y-96807625D01*
X85925741Y-96816179D01*
X85827710Y-96804577D01*
X85741581Y-96756342D01*
X85701207Y-96712666D01*
X85680068Y-96683570D01*
X85534430Y-96537932D01*
X85367803Y-96416871D01*
X85367801Y-96416870D01*
X85367797Y-96416867D01*
X85184294Y-96323368D01*
X85184293Y-96323367D01*
X85184290Y-96323366D01*
X84988408Y-96259720D01*
X84790708Y-96228407D01*
X84784982Y-96227500D01*
X84784981Y-96227500D01*
X84579019Y-96227500D01*
X84579017Y-96227500D01*
X84375591Y-96259720D01*
X84179712Y-96323365D01*
X84179705Y-96323368D01*
X83996202Y-96416867D01*
X83829569Y-96537932D01*
X83683932Y-96683569D01*
X83643182Y-96739658D01*
X83570693Y-96806667D01*
X83478078Y-96840834D01*
X83379439Y-96836959D01*
X83289791Y-96795631D01*
X83222782Y-96723142D01*
X83188615Y-96630527D01*
X83185500Y-96590949D01*
X83185500Y-96419887D01*
X83185500Y-96419884D01*
X83146436Y-96223498D01*
X83145771Y-96221892D01*
X83069812Y-96038511D01*
X83069811Y-96038509D01*
X83069810Y-96038507D01*
X82958567Y-95872019D01*
X82816981Y-95730433D01*
X82650493Y-95619190D01*
X82650491Y-95619189D01*
X82650488Y-95619187D01*
X82465504Y-95542564D01*
X82465505Y-95542564D01*
X82381336Y-95525822D01*
X82269116Y-95503500D01*
X82068884Y-95503500D01*
X81911775Y-95534751D01*
X81872497Y-95542564D01*
X81706699Y-95611240D01*
X81706698Y-95611240D01*
X81706693Y-95611242D01*
X81636227Y-95625259D01*
X81609879Y-95630500D01*
X81493000Y-95630500D01*
X81396181Y-95611242D01*
X81314102Y-95556398D01*
X81259258Y-95474319D01*
X81240000Y-95377500D01*
X81240000Y-95250000D01*
X80293686Y-95250000D01*
X80302080Y-95241606D01*
X80354741Y-95150394D01*
X80382000Y-95048661D01*
X80382000Y-94943339D01*
X80354741Y-94841606D01*
X80302080Y-94750394D01*
X80293686Y-94742000D01*
X81240000Y-94742000D01*
X81240000Y-94197412D01*
X81239999Y-94197394D01*
X81233496Y-94136910D01*
X81233494Y-94136903D01*
X81182447Y-94000040D01*
X81182444Y-94000034D01*
X81094905Y-93883097D01*
X81094902Y-93883094D01*
X80977965Y-93795555D01*
X80977961Y-93795553D01*
X80942055Y-93782161D01*
X80938150Y-93779749D01*
X80933650Y-93778854D01*
X80896294Y-93753893D01*
X80858071Y-93730282D01*
X80855386Y-93726559D01*
X80851571Y-93724010D01*
X80826609Y-93686652D01*
X80800333Y-93650212D01*
X80799277Y-93645745D01*
X80796728Y-93641930D01*
X80787963Y-93597867D01*
X80777631Y-93554142D01*
X80778365Y-93549611D01*
X80777470Y-93545111D01*
X80786234Y-93501048D01*
X80793422Y-93456698D01*
X80795833Y-93452793D01*
X80796729Y-93448293D01*
X80821689Y-93410937D01*
X80845301Y-93372714D01*
X80851545Y-93366242D01*
X80925187Y-93292601D01*
X81007267Y-93237758D01*
X81016306Y-93235960D01*
X81104084Y-93218500D01*
X87312466Y-93218500D01*
X87312470Y-93218500D01*
X87459783Y-93189197D01*
X87598549Y-93131718D01*
X87723435Y-93048273D01*
X91905272Y-88866435D01*
X91988718Y-88741549D01*
X92004535Y-88703365D01*
X92046195Y-88602788D01*
X92046196Y-88602785D01*
X92046195Y-88602785D01*
X92046197Y-88602783D01*
X92054266Y-88562217D01*
X92075500Y-88455470D01*
X92075500Y-88421325D01*
X92078394Y-88402356D01*
X92088799Y-88373648D01*
X92094758Y-88343691D01*
X92105466Y-88327664D01*
X92112033Y-88309548D01*
X92132634Y-88287004D01*
X92149602Y-88261612D01*
X92164190Y-88248127D01*
X92165422Y-88247073D01*
X92165430Y-88247068D01*
X92311068Y-88101430D01*
X92432129Y-87934803D01*
X92525634Y-87751290D01*
X92589280Y-87555408D01*
X92621500Y-87351981D01*
X92621500Y-87146019D01*
X92597593Y-86995077D01*
X92601468Y-86896439D01*
X92642796Y-86806791D01*
X92715286Y-86739782D01*
X92807900Y-86705615D01*
X92847478Y-86702500D01*
X93540366Y-86702500D01*
X93637185Y-86721758D01*
G37*
G04 #@! TD.AperFunction*
M02*
