M48
; DRILL file {KiCad 9.0.0} date 2025-04-22T10:43:39+0200
; FORMAT={-:-/ absolute / metric / decimal}
; #@! TF.CreationDate,2025-04-22T10:43:39+02:00
; #@! TF.GenerationSoftware,Kicad,Pcbnew,9.0.0
; #@! TF.FileFunction,Plated,1,2,PTH
FMAT,2
METRIC
; #@! TA.AperFunction,Plated,PTH,ViaDrill
T1C0.500
; #@! TA.AperFunction,Plated,PTH,ComponentDrill
T2C0.800
; #@! TA.AperFunction,Plated,PTH,ComponentDrill
T3C1.000
; #@! TA.AperFunction,Plated,PTH,ComponentDrill
T4C1.550
%
G90
G05
T1
X82.169Y-96.52
T2
X50.8Y-93.726
X50.8Y-96.647
X58.42Y-93.726
X58.42Y-96.647
X59.055Y-80.01
X59.055Y-82.55
X59.055Y-85.09
X59.436Y-88.178
X59.436Y-90.678
X59.563Y-71.882
X59.563Y-74.422
X59.563Y-76.962
X63.119Y-92.623
X63.119Y-95.123
X63.373Y-71.882
X63.373Y-79.502
X63.373Y-84.709
X68.072Y-88.138
X68.072Y-95.758
X69.342Y-74.422
X69.342Y-82.042
X70.612Y-88.138
X70.612Y-95.758
X70.993Y-84.709
X72.39Y-74.422
X72.39Y-82.042
X73.152Y-84.709
X73.152Y-88.138
X73.152Y-95.758
X75.184Y-74.422
X75.184Y-82.042
X75.692Y-88.138
X75.692Y-95.758
X79.982Y-89.916
X79.982Y-92.456
X79.982Y-94.996
X80.772Y-84.709
X83.693Y-81.153
X83.693Y-84.201
X83.693Y-87.249
X84.682Y-89.916
X84.682Y-97.536
X87.122Y-89.916
X87.122Y-97.536
X91.313Y-81.153
X91.313Y-84.201
X91.313Y-87.249
X93.472Y-67.056
X95.27Y-87.249
X97.382Y-89.916
X97.382Y-97.536
X97.77Y-87.249
X99.922Y-89.916
X99.922Y-97.536
X101.092Y-67.056
T3
X66.33Y-75.74
X66.33Y-77.74
X66.33Y-79.74
X66.33Y-81.74
X76.39Y-70.38
X76.454Y-66.548
X78.93Y-70.38
X78.994Y-66.548
X81.47Y-70.38
X81.534Y-66.548
X84.01Y-70.38
X84.074Y-66.548
X86.55Y-70.38
X86.614Y-66.548
X89.09Y-70.38
X96.19Y-76.98
X96.19Y-80.52
T4
X51.562Y-75.438
X51.562Y-81.534
X51.562Y-87.63
X54.61Y-72.39
X54.61Y-78.486
X54.61Y-84.582
X54.61Y-90.678
M30
