0
SECTION
2
HEADER
9
$INSUNITS
70
4
9
$ACADVER
1
AC1014
9
$HANDSEED
5
FFFF
0
ENDSEC
0
SECTION
2
TABLES
0
TABLE
2
VPORT
5
8
100
AcDbSymbolTable
0
ENDTAB
0
TABLE
2
LTYPE
5
5
100
AcDbSymbolTable
0
LTYPE
5
14
100
AcDbSymbolTableRecord
100
AcDbLinetypeTableRecord
2
BYBLOCK
70
0
0
LTYPE
5
15
100
AcDbSymbolTableRecord
100
AcDbLinetypeTableRecord
2
BYLAYER
70
0
0
LTYPE
5
16
100
AcDbSymbolTableRecord
100
AcDbLinetypeTableRecord
2
DASHED
70
0
3
Dashed __ __ __ __ __ __ __ __ __ __ __ __ __ _
72
65
73
2
40
0.75
49
0.5
74
0
49
-0.25
74
0
0
ENDTAB
0
TABLE
2
LAYER
5
2
100
AcDbSymbolTable
70
2
0
LAYER
5
50
100
AcDbSymbolTableRecord
100
AcDbLayerTableRecord
2
0
70
0
62
7
6
CONTINUOUS
0
ENDTAB
0
TABLE
2
STYLE
5
3
100
AcDbSymbolTable
70
1
0
STYLE
5
11
100
AcDbSymbolTableRecord
100
AcDbTextStyleTableRecord
2
STANDARD
70
0
0
ENDTAB
0
TABLE
2
VIEW
5
6
100
AcDbSymbolTable
70
0
0
ENDTAB
0
TABLE
2
UCS
5
7
100
AcDbSymbolTable
70
0
0
ENDTAB
0
TABLE
2
APPID
5
9
100
AcDbSymbolTable
70
2
0
APPID
5
12
100
AcDbSymbolTableRecord
100
AcDbRegAppTableRecord
2
ACAD
70
0
0
ENDTAB
0
TABLE
2
DIMSTYLE
5
A
100
AcDbSymbolTable
70
1
0
ENDTAB
0
TABLE
2
BLOCK_RECORD
5
1
100
AcDbSymbolTable
70
1
0
BLOCK_RECORD
5
1F
100
AcDbSymbolTableRecord
100
AcDbBlockTableRecord
2
*MODEL_SPACE
0
BLOCK_RECORD
5
1B
100
AcDbSymbolTableRecord
100
AcDbBlockTableRecord
2
*PAPER_SPACE
0
ENDTAB
0
ENDSEC
0
SECTION
2
BLOCKS
0
BLOCK
5
20
100
AcDbEntity
100
AcDbBlockBegin
2
*MODEL_SPACE
0
ENDBLK
5
21
100
AcDbEntity
100
AcDbBlockEnd
0
BLOCK
5
1C
100
AcDbEntity
100
AcDbBlockBegin
2
*PAPER_SPACE
0
ENDBLK
5
1D
100
AcDbEntity
100
AcDbBlockEnd
0
ENDSEC
0
SECTION
2
ENTITIES
0
POINT
5
100
100
AcDbEntity
8
0
100
AcDbPoint
10
0
20
0
30
0
0
POINT
5
101
100
AcDbEntity
8
0
100
AcDbPoint
10
-10.06
20
-8.3599999999999959
30
0
0
CIRCLE
5
102
100
AcDbEntity
8
0
100
AcDbCircle
10
0
20
0
30
0
40
0.25
210
0
220
0
230
1
0
CIRCLE
5
103
100
AcDbEntity
8
0
100
AcDbCircle
10
2.54
20
0
30
0
40
0.25
210
0
220
0
230
1
0
CIRCLE
5
104
100
AcDbEntity
8
0
100
AcDbCircle
10
5.0800000000000001
20
0
30
0
40
0.25
210
0
220
0
230
1
0
CIRCLE
5
105
100
AcDbEntity
8
0
100
AcDbCircle
10
7.6200000000000001
20
0
30
0
40
0.25
210
0
220
0
230
1
0
CIRCLE
5
106
100
AcDbEntity
8
0
100
AcDbCircle
10
10.16
20
0
30
0
40
0.25
210
0
220
0
230
1
0
CIRCLE
5
107
100
AcDbEntity
8
0
100
AcDbCircle
10
12.699999999999999
20
0
30
0
40
0.25
210
0
220
0
230
1
0
CIRCLE
5
108
100
AcDbEntity
8
0
100
AcDbCircle
10
-10.06
20
-5.3599999999999959
30
0
40
0.25
210
0
220
0
230
1
0
LINE
5
109
100
AcDbEntity
8
0
100
AcDbLine
10
-10.06
20
-5.3599999999999959
30
0
11
-10.06
21
4.9279787197689492e-15
31
0
6
DASHED
0
LINE
5
110
100
AcDbEntity
8
0
100
AcDbLine
10
-10.06
20
4.9279787197689492e-15
30
0
11
0
21
0
31
0
6
DASHED
0
CIRCLE
5
111
100
AcDbEntity
8
0
100
AcDbCircle
10
-10.06
20
-7.3599999999999968
30
0
40
0.25
210
0
220
0
230
1
0
CIRCLE
5
112
100
AcDbEntity
8
0
100
AcDbCircle
10
-10.06
20
-9.3599999999999977
30
0
40
0.25
210
0
220
0
230
1
0
CIRCLE
5
113
100
AcDbEntity
8
0
100
AcDbCircle
10
-10.06
20
-11.359999999999996
30
0
40
0.25
210
0
220
0
230
1
0
CIRCLE
5
114
100
AcDbEntity
8
0
100
AcDbCircle
10
19.800000000000001
20
-6.6000000000000014
30
0
40
0.25
210
0
220
0
230
1
0
CIRCLE
5
115
100
AcDbEntity
8
0
100
AcDbCircle
10
19.800000000000001
20
-10.140000000000002
30
0
40
0.25
210
0
220
0
230
1
0
LINE
5
116
100
AcDbEntity
8
0
100
AcDbLine
10
19.800000000000001
20
-6.6000000000000014
30
0
11
19.800000000000001
21
-8.6949922739462058e-16
31
0
6
DASHED
0
LINE
5
117
100
AcDbEntity
8
0
100
AcDbLine
10
19.800000000000001
20
-8.6949922739462058e-16
30
0
11
12.699999999999999
21
0
31
0
6
DASHED
0
LINE
5
118
100
AcDbEntity
8
0
100
AcDbLine
10
-1.7200000000000015
20
1.6400000000000028
30
0
11
13.94
21
1.6400000000000086
31
0
0
LINE
5
119
100
AcDbEntity
8
0
100
AcDbLine
10
17.739999999999998
20
1.6400000000000055
30
0
11
25.859999999999999
21
1.6400000000000032
31
0
0
LINE
5
120
100
AcDbEntity
8
0
100
AcDbLine
10
25.859999999999999
20
1.6400000000000032
30
0
11
25.859999999999999
21
-5.9399999999999986
31
0
0
LINE
5
121
100
AcDbEntity
8
0
100
AcDbLine
10
25.859999999999999
20
-8.3599999999999994
30
0
11
-14.140000000000001
21
-8.3599999999999959
31
0
6
DASHED
0
LINE
5
122
100
AcDbEntity
8
0
100
AcDbLine
10
-10.06
20
-7.3599999999999968
30
0
11
-10.06
21
-9.3599999999999977
31
0
6
DASHED
0
CIRCLE
5
123
100
AcDbEntity
8
0
100
AcDbCircle
10
-14.140000000000001
20
-8.3599999999999959
30
0
40
1.1000000000000001
210
0
220
0
230
1
0
ARC
5
124
100
AcDbEntity
8
0
100
AcDbCircle
10
-14.140000000000001
20
-8.3599999999999959
30
0
40
1.9400000000000006
210
0
220
-0
230
1
100
AcDbArc
50
90
51
270
0
LINE
5
125
100
AcDbEntity
8
0
100
AcDbLine
10
-14.140000000000001
20
-6.4199999999999955
30
0
11
-14.140000000000001
21
1.640000000000001
31
0
0
LINE
5
126
100
AcDbEntity
8
0
100
AcDbLine
10
-14.140000000000001
20
1.640000000000001
30
0
11
-6.5600000000000014
21
1.6400000000000035
31
0
0
ARC
5
127
100
AcDbEntity
8
0
100
AcDbCircle
10
-4.1400000000000015
20
1.6400000000000041
30
0
40
2.4199999999999999
210
0
220
0
230
1
100
AcDbArc
50
180
51
360
0
LINE
5
128
100
AcDbEntity
8
0
100
AcDbLine
10
-6.5600000000000014
20
1.6400000000000035
30
0
11
-1.7200000000000015
21
1.6400000000000028
31
0
6
DASHED
0
ARC
5
129
100
AcDbEntity
8
0
100
AcDbCircle
10
15.839999999999998
20
1.640000000000007
30
0
40
1.8999999999999995
210
-0
220
0
230
1
100
AcDbArc
50
0
51
180
0
LINE
5
130
100
AcDbEntity
8
0
100
AcDbLine
10
13.94
20
1.6400000000000086
30
0
11
17.739999999999998
21
1.6400000000000055
31
0
6
DASHED
0
CIRCLE
5
131
100
AcDbEntity
8
0
100
AcDbCircle
10
15.839999999999998
20
1.640000000000007
30
0
40
1.1000000000000001
210
0
220
0
230
1
0
ARC
5
132
100
AcDbEntity
8
0
100
AcDbCircle
10
25.859999999999999
20
-8.3599999999999994
30
0
40
2.4199999999999999
210
0
220
-0
230
1
100
AcDbArc
50
90
51
270
0
LINE
5
133
100
AcDbEntity
8
0
100
AcDbLine
10
25.859999999999999
20
-10.779999999999998
30
0
11
25.859999999999999
21
-5.9399999999999986
31
0
6
DASHED
0
LINE
5
134
100
AcDbEntity
8
0
100
AcDbLine
10
-14.140000000000001
20
-10.299999999999997
30
0
11
-14.140000000000001
21
-18.359999999999992
31
0
0
LINE
5
135
100
AcDbEntity
8
0
100
AcDbLine
10
-14.140000000000001
20
-18.359999999999992
30
0
11
-6.5600000000000023
21
-18.359999999999999
31
0
0
ARC
5
136
100
AcDbEntity
8
0
100
AcDbCircle
10
-4.1400000000000023
20
-18.359999999999999
30
0
40
2.4199999999999999
210
0
220
0
230
1
100
AcDbArc
50
0
51
180
0
LINE
5
137
100
AcDbEntity
8
0
100
AcDbLine
10
-1.7200000000000026
20
-18.359999999999999
30
0
11
13.94
21
-18.360000000000003
31
0
0
ARC
5
138
100
AcDbEntity
8
0
100
AcDbCircle
10
15.839999999999998
20
-18.360000000000003
30
0
40
1.8999999999999995
210
0
220
0
230
1
100
AcDbArc
50
-180
51
0
0
LINE
5
139
100
AcDbEntity
8
0
100
AcDbLine
10
17.739999999999998
20
-18.359999999999999
30
0
11
25.859999999999999
21
-18.359999999999999
31
0
0
LINE
5
140
100
AcDbEntity
8
0
100
AcDbLine
10
25.859999999999999
20
-18.359999999999999
30
0
11
25.859999999999999
21
-10.780000000000003
31
0
0
CIRCLE
5
141
100
AcDbEntity
8
0
100
AcDbCircle
10
15.839999999999998
20
-18.360000000000003
30
0
40
1.1000000000000001
210
0
220
0
230
1
0
LINE
5
142
100
AcDbEntity
8
0
100
AcDbLine
10
-14.140000000000001
20
-10.299999999999997
30
0
11
-14.140000000000001
21
-6.4199999999999955
31
0
6
DASHED
0
ENDSEC
0
SECTION
2
OBJECTS
0
DICTIONARY
5
C
100
AcDbDictionary
3
ACAD_GROUP
350
D
3
ACAD_MLINESTYLE
350
17
0
DICTIONARY
5
D
100
AcDbDictionary
0
DICTIONARY
5
1A
330
C
100
AcDbDictionary
0
DICTIONARY
5
17
100
AcDbDictionary
0
ENDSEC
0
EOF
